AtkinsonHyperlegibleNext-MediumItalic.sfdir
StartChar: exclam
Encoding: 33 33 263
Width: 297
GlyphClass: 1
Flags: W
LayerCount: 2
Fore
SplineSet
142 496 m 1,0,-1
 178 668 l 1,1,-1
 296 668 l 1,2,-1
 259 496 l 1,3,-1
 176 213 l 1,4,-1
 105 213 l 1,5,-1
 142 496 l 1,0,-1
55 11 m 128,-1,7
 33 34 33 34 33 67 c 0,8,9
 33 98 33 98 55.5 120 c 128,-1,10
 78 142 78 142 109 142 c 0,11,12
 141 142 141 142 163.5 119.5 c 128,-1,13
 186 97 186 97 187 65 c 0,14,15
 187 34 187 34 164.5 11 c 128,-1,16
 142 -12 142 -12 110 -12 c 0,17,6
 77 -12 77 -12 55 11 c 128,-1,7
EndSplineSet
EndChar
StartChar: quotedbl
Encoding: 34 34 293
Width: 341
GlyphClass: 1
Flags: W
LayerCount: 2
Fore
SplineSet
287 668 m 1,0,-1
 390 668 l 1,1,-1
 329 443 l 1,2,-1
 253 443 l 1,3,-1
 287 668 l 1,0,-1
129 668 m 1,4,-1
 232 668 l 1,5,-1
 171 443 l 1,6,-1
 95 443 l 1,7,-1
 129 668 l 1,4,-1
EndSplineSet
EndChar
StartChar: numbersign
Encoding: 35 35 270
Width: 695
GlyphClass: 1
Flags: W
LayerCount: 2
Fore
SplineSet
137 158 m 1,0,-1
 14 158 l 1,1,-1
 49 256 l 1,2,-1
 171 256 l 1,3,-1
 227 412 l 1,4,-1
 105 412 l 1,5,-1
 139 510 l 1,6,-1
 262 510 l 1,7,-1
 318 668 l 1,8,-1
 421 668 l 1,9,-1
 365 510 l 1,10,-1
 495 510 l 1,11,-1
 551 668 l 1,12,-1
 653 668 l 1,13,-1
 597 510 l 1,14,-1
 718 510 l 1,15,-1
 684 412 l 1,16,-1
 562 412 l 1,17,-1
 507 256 l 1,18,-1
 629 256 l 1,19,-1
 593 158 l 1,20,-1
 472 158 l 1,21,-1
 416 0 l 1,22,-1
 313 0 l 1,23,-1
 369 158 l 1,24,-1
 240 158 l 1,25,-1
 184 0 l 1,26,-1
 81 0 l 1,27,-1
 137 158 l 1,0,-1
405 256 m 1,28,-1
 459 412 l 1,29,-1
 330 412 l 1,30,-1
 275 256 l 1,31,-1
 405 256 l 1,28,-1
EndSplineSet
EndChar
StartChar: dollar
Encoding: 36 36 313
Width: 599
GlyphClass: 1
Flags: W
LayerCount: 2
Fore
SplineSet
90.5 47.5 m 128,-1,1
 38 88 38 88 22 154 c 1,2,-1
 127 190 l 1,3,4
 135 152 135 152 164 126 c 128,-1,5
 193 100 193 100 234 89 c 1,6,-1
 280 304 l 1,7,-1
 248 315 l 2,8,9
 177 340 177 340 137.5 378.5 c 128,-1,10
 98 417 98 417 98 475 c 0,11,12
 98 537 98 537 134.5 583 c 128,-1,13
 171 629 171 629 230.5 654 c 128,-1,14
 290 679 290 679 359 680 c 1,15,-1
 376 758 l 1,16,-1
 435 758 l 1,17,-1
 417 676 l 1,18,19
 482 666 482 666 529 633 c 128,-1,20
 576 600 576 600 596 544 c 1,21,-1
 492 506 l 1,22,23
 481 535 481 535 455.5 554 c 128,-1,24
 430 573 430 573 396 581 c 1,25,-1
 356 389 l 1,26,-1
 380 381 l 2,27,28
 466 351 466 351 511.5 312.5 c 128,-1,29
 557 274 557 274 557 209 c 0,30,31
 557 147 557 147 521.5 96 c 128,-1,32
 486 45 486 45 421 16.5 c 128,-1,33
 356 -12 356 -12 272 -12 c 1,34,-1
 255 -90 l 1,35,-1
 196 -90 l 1,36,-1
 214 -6 l 1,37,0
 143 7 143 7 90.5 47.5 c 128,-1,1
400.5 111 m 128,-1,39
 443 141 443 141 443 186 c 0,40,41
 443 219 443 219 420.5 240.5 c 128,-1,42
 398 262 398 262 342 282 c 2,43,-1
 334 285 l 1,44,-1
 291 82 l 1,45,38
 358 81 358 81 400.5 111 c 128,-1,39
249 559.5 m 128,-1,47
 212 535 212 535 212 494 c 0,48,49
 212 465 212 465 232 445 c 128,-1,50
 252 425 252 425 291 412 c 2,51,-1
 302 408 l 1,52,-1
 339 586 l 1,53,46
 286 584 286 584 249 559.5 c 128,-1,47
EndSplineSet
EndChar
StartChar: percent
Encoding: 37 37 341
Width: 991
GlyphClass: 1
Flags: W
LayerCount: 2
Fore
SplineSet
762 668 m 1,0,-1
 870 668 l 1,1,-1
 264 0 l 1,2,-1
 156 0 l 1,3,-1
 762 668 l 1,0,-1
182 329.5 m 128,-1,5
 139 355 139 355 114 398 c 128,-1,6
 89 441 89 441 89 492 c 256,7,8
 89 543 89 543 114 586 c 128,-1,9
 139 629 139 629 182 654.5 c 128,-1,10
 225 680 225 680 276 680 c 256,11,12
 327 680 327 680 370 655 c 128,-1,13
 413 630 413 630 438 586.5 c 128,-1,14
 463 543 463 543 463 492 c 256,15,16
 463 441 463 441 438 397.5 c 128,-1,17
 413 354 413 354 370 329 c 128,-1,18
 327 304 327 304 276 304 c 256,19,4
 225 304 225 304 182 329.5 c 128,-1,5
344.5 423.5 m 128,-1,21
 373 452 373 452 373 492 c 256,22,23
 373 532 373 532 344.5 560.5 c 128,-1,24
 316 589 316 589 276 589 c 256,25,26
 236 589 236 589 208 560.5 c 128,-1,27
 180 532 180 532 180 492 c 256,28,29
 180 452 180 452 208 423.5 c 128,-1,30
 236 395 236 395 276 395 c 256,31,20
 316 395 316 395 344.5 423.5 c 128,-1,21
657 13.5 m 128,-1,33
 614 39 614 39 588.5 82 c 128,-1,34
 563 125 563 125 563 176 c 256,35,36
 563 227 563 227 588.5 270 c 128,-1,37
 614 313 614 313 657 338.5 c 128,-1,38
 700 364 700 364 751 364 c 256,39,40
 802 364 802 364 845 338.5 c 128,-1,41
 888 313 888 313 913 270 c 128,-1,42
 938 227 938 227 938 176 c 256,43,44
 938 125 938 125 913 82 c 128,-1,45
 888 39 888 39 845 13.5 c 128,-1,46
 802 -12 802 -12 751 -12 c 256,47,32
 700 -12 700 -12 657 13.5 c 128,-1,33
819 107.5 m 128,-1,49
 847 136 847 136 847 176 c 256,50,51
 847 216 847 216 819 244.5 c 128,-1,52
 791 273 791 273 751 273 c 256,53,54
 711 273 711 273 682.5 245 c 128,-1,55
 654 217 654 217 654 176 c 0,56,57
 654 136 654 136 682.5 107.5 c 128,-1,58
 711 79 711 79 751 79 c 256,59,48
 791 79 791 79 819 107.5 c 128,-1,49
EndSplineSet
EndChar
StartChar: ampersand
Encoding: 38 38 298
Width: 728
GlyphClass: 1
Flags: W
LayerCount: 2
Fore
SplineSet
105 35 m 128,-1,1
 40 82 40 82 40 166 c 0,2,3
 40 252 40 252 101 311 c 128,-1,4
 162 370 162 370 259 393 c 1,5,6
 215 464 215 464 215 519 c 0,7,8
 215 571 215 571 241.5 610 c 128,-1,9
 268 649 268 649 313.5 670 c 128,-1,10
 359 691 359 691 412 691 c 0,11,12
 459 691 459 691 498.5 674 c 128,-1,13
 538 657 538 657 562 624 c 128,-1,14
 586 591 586 591 586 546 c 0,15,16
 586 479 586 479 539.5 430.5 c 128,-1,17
 493 382 493 382 414 356 c 1,18,-1
 507 216 l 1,19,20
 554 282 554 282 575 356 c 1,21,-1
 680 356 l 1,22,23
 663 294 663 294 632.5 237.5 c 128,-1,24
 602 181 602 181 560 135 c 1,25,-1
 650 0 l 1,26,-1
 523 0 l 1,27,-1
 482 62 l 1,28,29
 387 -12 387 -12 271 -12 c 0,30,0
 170 -12 170 -12 105 35 c 128,-1,1
431 135 m 1,32,-1
 306 321 l 1,33,34
 238 305 238 305 197 269 c 128,-1,35
 156 233 156 233 156 179 c 0,36,37
 156 133 156 133 191.5 107 c 128,-1,38
 227 81 227 81 281 81 c 0,39,31
 367 81 367 81 431 135 c 1,32,-1
451 468 m 128,-1,41
 485 497 485 497 485 537 c 0,42,43
 485 567 485 567 462.5 585 c 128,-1,44
 440 603 440 603 407 603 c 0,45,46
 369 603 369 603 344.5 583 c 128,-1,47
 320 563 320 563 320 529 c 0,48,49
 320 489 320 489 366 425 c 1,50,40
 417 439 417 439 451 468 c 128,-1,41
EndSplineSet
EndChar
StartChar: quotesingle
Encoding: 39 39 294
Width: 183
GlyphClass: 1
Flags: W
LayerCount: 2
Fore
SplineSet
129 668 m 1,0,-1
 232 668 l 1,1,-1
 171 443 l 1,2,-1
 95 443 l 1,3,-1
 129 668 l 1,0,-1
EndSplineSet
EndChar
StartChar: parenleft
Encoding: 40 40 277
Width: 314
GlyphClass: 1
Flags: W
LayerCount: 2
Fore
SplineSet
48 127 m 0,1,2
 48 281 48 281 106.5 429 c 128,-1,3
 165 577 165 577 280 708 c 1,4,-1
 398 708 l 1,5,6
 277 581 277 581 213.5 429.5 c 128,-1,7
 150 278 150 278 150 122 c 0,8,9
 150 -29 150 -29 203 -162 c 1,10,-1
 99 -162 l 1,11,0
 48 -30 48 -30 48 127 c 0,1,2
EndSplineSet
EndChar
StartChar: parenright
Encoding: 41 41 278
Width: 314
GlyphClass: 1
Flags: W
LayerCount: 2
Fore
SplineSet
111 118 m 128,-1,1
 175 270 175 270 175 425 c 0,2,3
 175 576 175 576 122 709 c 1,4,-1
 226 709 l 1,5,6
 277 577 277 577 277 420 c 0,7,8
 277 266 277 266 218 118.5 c 128,-1,9
 159 -29 159 -29 45 -161 c 1,10,-1
 -73 -161 l 1,11,0
 47 -34 47 -34 111 118 c 128,-1,1
EndSplineSet
EndChar
StartChar: asterisk
Encoding: 42 42 269
Width: 486
GlyphClass: 1
Flags: W
LayerCount: 2
Fore
SplineSet
140 387 m 1,0,-1
 235 480 l 1,1,-1
 123 531 l 1,2,-1
 160 596 l 1,3,-1
 270 544 l 1,4,-1
 296 668 l 1,5,-1
 366 668 l 1,6,-1
 338 537 l 1,7,-1
 465 563 l 1,8,-1
 474 495 l 1,9,-1
 345 469 l 1,10,-1
 398 358 l 1,11,-1
 336 325 l 1,12,-1
 282 433 l 1,13,-1
 188 338 l 1,14,-1
 140 387 l 1,0,-1
EndSplineSet
EndChar
StartChar: plus
Encoding: 43 43 320
Width: 601
GlyphClass: 1
Flags: W
LayerCount: 2
Fore
SplineSet
241 199 m 1,0,-1
 39 199 l 1,1,-1
 60 297 l 1,2,-1
 262 297 l 1,3,-1
 304 496 l 1,4,-1
 402 496 l 1,5,-1
 360 297 l 1,6,-1
 562 297 l 1,7,-1
 541 199 l 1,8,-1
 339 199 l 1,9,-1
 296 0 l 1,10,-1
 198 0 l 1,11,-1
 241 199 l 1,0,-1
EndSplineSet
EndChar
StartChar: comma
Encoding: 44 44 259
Width: 235
GlyphClass: 1
Flags: W
LayerCount: 2
Fore
SplineSet
15.5 20 m 128,-1,1
 2 39 2 39 2 65 c 0,2,3
 2 97 2 97 24.5 119.5 c 128,-1,4
 47 142 47 142 78 142 c 0,5,6
 111 142 111 142 133.5 120.5 c 128,-1,7
 156 99 156 99 156 68 c 0,8,9
 156 42 156 42 138 14 c 2,10,-1
 43 -137 l 1,11,-1
 -25 -137 l 1,12,-1
 51 -8 l 1,13,0
 29 1 29 1 15.5 20 c 128,-1,1
EndSplineSet
EndChar
StartChar: hyphen
Encoding: 45 45 273
Width: 366
GlyphClass: 1
Flags: W
LayerCount: 2
Fore
SplineSet
42 298 m 1,0,-1
 346 298 l 1,1,-1
 325 199 l 1,2,-1
 21 199 l 1,3,-1
 42 298 l 1,0,-1
EndSplineSet
EndChar
StartChar: period
Encoding: 46 46 258
Width: 237
GlyphClass: 1
Flags: W
LayerCount: 2
Fore
SplineSet
25 10.5 m 128,-1,1
 2 33 2 33 2 65 c 256,2,3
 2 97 2 97 25 120 c 128,-1,4
 48 143 48 143 80 143 c 256,5,6
 112 143 112 143 134.5 120 c 128,-1,7
 157 97 157 97 157 65 c 0,8,9
 157 34 157 34 134.5 11 c 128,-1,10
 112 -12 112 -12 80 -12 c 256,11,0
 48 -12 48 -12 25 10.5 c 128,-1,1
EndSplineSet
EndChar
StartChar: slash
Encoding: 47 47 271
Width: 409
GlyphClass: 5
Flags: W
LayerCount: 2
Fore
SplineSet
377 708 m 1,0,-1
 487 708 l 1,1,-1
 58 -90 l 1,2,-1
 -52 -90 l 1,3,-1
 377 708 l 1,0,-1
EndSplineSet
EndChar
StartChar: zero
Encoding: 48 48 229
Width: 648
GlyphClass: 1
Flags: W
LayerCount: 2
Fore
SplineSet
123 57 m 128,-1,1
 63 126 63 126 63 245 c 0,2,3
 63 342 63 342 97 442.5 c 128,-1,4
 131 543 131 543 203.5 612 c 128,-1,5
 276 681 276 681 386 681 c 0,6,7
 504 681 504 681 563.5 612 c 128,-1,8
 623 543 623 543 623 426 c 0,9,10
 623 330 623 330 588.5 228.5 c 128,-1,11
 554 127 554 127 481.5 57.5 c 128,-1,12
 409 -12 409 -12 300 -12 c 0,13,0
 183 -12 183 -12 123 57 c 128,-1,1
404 117 m 1,15,-1
 233 489 l 1,16,17
 202 436 202 436 186 367 c 128,-1,18
 170 298 170 298 170 240 c 0,19,20
 170 164 170 164 201.5 120.5 c 128,-1,21
 233 77 233 77 302 77 c 0,22,14
 359 77 359 77 404 117 c 1,15,-1
499 304 m 128,-1,24
 514 371 514 371 514 428 c 0,25,26
 514 504 514 504 483 548.5 c 128,-1,27
 452 593 452 593 384 593 c 0,28,29
 328 593 328 593 284 554 c 1,30,-1
 454 184 l 1,31,23
 484 237 484 237 499 304 c 128,-1,24
EndSplineSet
Substitution2: "'tnum' Tabular Numbers in Latin lookup 10 subtable" zero.tf
AlternateSubs2: "'aalt' Access All Alternates in Latin lookup 0 subtable" zero.tf
EndChar
StartChar: one
Encoding: 49 49 230
Width: 422
GlyphClass: 5
Flags: W
LayerCount: 2
Fore
SplineSet
257 483 m 1,0,-1
 89 483 l 1,1,-1
 107 571 l 1,2,3
 182 570 182 570 218 576 c 128,-1,4
 254 582 254 582 277 602 c 128,-1,5
 300 622 300 622 328 668 c 1,6,-1
 406 668 l 1,7,-1
 264 0 l 1,8,-1
 155 0 l 1,9,-1
 257 483 l 1,0,-1
EndSplineSet
Substitution2: "'tnum' Tabular Numbers in Latin lookup 10 subtable" one.tf
Substitution2: "'sups' Superscript in Latin lookup 6 subtable" uni00B9
AlternateSubs2: "'aalt' Access All Alternates in Latin lookup 0 subtable" uni00B9 one.tf
EndChar
StartChar: two
Encoding: 50 50 231
Width: 562
GlyphClass: 5
Flags: W
LayerCount: 2
Fore
SplineSet
225 238.5 m 128,-1,1
 316 300 316 300 380 368.5 c 128,-1,2
 444 437 444 437 444 502 c 0,3,4
 444 544 444 544 414.5 569 c 128,-1,5
 385 594 385 594 337 594 c 0,6,7
 290 594 290 594 253.5 570 c 128,-1,8
 217 546 217 546 197 492 c 1,9,-1
 94 532 l 1,10,11
 128 606 128 606 193 643 c 128,-1,12
 258 680 258 680 340 680 c 0,13,14
 435 680 435 680 496.5 635 c 128,-1,15
 558 590 558 590 558 511 c 0,16,17
 558 424 558 424 493.5 346.5 c 128,-1,18
 429 269 429 269 345.5 212.5 c 128,-1,19
 262 156 262 156 155 97 c 1,20,-1
 490 97 l 1,21,-1
 469 0 l 1,22,-1
 -24 0 l 1,23,-1
 -4 95 l 1,24,0
 134 177 134 177 225 238.5 c 128,-1,1
EndSplineSet
Substitution2: "'tnum' Tabular Numbers in Latin lookup 10 subtable" two.tf
Substitution2: "'sups' Superscript in Latin lookup 6 subtable" uni00B2
AlternateSubs2: "'aalt' Access All Alternates in Latin lookup 0 subtable" uni00B2 two.tf
EndChar
StartChar: three
Encoding: 51 51 232
Width: 587
GlyphClass: 5
Flags: W
LayerCount: 2
Fore
SplineSet
102.5 29.5 m 128,-1,1
 39 71 39 71 26 150 c 1,2,-1
 130 180 l 1,3,4
 137 127 137 127 174 100.5 c 128,-1,5
 211 74 211 74 265 74 c 0,6,7
 325 74 325 74 364.5 108.5 c 128,-1,8
 404 143 404 143 404 199 c 0,9,10
 404 250 404 250 363 277.5 c 128,-1,11
 322 305 322 305 256 305 c 2,12,-1
 237 305 l 1,13,-1
 254 393 l 1,14,-1
 317 393 l 2,15,16
 380 393 380 393 417.5 425 c 128,-1,17
 455 457 455 457 455 505 c 0,18,19
 455 546 455 546 421.5 570 c 128,-1,20
 388 594 388 594 340 594 c 0,21,22
 291 594 291 594 253.5 568.5 c 128,-1,23
 216 543 216 543 200 495 c 1,24,-1
 98 532 l 1,25,26
 134 607 134 607 199.5 643.5 c 128,-1,27
 265 680 265 680 345 680 c 0,28,29
 404 680 404 680 454.5 661.5 c 128,-1,30
 505 643 505 643 535.5 606.5 c 128,-1,31
 566 570 566 570 566 519 c 0,32,33
 566 455 566 455 526 405 c 128,-1,34
 486 355 486 355 417 340 c 1,35,36
 465 323 465 323 491 285 c 128,-1,37
 517 247 517 247 517 200 c 0,38,39
 517 137 517 137 482 89 c 128,-1,40
 447 41 447 41 388 14.5 c 128,-1,41
 329 -12 329 -12 258 -12 c 0,42,0
 166 -12 166 -12 102.5 29.5 c 128,-1,1
EndSplineSet
Substitution2: "'tnum' Tabular Numbers in Latin lookup 10 subtable" three.tf
Substitution2: "'sups' Superscript in Latin lookup 6 subtable" uni00B3
AlternateSubs2: "'aalt' Access All Alternates in Latin lookup 0 subtable" uni00B3 three.tf
EndChar
StartChar: four
Encoding: 52 52 233
Width: 619
GlyphClass: 5
Flags: W
LayerCount: 2
Fore
SplineSet
341 156 m 1,0,-1
 12 156 l 1,1,-1
 32 247 l 1,2,-1
 438 668 l 1,3,-1
 560 668 l 1,4,-1
 472 256 l 1,5,-1
 583 256 l 1,6,-1
 562 156 l 1,7,-1
 451 156 l 1,8,-1
 418 0 l 1,9,-1
 308 0 l 1,10,-1
 341 156 l 1,0,-1
362 256 m 1,11,-1
 419 522 l 1,12,-1
 160 256 l 1,13,-1
 362 256 l 1,11,-1
EndSplineSet
Substitution2: "'tnum' Tabular Numbers in Latin lookup 10 subtable" four.tf
AlternateSubs2: "'aalt' Access All Alternates in Latin lookup 0 subtable" four.tf
EndChar
StartChar: five
Encoding: 53 53 234
Width: 594
GlyphClass: 1
Flags: W
LayerCount: 2
Fore
SplineSet
117.5 28.5 m 128,-1,1
 59 69 59 69 41 150 c 1,2,-1
 142 181 l 1,3,4
 148 130 148 130 180.5 102 c 128,-1,5
 213 74 213 74 267 74 c 0,6,7
 315 74 315 74 350.5 98.5 c 128,-1,8
 386 123 386 123 405 162.5 c 128,-1,9
 424 202 424 202 424 246 c 0,10,11
 424 302 424 302 389.5 333 c 128,-1,12
 355 364 355 364 308 364 c 0,13,14
 268 364 268 364 234 345 c 128,-1,15
 200 326 200 326 177 294 c 1,16,-1
 83 327 l 1,17,-1
 196 668 l 1,18,-1
 603 668 l 1,19,-1
 583 572 l 1,20,-1
 266 572 l 1,21,-1
 212 410 l 1,22,23
 240 431 240 431 275.5 441.5 c 128,-1,24
 311 452 311 452 345 452 c 0,25,26
 399 452 399 452 443 427.5 c 128,-1,27
 487 403 487 403 512.5 358 c 128,-1,28
 538 313 538 313 538 254 c 0,29,30
 538 179 538 179 503.5 118.5 c 128,-1,31
 469 58 469 58 407 23 c 128,-1,32
 345 -12 345 -12 266 -12 c 0,33,0
 176 -12 176 -12 117.5 28.5 c 128,-1,1
EndSplineSet
Substitution2: "'tnum' Tabular Numbers in Latin lookup 10 subtable" five.tf
AlternateSubs2: "'aalt' Access All Alternates in Latin lookup 0 subtable" five.tf
EndChar
StartChar: six
Encoding: 54 54 235
Width: 611
GlyphClass: 1
Flags: W
LayerCount: 2
Fore
SplineSet
123 48 m 128,-1,1
 63 108 63 108 63 222 c 0,2,3
 63 316 63 316 98.5 423 c 128,-1,4
 134 530 134 530 208 605 c 128,-1,5
 282 680 282 680 390 680 c 0,6,7
 457 680 457 680 509 652 c 128,-1,8
 561 624 561 624 583 568 c 1,9,-1
 480 534 l 1,10,11
 468 561 468 561 442 576.5 c 128,-1,12
 416 592 416 592 383 592 c 0,13,14
 319 592 319 592 271.5 538 c 128,-1,15
 224 484 224 484 201 387 c 1,16,17
 229 415 229 415 267.5 431.5 c 128,-1,18
 306 448 306 448 351 448 c 0,19,20
 409 448 409 448 455 424 c 128,-1,21
 501 400 501 400 527 355.5 c 128,-1,22
 553 311 553 311 553 253 c 0,23,24
 553 185 553 185 519.5 124 c 128,-1,25
 486 63 486 63 425 25.5 c 128,-1,26
 364 -12 364 -12 287 -12 c 0,27,0
 183 -12 183 -12 123 48 c 128,-1,1
367.5 100 m 128,-1,29
 401 123 401 123 419 160.5 c 128,-1,30
 437 198 437 198 437 241 c 0,31,32
 437 297 437 297 403.5 327 c 128,-1,33
 370 357 370 357 319 357 c 0,34,35
 274 357 274 357 241 333.5 c 128,-1,36
 208 310 208 310 190 272 c 128,-1,37
 172 234 172 234 172 192 c 0,38,39
 172 136 172 136 206.5 106.5 c 128,-1,40
 241 77 241 77 290 77 c 0,41,28
 334 77 334 77 367.5 100 c 128,-1,29
EndSplineSet
Substitution2: "'tnum' Tabular Numbers in Latin lookup 10 subtable" six.tf
AlternateSubs2: "'aalt' Access All Alternates in Latin lookup 0 subtable" six.tf
EndChar
StartChar: eight
Encoding: 56 56 237
Width: 619
GlyphClass: 1
Flags: W
LayerCount: 2
Fore
SplineSet
169.5 9.5 m 128,-1,1
 112 31 112 31 76.5 74 c 128,-1,2
 41 117 41 117 41 178 c 0,3,4
 41 250 41 250 83 304 c 128,-1,5
 125 358 125 358 200 385 c 1,6,7
 174 427 174 427 174 475 c 0,8,9
 174 529 174 529 202.5 576.5 c 128,-1,10
 231 624 231 624 278.5 652.5 c 128,-1,11
 326 681 326 681 382 681 c 0,12,13
 428 681 428 681 466 660 c 128,-1,14
 504 639 504 639 526.5 601 c 128,-1,15
 549 563 549 563 549 515 c 0,16,17
 549 472 549 472 528.5 430 c 128,-1,18
 508 388 508 388 470 356 c 1,19,20
 556 301 556 301 556 211 c 0,21,22
 556 144 556 144 520.5 93 c 128,-1,23
 485 42 485 42 425 15 c 128,-1,24
 365 -12 365 -12 293 -12 c 0,25,0
 227 -12 227 -12 169.5 9.5 c 128,-1,1
398.5 115 m 128,-1,27
 440 149 440 149 440 206 c 0,28,29
 440 257 440 257 399 283 c 128,-1,30
 358 309 358 309 302 309 c 0,31,32
 241 309 241 309 198.5 275 c 128,-1,33
 156 241 156 241 156 185 c 0,34,35
 156 133 156 133 197.5 107 c 128,-1,36
 239 81 239 81 295 81 c 0,37,26
 357 81 357 81 398.5 115 c 128,-1,27
423 432.5 m 128,-1,39
 454 462 454 462 454 504 c 0,40,41
 454 539 454 539 431 562.5 c 128,-1,42
 408 586 408 586 372 586 c 0,43,44
 330 586 330 586 299.5 556 c 128,-1,45
 269 526 269 526 269 485 c 0,46,47
 269 449 269 449 292 426 c 128,-1,48
 315 403 315 403 351 403 c 0,49,38
 392 403 392 403 423 432.5 c 128,-1,39
EndSplineSet
Substitution2: "'tnum' Tabular Numbers in Latin lookup 10 subtable" eight.tf
AlternateSubs2: "'aalt' Access All Alternates in Latin lookup 0 subtable" eight.tf
EndChar
StartChar: nine
Encoding: 57 57 238
Width: 584
GlyphClass: 1
Flags: W
LayerCount: 2
Fore
SplineSet
297 204 m 2,0,1
 236 204 236 204 188.5 232 c 128,-1,2
 141 260 141 260 114 308 c 128,-1,3
 87 356 87 356 87 413 c 0,4,5
 87 481 87 481 123.5 542 c 128,-1,6
 160 603 160 603 221.5 640.5 c 128,-1,7
 283 678 283 678 356 678 c 0,8,9
 418 678 418 678 467 650 c 128,-1,10
 516 622 516 622 543.5 573 c 128,-1,11
 571 524 571 524 571 465 c 0,12,13
 571 401 571 401 540 344.5 c 128,-1,14
 509 288 509 288 451 220 c 2,15,-1
 268 0 l 1,16,-1
 137 0 l 1,17,-1
 316 205 l 1,18,-1
 297 204 l 2,0,1
389.5 322.5 m 128,-1,20
 425 343 425 343 446.5 377.5 c 128,-1,21
 468 412 468 412 468 453 c 0,22,23
 468 507 468 507 432 541 c 128,-1,24
 396 575 396 575 344 575 c 0,25,26
 304 575 304 575 269 554.5 c 128,-1,27
 234 534 234 534 212.5 499.5 c 128,-1,28
 191 465 191 465 191 424 c 0,29,30
 191 370 191 370 226.5 336 c 128,-1,31
 262 302 262 302 314 302 c 0,32,19
 354 302 354 302 389.5 322.5 c 128,-1,20
EndSplineSet
Substitution2: "'tnum' Tabular Numbers in Latin lookup 10 subtable" nine.tf
AlternateSubs2: "'aalt' Access All Alternates in Latin lookup 0 subtable" nine.tf
EndChar
StartChar: less
Encoding: 60 60 327
Width: 561
GlyphClass: 1
Flags: W
LayerCount: 2
Fore
SplineSet
32 209 m 1,0,-1
 49 288 l 1,1,-1
 574 501 l 1,2,-1
 549 384 l 1,3,-1
 170 242 l 1,4,-1
 489 100 l 1,5,-1
 467 -4 l 1,6,-1
 32 209 l 1,0,-1
EndSplineSet
EndChar
StartChar: equal
Encoding: 61 61 324
Width: 621
GlyphClass: 1
Flags: W
LayerCount: 2
Fore
SplineSet
91 395 m 1,0,-1
 592 395 l 1,1,-1
 571 298 l 1,2,-1
 70 298 l 1,3,-1
 91 395 l 1,0,-1
52 209 m 1,4,-1
 553 209 l 1,5,-1
 532 112 l 1,6,-1
 31 112 l 1,7,-1
 52 209 l 1,4,-1
EndSplineSet
EndChar
StartChar: greater
Encoding: 62 62 326
Width: 561
GlyphClass: 1
Flags: W
LayerCount: 2
Fore
SplineSet
11 113 m 1,0,-1
 391 254 l 1,1,-1
 71 396 l 1,2,-1
 94 501 l 1,3,-1
 529 288 l 1,4,-1
 512 209 l 1,5,-1
 -14 -4 l 1,6,-1
 11 113 l 1,0,-1
EndSplineSet
EndChar
StartChar: question
Encoding: 63 63 265
Width: 511
GlyphClass: 1
Flags: W
LayerCount: 2
Fore
SplineSet
210.5 330.5 m 128,-1,1
 241 369 241 369 309 395 c 0,2,3
 369 420 369 420 399.5 447.5 c 128,-1,4
 430 475 430 475 430 513 c 0,5,6
 430 548 430 548 398.5 570 c 128,-1,7
 367 592 367 592 320 592 c 0,8,9
 271 592 271 592 233.5 566 c 128,-1,10
 196 540 196 540 178 495 c 1,11,-1
 77 530 l 1,12,13
 102 603 102 603 170.5 642 c 128,-1,14
 239 681 239 681 323 681 c 0,15,16
 380 681 380 681 431 662 c 128,-1,17
 482 643 482 643 513 606.5 c 128,-1,18
 544 570 544 570 544 521 c 0,19,20
 544 451 544 451 503 406.5 c 128,-1,21
 462 362 462 362 377 322 c 0,22,23
 322 297 322 297 302.5 278 c 128,-1,24
 283 259 283 259 277 230 c 2,25,-1
 272 206 l 1,26,-1
 159 206 l 1,27,-1
 165 229 l 2,28,0
 180 292 180 292 210.5 330.5 c 128,-1,1
131 10.5 m 128,-1,30
 108 33 108 33 108 65 c 256,31,32
 108 97 108 97 131 119.5 c 128,-1,33
 154 142 154 142 186 142 c 256,34,35
 218 142 218 142 240.5 119.5 c 128,-1,36
 263 97 263 97 263 65 c 0,37,38
 263 34 263 34 240.5 11 c 128,-1,39
 218 -12 218 -12 186 -12 c 256,40,29
 154 -12 154 -12 131 10.5 c 128,-1,30
EndSplineSet
EndChar
StartChar: at
Encoding: 64 64 297
Width: 780
GlyphClass: 1
Flags: W
LayerCount: 2
Fore
SplineSet
194 -58 m 128,-1,1
 121 -18 121 -18 79 53 c 128,-1,2
 37 124 37 124 37 213 c 0,3,4
 37 318 37 318 90 408.5 c 128,-1,5
 143 499 143 499 233.5 552.5 c 128,-1,6
 324 606 324 606 433 606 c 0,7,8
 524 606 524 606 596.5 568.5 c 128,-1,9
 669 531 669 531 710.5 465.5 c 128,-1,10
 752 400 752 400 752 318 c 0,11,12
 752 266 752 266 730.5 209 c 128,-1,13
 709 152 709 152 665.5 113.5 c 128,-1,14
 622 75 622 75 561 75 c 0,15,16
 524 75 524 75 496.5 92.5 c 128,-1,17
 469 110 469 110 459 138 c 1,18,19
 431 104 431 104 400.5 89.5 c 128,-1,20
 370 75 370 75 335 75 c 0,21,22
 277 75 277 75 241.5 115.5 c 128,-1,23
 206 156 206 156 206 217 c 0,24,25
 206 273 206 273 232 324.5 c 128,-1,26
 258 376 258 376 307 407.5 c 128,-1,27
 356 439 356 439 422 439 c 0,28,29
 455 439 455 439 491.5 429.5 c 128,-1,30
 528 420 528 420 561 405 c 1,31,-1
 522 219 l 2,32,33
 519 207 519 207 519 195 c 0,34,35
 519 173 519 173 532 159.5 c 128,-1,36
 545 146 545 146 573 146 c 0,37,38
 609 146 609 146 634 174.5 c 128,-1,39
 659 203 659 203 671.5 243 c 128,-1,40
 684 283 684 283 684 316 c 0,41,42
 684 378 684 378 650.5 429.5 c 128,-1,43
 617 481 617 481 558.5 510.5 c 128,-1,44
 500 540 500 540 429 540 c 0,45,46
 339 540 339 540 265.5 495.5 c 128,-1,47
 192 451 192 451 150 377 c 128,-1,48
 108 303 108 303 108 218 c 0,49,50
 108 144 108 144 142.5 87.5 c 128,-1,51
 177 31 177 31 235.5 -0.5 c 128,-1,52
 294 -32 294 -32 365 -32 c 0,53,54
 425 -32 425 -32 478 -9 c 1,55,-1
 462 -83 l 1,56,57
 408 -98 408 -98 358 -98 c 0,58,0
 267 -98 267 -98 194 -58 c 128,-1,1
412.5 175 m 128,-1,60
 439 200 439 200 448 236 c 2,61,-1
 472 355 l 1,62,63
 442 365 442 365 414 365 c 0,64,65
 377 365 377 365 349 345.5 c 128,-1,66
 321 326 321 326 306.5 294.5 c 128,-1,67
 292 263 292 263 292 228 c 0,68,69
 292 194 292 194 309 172 c 128,-1,70
 326 150 326 150 355 150 c 0,71,59
 386 150 386 150 412.5 175 c 128,-1,60
EndSplineSet
EndChar
StartChar: A
Encoding: 65 65 2
Width: 650
GlyphClass: 2
Flags: W
AnchorPoint: "Anchor-2" 591 10 basechar 0
AnchorPoint: "Anchor-1" 415 668 basechar 0
AnchorPoint: "Anchor-0" 273 0 basechar 0
LayerCount: 2
Fore
SplineSet
350 668 m 1,0,-1
 479 668 l 1,1,-1
 589 0 l 1,2,-1
 465 0 l 1,3,-1
 447 136 l 1,4,-1
 161 136 l 1,5,-1
 85 0 l 1,6,-1
 -45 0 l 1,7,-1
 350 668 l 1,0,-1
434 235 m 1,8,-1
 391 545 l 1,9,-1
 216 235 l 1,10,-1
 434 235 l 1,8,-1
EndSplineSet
Substitution2: "Single Substitution lookup 15 subtable" ordfeminine
AlternateSubs2: "'aalt' Access All Alternates in Latin lookup 0 subtable" ordfeminine
EndChar
StartChar: B
Encoding: 66 66 13
Width: 627
GlyphClass: 2
Flags: W
AnchorPoint: "Anchor-1" 411 668 basechar 0
AnchorPoint: "Anchor-0" 269 0 basechar 0
LayerCount: 2
Fore
SplineSet
159 668 m 1,0,-1
 396 668 l 2,1,2
 502 668 502 668 561.5 625 c 128,-1,3
 621 582 621 582 621 510 c 0,4,5
 621 451 621 451 588.5 405.5 c 128,-1,6
 556 360 556 360 498 340 c 1,7,8
 538 320 538 320 561.5 286 c 128,-1,9
 585 252 585 252 585 208 c 0,10,11
 585 148 585 148 557 101 c 128,-1,12
 529 54 529 54 476.5 27 c 128,-1,13
 424 0 424 0 355 0 c 2,14,-1
 17 0 l 1,15,-1
 159 668 l 1,0,-1
432 130 m 128,-1,17
 465 161 465 161 465 211 c 0,18,19
 465 250 465 250 434.5 274 c 128,-1,20
 404 298 404 298 348 298 c 2,21,-1
 198 298 l 1,22,-1
 156 99 l 1,23,-1
 339 99 l 2,24,16
 399 99 399 99 432 130 c 128,-1,17
472 418.5 m 128,-1,26
 500 447 500 447 500 492 c 0,27,28
 500 527 500 527 473.5 548.5 c 128,-1,29
 447 570 447 570 394 570 c 2,30,-1
 256 570 l 1,31,-1
 218 390 l 1,32,-1
 392 390 l 2,33,25
 444 390 444 390 472 418.5 c 128,-1,26
EndSplineSet
EndChar
StartChar: C
Encoding: 67 67 14
Width: 652
GlyphClass: 2
Flags: W
AnchorPoint: "Anchor-1" 441 668 basechar 0
AnchorPoint: "Anchor-0" 340 0 basechar 0
LayerCount: 2
Fore
SplineSet
186.5 23.5 m 128,-1,1
 122 59 122 59 88 123 c 128,-1,2
 54 187 54 187 54 271 c 0,3,4
 54 375 54 375 98.5 469 c 128,-1,5
 143 563 143 563 225.5 621.5 c 128,-1,6
 308 680 308 680 418 680 c 0,7,8
 507 680 507 680 573 640 c 128,-1,9
 639 600 639 600 668 523 c 1,10,-1
 565 488 l 1,11,12
 548 532 548 532 508 557 c 128,-1,13
 468 582 468 582 416 582 c 0,14,15
 338 582 338 582 284 534.5 c 128,-1,16
 230 487 230 487 203.5 416.5 c 128,-1,17
 177 346 177 346 177 278 c 0,18,19
 177 192 177 192 221.5 139 c 128,-1,20
 266 86 266 86 351 86 c 0,21,22
 455 86 455 86 513 176 c 1,23,-1
 616 135 l 1,24,25
 520 -12 520 -12 340 -12 c 0,26,0
 251 -12 251 -12 186.5 23.5 c 128,-1,1
EndSplineSet
EndChar
StartChar: D
Encoding: 68 68 19
Width: 678
GlyphClass: 2
Flags: W
AnchorPoint: "Anchor-1" 428 668 basechar 0
AnchorPoint: "Anchor-0" 292 0 basechar 0
LayerCount: 2
Fore
SplineSet
159 668 m 1,0,-1
 299 668 l 2,1,2
 470 668 470 668 564.5 599 c 128,-1,3
 659 530 659 530 659 396 c 0,4,5
 659 300 659 300 623.5 210 c 128,-1,6
 588 120 588 120 505.5 60 c 128,-1,7
 423 0 423 0 291 0 c 2,8,-1
 17 0 l 1,9,-1
 159 668 l 1,0,-1
434 140.5 m 128,-1,11
 488 182 488 182 513 246.5 c 128,-1,12
 538 311 538 311 538 383 c 0,13,14
 538 570 538 570 299 570 c 2,15,-1
 256 570 l 1,16,-1
 156 99 l 1,17,-1
 298 99 l 2,18,10
 380 99 380 99 434 140.5 c 128,-1,11
EndSplineSet
EndChar
StartChar: E
Encoding: 69 69 23
Width: 582
GlyphClass: 2
Flags: W
AnchorPoint: "Anchor-2" 495 10 basechar 0
AnchorPoint: "Anchor-1" 398 668 basechar 0
AnchorPoint: "Anchor-0" 240 0 basechar 0
LayerCount: 2
Fore
SplineSet
159 668 m 1,0,-1
 631 668 l 1,1,-1
 609 565 l 1,2,-1
 255 565 l 1,3,-1
 219 395 l 1,4,-1
 466 395 l 1,5,-1
 444 292 l 1,6,-1
 197 292 l 1,7,-1
 157 103 l 1,8,-1
 515 103 l 1,9,-1
 493 0 l 1,10,-1
 17 0 l 1,11,-1
 159 668 l 1,0,-1
EndSplineSet
EndChar
StartChar: F
Encoding: 70 70 32
Width: 558
GlyphClass: 2
Flags: W
AnchorPoint: "Anchor-1" 368 668 basechar 0
AnchorPoint: "Anchor-0" 226 0 basechar 0
LayerCount: 2
Fore
SplineSet
159 668 m 1,0,-1
 609 668 l 1,1,-1
 587 565 l 1,2,-1
 255 565 l 1,3,-1
 216 384 l 1,4,-1
 545 384 l 1,5,-1
 523 281 l 1,6,-1
 194 281 l 1,7,-1
 135 0 l 1,8,-1
 17 0 l 1,9,-1
 159 668 l 1,0,-1
EndSplineSet
EndChar
StartChar: G
Encoding: 71 71 33
Width: 705
GlyphClass: 2
Flags: W
AnchorPoint: "Anchor-1" 442 668 basechar 0
AnchorPoint: "Anchor-0" 300 0 basechar 0
LayerCount: 2
Fore
SplineSet
177.5 23 m 128,-1,1
 117 58 117 58 85 120.5 c 128,-1,2
 53 183 53 183 53 266 c 0,3,4
 53 370 53 370 96.5 465.5 c 128,-1,5
 140 561 140 561 223 620.5 c 128,-1,6
 306 680 306 680 420 680 c 0,7,8
 515 680 515 680 583 638 c 128,-1,9
 651 596 651 596 676 527 c 1,10,-1
 570 491 l 1,11,12
 555 532 555 532 514.5 557 c 128,-1,13
 474 582 474 582 417 582 c 0,14,15
 337 582 337 582 282.5 533 c 128,-1,16
 228 484 228 484 202 412.5 c 128,-1,17
 176 341 176 341 176 274 c 0,18,19
 176 189 176 189 220 137.5 c 128,-1,20
 264 86 264 86 346 86 c 0,21,22
 410 86 410 86 465 121 c 128,-1,23
 520 156 520 156 538 240 c 1,24,-1
 541 259 l 1,25,-1
 365 259 l 1,26,-1
 386 357 l 1,27,-1
 680 357 l 1,28,-1
 604 0 l 1,29,-1
 524 0 l 1,30,-1
 524 76 l 1,31,32
 481 30 481 30 429 9 c 128,-1,33
 377 -12 377 -12 321 -12 c 0,34,0
 238 -12 238 -12 177.5 23 c 128,-1,1
EndSplineSet
EndChar
StartChar: H
Encoding: 72 72 37
Width: 697
GlyphClass: 2
Flags: W
AnchorPoint: "Anchor-1" 437 668 basechar 0
AnchorPoint: "Anchor-0" 295 0 basechar 0
LayerCount: 2
Fore
SplineSet
159 668 m 1,0,-1
 277 668 l 1,1,-1
 219 395 l 1,2,-1
 541 395 l 1,3,-1
 599 668 l 1,4,-1
 717 668 l 1,5,-1
 575 0 l 1,6,-1
 457 0 l 1,7,-1
 518 292 l 1,8,-1
 197 292 l 1,9,-1
 135 0 l 1,10,-1
 17 0 l 1,11,-1
 159 668 l 1,0,-1
EndSplineSet
EndChar
StartChar: I
Encoding: 73 73 39
Width: 407
GlyphClass: 2
Flags: W
AnchorPoint: "Anchor-2" 306 10 basechar 0
AnchorPoint: "Anchor-1" 293 668 basechar 0
AnchorPoint: "Anchor-0" 152 0 basechar 0
LayerCount: 2
Fore
SplineSet
17 87 m 1,0,-1
 111 87 l 1,1,-1
 215 581 l 1,2,-1
 122 581 l 1,3,-1
 140 668 l 1,4,-1
 446 668 l 1,5,-1
 427 581 l 1,6,-1
 333 581 l 1,7,-1
 229 87 l 1,8,-1
 322 87 l 1,9,-1
 304 0 l 1,10,-1
 -2 0 l 1,11,-1
 17 87 l 1,0,-1
EndSplineSet
EndChar
StartChar: J
Encoding: 74 74 48
Width: 535
GlyphClass: 2
Flags: W
AnchorPoint: "Anchor-1" 494 668 basechar 0
AnchorPoint: "Anchor-0" 210 0 basechar 0
LayerCount: 2
Fore
SplineSet
55.5 39 m 128,-1,1
 0 90 0 90 -2 184 c 1,2,-1
 111 219 l 1,3,4
 110 212 110 212 110 199 c 0,5,6
 110 146 110 146 136 114.5 c 128,-1,7
 162 83 162 83 212 83 c 0,8,9
 312 83 312 83 340 216 c 2,10,-1
 436 668 l 1,11,-1
 554 668 l 1,12,-1
 455 204 l 2,13,14
 432 99 432 99 368.5 43.5 c 128,-1,15
 305 -12 305 -12 207 -12 c 0,16,0
 111 -12 111 -12 55.5 39 c 128,-1,1
EndSplineSet
Substitution2: "Single Substitution lookup 14 subtable" uni004A0301
AlternateSubs2: "'aalt' Access All Alternates in Latin lookup 0 subtable" uni004A0301
EndChar
StartChar: K
Encoding: 75 75 50
Width: 646
GlyphClass: 2
Flags: W
AnchorPoint: "Anchor-1" 414 668 basechar 0
AnchorPoint: "Anchor-0" 272 0 basechar 0
LayerCount: 2
Fore
SplineSet
159 668 m 1,0,-1
 277 668 l 1,1,-1
 211 361 l 1,2,-1
 546 668 l 1,3,-1
 701 668 l 1,4,-1
 377 379 l 1,5,-1
 582 0 l 1,6,-1
 449 0 l 1,7,-1
 291 300 l 1,8,-1
 177 198 l 1,9,-1
 135 0 l 1,10,-1
 17 0 l 1,11,-1
 159 668 l 1,0,-1
EndSplineSet
EndChar
StartChar: L
Encoding: 76 76 52
Width: 546
GlyphClass: 2
Flags: W
AnchorPoint: "Anchor-3" 292 459 basechar 0
AnchorPoint: "Anchor-1" 363 668 basechar 0
AnchorPoint: "Anchor-0" 221 0 basechar 0
LayerCount: 2
Fore
SplineSet
159 668 m 1,0,-1
 277 668 l 1,1,-1
 157 103 l 1,2,-1
 501 103 l 1,3,-1
 479 0 l 1,4,-1
 17 0 l 1,5,-1
 159 668 l 1,0,-1
EndSplineSet
EndChar
StartChar: M
Encoding: 77 77 56
Width: 840
GlyphClass: 2
Flags: W
AnchorPoint: "Anchor-1" 508 668 basechar 0
AnchorPoint: "Anchor-0" 366 0 basechar 0
LayerCount: 2
Fore
SplineSet
159 668 m 1,0,-1
 336 668 l 1,1,-1
 392 139 l 1,2,-1
 674 668 l 1,3,-1
 859 668 l 1,4,-1
 717 0 l 1,5,-1
 601 0 l 1,6,-1
 721 564 l 1,7,-1
 416 0 l 1,8,-1
 315 0 l 1,9,-1
 252 564 l 1,10,-1
 131 0 l 1,11,-1
 17 0 l 1,12,-1
 159 668 l 1,0,-1
EndSplineSet
EndChar
StartChar: O
Encoding: 79 79 62
Width: 728
GlyphClass: 2
Flags: W
AnchorPoint: "Anchor-3" 803 668 basechar 0
AnchorPoint: "Anchor-2" 609 10 basechar 0
AnchorPoint: "Anchor-1" 443 668 basechar 0
AnchorPoint: "Anchor-0" 312 0 basechar 0
LayerCount: 2
Fore
SplineSet
196 22.5 m 128,-1,1
 130 57 130 57 92.5 122.5 c 128,-1,2
 55 188 55 188 55 277 c 0,3,4
 55 381 55 381 100.5 473.5 c 128,-1,5
 146 566 146 566 229 623 c 128,-1,6
 312 680 312 680 419 680 c 0,7,8
 503 680 503 680 569 645.5 c 128,-1,9
 635 611 635 611 672.5 545.5 c 128,-1,10
 710 480 710 480 710 391 c 0,11,12
 710 287 710 287 664.5 194.5 c 128,-1,13
 619 102 619 102 536 45 c 128,-1,14
 453 -12 453 -12 346 -12 c 0,15,0
 262 -12 262 -12 196 22.5 c 128,-1,1
480 133.5 m 128,-1,17
 534 181 534 181 560.5 251.5 c 128,-1,18
 587 322 587 322 587 389 c 0,19,20
 587 477 587 477 541 529.5 c 128,-1,21
 495 582 495 582 416 582 c 0,22,23
 339 582 339 582 285 534.5 c 128,-1,24
 231 487 231 487 204.5 416.5 c 128,-1,25
 178 346 178 346 178 279 c 0,26,27
 178 191 178 191 224 138.5 c 128,-1,28
 270 86 270 86 349 86 c 0,29,16
 426 86 426 86 480 133.5 c 128,-1,17
EndSplineSet
Substitution2: "Single Substitution lookup 15 subtable" ordmasculine
AlternateSubs2: "'aalt' Access All Alternates in Latin lookup 0 subtable" ordmasculine
EndChar
StartChar: P
Encoding: 80 80 71
Width: 609
GlyphClass: 2
Flags: W
AnchorPoint: "Anchor-1" 402 668 basechar 0
AnchorPoint: "Anchor-0" 260 0 basechar 0
LayerCount: 2
Fore
SplineSet
159 668 m 1,0,-1
 391 668 l 2,1,2
 501 668 501 668 566 619 c 128,-1,3
 631 570 631 570 631 485 c 0,4,5
 631 414 631 414 599 361.5 c 128,-1,6
 567 309 567 309 509.5 281 c 128,-1,7
 452 253 452 253 378 253 c 2,8,-1
 189 253 l 1,9,-1
 135 0 l 1,10,-1
 17 0 l 1,11,-1
 159 668 l 1,0,-1
470.5 384.5 m 128,-1,13
 507 416 507 416 507 475 c 0,14,15
 507 520 507 520 474 543.5 c 128,-1,16
 441 567 441 567 381 567 c 2,17,-1
 256 567 l 1,18,-1
 210 353 l 1,19,-1
 368 353 l 2,20,12
 434 353 434 353 470.5 384.5 c 128,-1,13
EndSplineSet
EndChar
StartChar: Q
Encoding: 81 81 73
Width: 739
GlyphClass: 1
Flags: W
LayerCount: 2
Fore
SplineSet
196 22.5 m 128,-1,1
 130 57 130 57 92.5 122.5 c 128,-1,2
 55 188 55 188 55 277 c 0,3,4
 55 381 55 381 100.5 473.5 c 128,-1,5
 146 566 146 566 229 623 c 128,-1,6
 312 680 312 680 419 680 c 0,7,8
 503 680 503 680 569 645.5 c 128,-1,9
 635 611 635 611 672.5 545.5 c 128,-1,10
 710 480 710 480 710 391 c 0,11,12
 710 317 710 317 686 246.5 c 128,-1,13
 662 176 662 176 617 121 c 1,14,-1
 701 18 l 1,15,-1
 624 -48 l 1,16,-1
 544 51 l 1,17,18
 455 -12 455 -12 346 -12 c 0,19,0
 262 -12 262 -12 196 22.5 c 128,-1,1
477 133 m 1,21,-1
 343 297 l 1,22,-1
 420 363 l 1,23,-1
 542 213 l 1,24,25
 564 254 564 254 575.5 300.5 c 128,-1,26
 587 347 587 347 587 389 c 0,27,28
 587 477 587 477 541 529.5 c 128,-1,29
 495 582 495 582 416 582 c 0,30,31
 339 582 339 582 285 534.5 c 128,-1,32
 231 487 231 487 204.5 416.5 c 128,-1,33
 178 346 178 346 178 279 c 0,34,35
 178 191 178 191 224 138.5 c 128,-1,36
 270 86 270 86 349 86 c 0,37,20
 422 86 422 86 477 133 c 1,21,-1
EndSplineSet
EndChar
StartChar: R
Encoding: 82 82 74
Width: 631
GlyphClass: 2
Flags: W
AnchorPoint: "Anchor-1" 387 668 basechar 0
AnchorPoint: "Anchor-0" 269 0 basechar 0
LayerCount: 2
Fore
SplineSet
159 668 m 1,0,-1
 405 668 l 2,1,2
 510 668 510 668 572.5 622 c 128,-1,3
 635 576 635 576 635 494 c 0,4,5
 635 433 635 433 609 383.5 c 128,-1,6
 583 334 583 334 533 303.5 c 128,-1,7
 483 273 483 273 412 270 c 2,8,-1
 410 270 l 1,9,-1
 558 0 l 1,10,-1
 426 0 l 1,11,-1
 286 267 l 1,12,-1
 192 267 l 1,13,-1
 135 0 l 1,14,-1
 17 0 l 1,15,-1
 159 668 l 1,0,-1
477 396.5 m 128,-1,17
 511 425 511 425 511 481 c 0,18,19
 511 523 511 523 480 545 c 128,-1,20
 449 567 449 567 393 567 c 2,21,-1
 255 567 l 1,22,-1
 213 368 l 1,23,-1
 384 368 l 2,24,16
 443 368 443 368 477 396.5 c 128,-1,17
EndSplineSet
EndChar
StartChar: S
Encoding: 83 83 77
Width: 600
GlyphClass: 2
Flags: W
AnchorPoint: "Anchor-1" 385 668 basechar 0
AnchorPoint: "Anchor-0" 281 0 basechar 0
LayerCount: 2
Fore
SplineSet
114 31 m 128,-1,1
 42 74 42 74 22 155 c 1,2,-1
 131 191 l 1,3,4
 140 140 140 140 186.5 112.5 c 128,-1,5
 233 85 233 85 295 85 c 0,6,7
 356 85 356 85 397.5 112.5 c 128,-1,8
 439 140 439 140 439 191 c 0,9,10
 439 221 439 221 413.5 242.5 c 128,-1,11
 388 264 388 264 329 284 c 2,12,-1
 248 312 l 2,13,14
 181 335 181 335 139.5 376 c 128,-1,15
 98 417 98 417 98 476 c 0,16,17
 98 538 98 538 135 584.5 c 128,-1,18
 172 631 172 631 232.5 655.5 c 128,-1,19
 293 680 293 680 362 680 c 0,20,21
 446 680 446 680 510 645 c 128,-1,22
 574 610 574 610 598 542 c 1,23,-1
 491 505 l 1,24,25
 476 543 476 543 435.5 563 c 128,-1,26
 395 583 395 583 345 583 c 0,27,28
 291 583 291 583 253 559 c 128,-1,29
 215 535 215 535 215 491 c 0,30,31
 215 440 215 440 295 412 c 2,32,-1
 382 383 l 2,33,34
 464 353 464 353 511 314 c 128,-1,35
 558 275 558 275 558 209 c 256,36,37
 558 143 558 143 520.5 92.5 c 128,-1,38
 483 42 483 42 419.5 15 c 128,-1,39
 356 -12 356 -12 281 -12 c 0,40,0
 186 -12 186 -12 114 31 c 128,-1,1
EndSplineSet
EndChar
StartChar: T
Encoding: 84 84 83
Width: 581
GlyphClass: 2
Flags: W
AnchorPoint: "Anchor-1" 380 668 basechar 0
AnchorPoint: "Anchor-0" 239 0 basechar 0
LayerCount: 2
Fore
SplineSet
299 565 m 1,0,-1
 79 565 l 1,1,-1
 101 668 l 1,2,-1
 658 668 l 1,3,-1
 636 565 l 1,4,-1
 417 565 l 1,5,-1
 297 0 l 1,6,-1
 179 0 l 1,7,-1
 299 565 l 1,0,-1
EndSplineSet
EndChar
StartChar: U
Encoding: 85 85 87
Width: 688
GlyphClass: 2
Flags: W
AnchorPoint: "Anchor-3" 751 668 basechar 0
AnchorPoint: "Anchor-2" 509 10 basechar 0
AnchorPoint: "Anchor-1" 433 668 basechar 0
AnchorPoint: "Anchor-0" 291 0 basechar 0
LayerCount: 2
Fore
SplineSet
69 203 m 0,1,2
 69 249 69 249 81 307 c 2,3,-1
 158 668 l 1,4,-1
 276 668 l 1,5,-1
 194 282 l 2,6,7
 186 242 186 242 186 214 c 0,8,9
 186 149 186 149 223 118 c 128,-1,10
 260 87 260 87 336 87 c 0,11,12
 406 87 406 87 446 129 c 128,-1,13
 486 171 486 171 504 259 c 2,14,-1
 591 668 l 1,15,-1
 709 668 l 1,16,-1
 621 255 l 2,17,18
 592 118 592 118 523.5 53 c 128,-1,19
 455 -12 455 -12 333 -12 c 0,20,0
 69 -12 69 -12 69 203 c 0,1,2
EndSplineSet
EndChar
StartChar: V
Encoding: 86 86 96
Width: 617
GlyphClass: 2
Flags: W
AnchorPoint: "Anchor-1" 397 668 basechar 0
AnchorPoint: "Anchor-0" 255 0 basechar 0
LayerCount: 2
Fore
SplineSet
100 668 m 1,0,-1
 218 668 l 1,1,-1
 279 134 l 1,2,-1
 568 668 l 1,3,-1
 694 668 l 1,4,-1
 321 0 l 1,5,-1
 187 0 l 1,6,-1
 100 668 l 1,0,-1
EndSplineSet
EndChar
StartChar: W
Encoding: 87 87 97
Width: 870
GlyphClass: 2
Flags: W
AnchorPoint: "Anchor-1" 523 668 basechar 0
AnchorPoint: "Anchor-0" 384 0 basechar 0
LayerCount: 2
Fore
SplineSet
106 668 m 1,0,-1
 220 668 l 1,1,-1
 225 150 l 1,2,-1
 460 668 l 1,3,-1
 581 668 l 1,4,-1
 597 150 l 1,5,-1
 821 668 l 1,6,-1
 942 668 l 1,7,-1
 635 0 l 1,8,-1
 507 0 l 1,9,-1
 491 510 l 1,10,-1
 258 0 l 1,11,-1
 130 0 l 1,12,-1
 106 668 l 1,0,-1
EndSplineSet
EndChar
StartChar: X
Encoding: 88 88 102
Width: 652
GlyphClass: 2
Flags: W
AnchorPoint: "Anchor-1" 415 668 basechar 0
AnchorPoint: "Anchor-0" 273 0 basechar 0
LayerCount: 2
Fore
SplineSet
274 345 m 1,0,-1
 113 668 l 1,1,-1
 250 668 l 1,2,-1
 362 440 l 1,3,-1
 574 668 l 1,4,-1
 717 668 l 1,5,-1
 418 342 l 1,6,-1
 589 0 l 1,7,-1
 452 0 l 1,8,-1
 328 247 l 1,9,-1
 100 0 l 1,10,-1
 -43 0 l 1,11,-1
 274 345 l 1,0,-1
EndSplineSet
EndChar
StartChar: bracketleft
Encoding: 91 91 281
Width: 328
GlyphClass: 1
Flags: W
LayerCount: 2
Fore
SplineSet
168 708 m 1,0,-1
 393 708 l 1,1,-1
 374 618 l 1,2,-1
 248 618 l 1,3,-1
 101 -72 l 1,4,-1
 227 -72 l 1,5,-1
 209 -162 l 1,6,-1
 -16 -162 l 1,7,-1
 168 708 l 1,0,-1
EndSplineSet
EndChar
StartChar: a
Encoding: 97 97 112
Width: 537
GlyphClass: 2
Flags: W
AnchorPoint: "Anchor-2" 437 10 basechar 0
AnchorPoint: "Anchor-1" 309 496 basechar 0
AnchorPoint: "Anchor-0" 213 0 basechar 0
LayerCount: 2
Fore
SplineSet
49 22 m 128,-1,1
 4 56 4 56 4 117 c 0,2,3
 4 214 4 214 97 260.5 c 128,-1,4
 190 307 190 307 378 306 c 1,5,-1
 381 317 l 2,6,7
 384 332 384 332 384 346 c 0,8,9
 384 384 384 384 359 405 c 128,-1,10
 334 426 334 426 288 426 c 0,11,12
 249 426 249 426 219 409.5 c 128,-1,13
 189 393 189 393 177 358 c 1,14,-1
 79 390 l 1,15,16
 109 449 109 449 166.5 477.5 c 128,-1,17
 224 506 224 506 292 506 c 0,18,19
 384 506 384 506 435 465.5 c 128,-1,20
 486 425 486 425 486 349 c 0,21,22
 486 328 486 328 479 291 c 2,23,-1
 458 190 l 2,24,25
 433 75 433 75 435 0 c 1,26,-1
 335 0 l 1,27,-1
 333 67 l 1,28,29
 266 -12 266 -12 159 -12 c 0,30,0
 94 -12 94 -12 49 22 c 128,-1,1
299 101 m 128,-1,32
 341 133 341 133 356 202 c 2,33,-1
 362 233 l 1,34,35
 236 231 236 231 178 208 c 128,-1,36
 120 185 120 185 120 134 c 0,37,38
 120 102 120 102 143.5 85.5 c 128,-1,39
 167 69 167 69 204 69 c 0,40,31
 257 69 257 69 299 101 c 128,-1,32
EndSplineSet
Substitution2: "Single Substitution lookup 15 subtable" ordfeminine
AlternateSubs2: "'aalt' Access All Alternates in Latin lookup 0 subtable" ordfeminine
EndChar
StartChar: b
Encoding: 98 98 123
Width: 581
GlyphClass: 2
Flags: W
AnchorPoint: "Anchor-1" 345 496 basechar 0
AnchorPoint: "Anchor-0" 240 0 basechar 0
LayerCount: 2
Fore
SplineSet
195 14 m 128,-1,1
 153 40 153 40 141 84 c 1,2,-1
 101 0 l 1,3,-1
 12 0 l 1,4,-1
 163 708 l 1,5,-1
 272 708 l 1,6,-1
 213 428 l 1,7,8
 241 465 241 465 284 485.5 c 128,-1,9
 327 506 327 506 375 506 c 0,10,11
 425 506 425 506 465 482 c 128,-1,12
 505 458 505 458 528 412 c 128,-1,13
 551 366 551 366 551 303 c 0,14,15
 551 231 551 231 521 158 c 128,-1,16
 491 85 491 85 432 36.5 c 128,-1,17
 373 -12 373 -12 289 -12 c 0,18,0
 237 -12 237 -12 195 14 c 128,-1,1
363 111.5 m 128,-1,20
 400 146 400 146 417 196 c 128,-1,21
 434 246 434 246 434 292 c 0,22,23
 434 349 434 349 406.5 383 c 128,-1,24
 379 417 379 417 328 417 c 0,25,26
 276 417 276 417 239 380.5 c 128,-1,27
 202 344 202 344 184 292.5 c 128,-1,28
 166 241 166 241 166 196 c 0,29,30
 166 139 166 139 193.5 108 c 128,-1,31
 221 77 221 77 272 77 c 0,32,19
 326 77 326 77 363 111.5 c 128,-1,20
EndSplineSet
EndChar
StartChar: c
Encoding: 99 99 124
Width: 497
GlyphClass: 2
Flags: W
AnchorPoint: "Anchor-1" 322 496 basechar 0
AnchorPoint: "Anchor-0" 229 0 basechar 0
LayerCount: 2
Fore
SplineSet
87 46 m 128,-1,1
 30 104 30 104 30 200 c 0,2,3
 30 280 30 280 64.5 350.5 c 128,-1,4
 99 421 99 421 161 463.5 c 128,-1,5
 223 506 223 506 303 506 c 0,6,7
 374 506 374 506 425.5 473.5 c 128,-1,8
 477 441 477 441 498 383 c 1,9,-1
 402 351 l 1,10,11
 392 383 392 383 366 399.5 c 128,-1,12
 340 416 340 416 303 416 c 0,13,14
 249 416 249 416 212.5 381.5 c 128,-1,15
 176 347 176 347 159 298 c 128,-1,16
 142 249 142 249 142 204 c 0,17,18
 142 146 142 146 170.5 112.5 c 128,-1,19
 199 79 199 79 255 79 c 0,20,21
 331 79 331 79 364 136 c 1,22,-1
 458 97 l 1,23,24
 381 -12 381 -12 244 -12 c 0,25,0
 144 -12 144 -12 87 46 c 128,-1,1
EndSplineSet
EndChar
StartChar: d
Encoding: 100 100 129
Width: 578
GlyphClass: 2
Flags: W
AnchorPoint: "Anchor-3" 600 497 basechar 0
AnchorPoint: "Anchor-1" 402 796 basechar 0
AnchorPoint: "Anchor-0" 233 0 basechar 0
LayerCount: 2
Fore
SplineSet
115 12.5 m 128,-1,1
 75 37 75 37 52 83 c 128,-1,2
 29 129 29 129 29 192 c 0,3,4
 29 264 29 264 59 336.5 c 128,-1,5
 89 409 89 409 148 457.5 c 128,-1,6
 207 506 207 506 291 506 c 0,7,8
 343 506 343 506 384 481 c 128,-1,9
 425 456 425 456 440 414 c 1,10,-1
 503 708 l 1,11,-1
 613 708 l 1,12,-1
 502 190 l 2,13,14
 481 85 481 85 479 0 c 1,15,-1
 375 0 l 1,16,-1
 369 67 l 1,17,18
 341 29 341 29 297 8.5 c 128,-1,19
 253 -12 253 -12 206 -12 c 0,20,0
 155 -12 155 -12 115 12.5 c 128,-1,1
340.5 113 m 128,-1,22
 377 149 377 149 395.5 201 c 128,-1,23
 414 253 414 253 414 298 c 0,24,25
 414 355 414 355 386 386 c 128,-1,26
 358 417 358 417 308 417 c 0,27,28
 254 417 254 417 217 382.5 c 128,-1,29
 180 348 180 348 163 298 c 128,-1,30
 146 248 146 248 146 202 c 0,31,32
 146 145 146 145 173.5 111 c 128,-1,33
 201 77 201 77 252 77 c 0,34,21
 304 77 304 77 340.5 113 c 128,-1,22
EndSplineSet
EndChar
StartChar: e
Encoding: 101 101 133
Width: 550
GlyphClass: 2
Flags: W
AnchorPoint: "Anchor-2" 422 10 basechar 0
AnchorPoint: "Anchor-1" 329 496 basechar 0
AnchorPoint: "Anchor-0" 224 0 basechar 0
LayerCount: 2
Fore
SplineSet
139.5 15.5 m 128,-1,1
 88 43 88 43 60 92 c 128,-1,2
 32 141 32 141 32 206 c 0,3,4
 32 285 32 285 67.5 354 c 128,-1,5
 103 423 103 423 167 464.5 c 128,-1,6
 231 506 231 506 311 506 c 0,7,8
 375 506 375 506 423.5 478.5 c 128,-1,9
 472 451 472 451 498.5 402 c 128,-1,10
 525 353 525 353 525 291 c 0,11,12
 525 257 525 257 516 219 c 1,13,-1
 137 219 l 1,14,15
 137 148 137 148 174 113.5 c 128,-1,16
 211 79 211 79 268 79 c 0,17,18
 304 79 304 79 332 89 c 128,-1,19
 360 99 360 99 379 125 c 1,20,-1
 474 86 l 1,21,22
 392 -12 392 -12 260 -12 c 0,23,0
 191 -12 191 -12 139.5 15.5 c 128,-1,1
397.5 385 m 128,-1,25
 365 419 365 419 307 419 c 0,26,27
 247 419 247 419 208 384 c 128,-1,28
 169 349 169 349 151 295 c 1,29,-1
 426 295 l 1,30,24
 430 351 430 351 397.5 385 c 128,-1,25
EndSplineSet
EndChar
StartChar: f
Encoding: 102 102 142
Width: 338
GlyphClass: 2
Flags: W
AnchorPoint: "Anchor-1" 274 796 basechar 0
AnchorPoint: "Anchor-0" 105 0 basechar 0
LayerCount: 2
Fore
SplineSet
131 411 m 1,0,-1
 48 411 l 1,1,-1
 67 496 l 1,2,-1
 149 496 l 1,3,-1
 170 595 l 2,4,5
 181 646 181 646 200 672 c 128,-1,6
 219 698 219 698 246 707.5 c 128,-1,7
 273 717 273 717 315 717 c 2,8,-1
 410 717 l 1,9,-1
 392 628 l 1,10,-1
 342 628 l 2,11,12
 309 628 309 628 296.5 617.5 c 128,-1,13
 284 607 284 607 276 575 c 2,14,-1
 259 496 l 1,15,-1
 363 496 l 1,16,-1
 344 411 l 1,17,-1
 241 411 l 1,18,-1
 154 0 l 1,19,-1
 44 0 l 1,20,-1
 131 411 l 1,0,-1
EndSplineSet
EndChar
StartChar: g
Encoding: 103 103 143
Width: 576
GlyphClass: 2
Flags: W
AnchorPoint: "Anchor-1" 335 496 basechar 0
AnchorPoint: "Anchor-0" 181 -251 basechar 0
LayerCount: 2
Fore
SplineSet
91 -164.5 m 128,-1,1
 33 -133 33 -133 19 -77 c 1,2,-1
 116 -45 l 1,3,4
 125 -76 125 -76 156.5 -91.5 c 128,-1,5
 188 -107 188 -107 228 -107 c 0,6,7
 329 -107 329 -107 351 -3 c 2,8,-1
 368 81 l 1,9,10
 307 12 307 12 216 12 c 0,11,12
 161 12 161 12 119.5 38 c 128,-1,13
 78 64 78 64 55.5 110.5 c 128,-1,14
 33 157 33 157 33 215 c 0,15,16
 33 289 33 289 65 356.5 c 128,-1,17
 97 424 97 424 155 465.5 c 128,-1,18
 213 507 213 507 287 507 c 0,19,20
 336 507 336 507 377 484.5 c 128,-1,21
 418 462 418 462 438 415 c 1,22,-1
 478 496 l 1,23,-1
 566 496 l 1,24,-1
 460 -4 l 2,25,26
 439 -100 439 -100 378 -148 c 128,-1,27
 317 -196 317 -196 223 -196 c 0,28,0
 149 -196 149 -196 91 -164.5 c 128,-1,1
346 132.5 m 128,-1,30
 380 165 380 165 396.5 212 c 128,-1,31
 413 259 413 259 413 303 c 0,32,33
 413 356 413 356 384.5 386.5 c 128,-1,34
 356 417 356 417 305 417 c 0,35,36
 251 417 251 417 215.5 385 c 128,-1,37
 180 353 180 353 164 307.5 c 128,-1,38
 148 262 148 262 148 221 c 0,39,40
 148 165 148 165 179.5 132.5 c 128,-1,41
 211 100 211 100 262 100 c 0,42,29
 312 100 312 100 346 132.5 c 128,-1,30
EndSplineSet
EndChar
StartChar: h
Encoding: 104 104 147
Width: 561
GlyphClass: 2
Flags: W
AnchorPoint: "Anchor-1" 396 796 basechar 0
AnchorPoint: "Anchor-0" 227 0 basechar 0
LayerCount: 2
Fore
SplineSet
163 708 m 1,0,-1
 272 708 l 1,1,-1
 213 424 l 1,2,3
 236 459 236 459 278.5 482.5 c 128,-1,4
 321 506 321 506 374 506 c 0,5,6
 440 506 440 506 478.5 470 c 128,-1,7
 517 434 517 434 517 366 c 0,8,9
 517 335 517 335 510 304 c 2,10,-1
 445 0 l 1,11,-1
 335 0 l 1,12,-1
 397 287 l 2,13,14
 402 308 402 308 402 334 c 0,15,16
 402 373 402 373 382.5 395 c 128,-1,17
 363 417 363 417 324 417 c 0,18,19
 268 417 268 417 231 377.5 c 128,-1,20
 194 338 194 338 178 262 c 2,21,-1
 122 0 l 1,22,-1
 13 0 l 1,23,-1
 163 708 l 1,0,-1
EndSplineSet
EndChar
StartChar: l
Encoding: 108 108 163
Width: 289
GlyphClass: 2
Flags: W
AnchorPoint: "Anchor-3" 256 498 basechar 0
AnchorPoint: "Anchor-1" 250 796 basechar 0
AnchorPoint: "Anchor-0" 87 0 basechar 0
LayerCount: 2
Fore
SplineSet
62.5 19 m 128,-1,1
 31 38 31 38 31 83 c 0,2,3
 31 105 31 105 37 133 c 2,4,-1
 159 708 l 1,5,-1
 269 708 l 1,6,-1
 150 152 l 2,7,8
 146 132 146 132 146 126 c 0,9,10
 146 107 146 107 159.5 100 c 128,-1,11
 173 93 173 93 204 93 c 2,12,-1
 235 93 l 1,13,-1
 216 0 l 1,14,-1
 171 0 l 2,15,0
 94 0 94 0 62.5 19 c 128,-1,1
EndSplineSet
EndChar
StartChar: m
Encoding: 109 109 167
Width: 862
GlyphClass: 2
Flags: W
AnchorPoint: "Anchor-1" 481 496 basechar 0
AnchorPoint: "Anchor-0" 375 0 basechar 0
LayerCount: 2
Fore
SplineSet
118 496 m 1,0,-1
 207 496 l 1,1,-1
 210 424 l 1,2,3
 235 461 235 461 277 483.5 c 128,-1,4
 319 506 319 506 370 506 c 0,5,6
 420 506 420 506 455 482.5 c 128,-1,7
 490 459 490 459 501 412 c 1,8,9
 538 461 538 461 582.5 483.5 c 128,-1,10
 627 506 627 506 682 506 c 0,11,12
 744 506 744 506 781 469.5 c 128,-1,13
 818 433 818 433 818 365 c 0,14,15
 818 335 818 335 811 304 c 2,16,-1
 746 0 l 1,17,-1
 637 0 l 1,18,-1
 698 287 l 2,19,20
 704 314 704 314 704 336 c 0,21,22
 704 374 704 374 685.5 395.5 c 128,-1,23
 667 417 667 417 631 417 c 0,24,25
 579 417 579 417 543 378.5 c 128,-1,26
 507 340 507 340 491 262 c 2,27,-1
 434 0 l 1,28,-1
 325 0 l 1,29,-1
 386 287 l 2,30,31
 392 313 392 313 392 335 c 0,32,33
 392 374 392 374 373 395.5 c 128,-1,34
 354 417 354 417 318 417 c 0,35,36
 266 417 266 417 230 377 c 128,-1,37
 194 337 194 337 177 262 c 2,38,-1
 122 0 l 1,39,-1
 12 0 l 1,40,-1
 118 496 l 1,0,-1
EndSplineSet
EndChar
StartChar: n
Encoding: 110 110 168
Width: 560
GlyphClass: 2
Flags: W
AnchorPoint: "Anchor-1" 335 496 basechar 0
AnchorPoint: "Anchor-0" 229 0 basechar 0
LayerCount: 2
Fore
SplineSet
118 496 m 1,0,-1
 207 496 l 1,1,-1
 210 424 l 1,2,3
 236 460 236 460 279 483 c 128,-1,4
 322 506 322 506 375 506 c 0,5,6
 440 506 440 506 478 469.5 c 128,-1,7
 516 433 516 433 516 365 c 0,8,9
 516 335 516 335 509 304 c 2,10,-1
 444 0 l 1,11,-1
 335 0 l 1,12,-1
 396 287 l 2,13,14
 402 313 402 313 402 334 c 0,15,16
 402 374 402 374 382.5 395.5 c 128,-1,17
 363 417 363 417 324 417 c 0,18,19
 268 417 268 417 231 377.5 c 128,-1,20
 194 338 194 338 178 262 c 2,21,-1
 122 0 l 1,22,-1
 12 0 l 1,23,-1
 118 496 l 1,0,-1
EndSplineSet
EndChar
StartChar: o
Encoding: 111 111 173
Width: 560
GlyphClass: 2
Flags: W
AnchorPoint: "Anchor-3" 592 496 basechar 0
AnchorPoint: "Anchor-2" 454 10 basechar 0
AnchorPoint: "Anchor-1" 328 496 basechar 0
AnchorPoint: "Anchor-0" 227 0 basechar 0
LayerCount: 2
Fore
SplineSet
135.5 15 m 128,-1,1
 86 42 86 42 59 91.5 c 128,-1,2
 32 141 32 141 32 206 c 0,3,4
 32 285 32 285 66.5 354 c 128,-1,5
 101 423 101 423 164.5 464.5 c 128,-1,6
 228 506 228 506 311 506 c 0,7,8
 376 506 376 506 425 479 c 128,-1,9
 474 452 474 452 501 402.5 c 128,-1,10
 528 353 528 353 528 289 c 0,11,12
 528 210 528 210 493.5 141 c 128,-1,13
 459 72 459 72 395.5 30 c 128,-1,14
 332 -12 332 -12 250 -12 c 0,15,0
 185 -12 185 -12 135.5 15 c 128,-1,1
345.5 112.5 m 128,-1,17
 382 146 382 146 399.5 194.5 c 128,-1,18
 417 243 417 243 417 288 c 0,19,20
 417 346 417 346 389 381 c 128,-1,21
 361 416 361 416 306 416 c 256,22,23
 251 416 251 416 214.5 382.5 c 128,-1,24
 178 349 178 349 160.5 300.5 c 128,-1,25
 143 252 143 252 143 206 c 0,26,27
 143 148 143 148 171 113.5 c 128,-1,28
 199 79 199 79 254 79 c 256,29,16
 309 79 309 79 345.5 112.5 c 128,-1,17
EndSplineSet
Substitution2: "Single Substitution lookup 15 subtable" ordmasculine
AlternateSubs2: "'aalt' Access All Alternates in Latin lookup 0 subtable" ordmasculine
EndChar
StartChar: p
Encoding: 112 112 182
Width: 581
GlyphClass: 2
Flags: W
AnchorPoint: "Anchor-1" 344 496 basechar 0
AnchorPoint: "Anchor-0" 238 0 basechar 0
LayerCount: 2
Fore
SplineSet
118 496 m 1,0,-1
 206 496 l 1,1,-1
 211 426 l 1,2,3
 239 464 239 464 283 485 c 128,-1,4
 327 506 327 506 375 506 c 0,5,6
 425 506 425 506 465 482 c 128,-1,7
 505 458 505 458 528 412 c 128,-1,8
 551 366 551 366 551 303 c 0,9,10
 551 231 551 231 521.5 158 c 128,-1,11
 492 85 492 85 432.5 36.5 c 128,-1,12
 373 -12 373 -12 289 -12 c 0,13,14
 237 -12 237 -12 195 14 c 128,-1,15
 153 40 153 40 140 83 c 1,16,-1
 88 -162 l 1,17,-1
 -22 -162 l 1,18,-1
 118 496 l 1,0,-1
363 111.5 m 128,-1,20
 400 146 400 146 417.5 196 c 128,-1,21
 435 246 435 246 435 292 c 0,22,23
 435 349 435 349 407 383 c 128,-1,24
 379 417 379 417 328 417 c 0,25,26
 276 417 276 417 239.5 380.5 c 128,-1,27
 203 344 203 344 185 292.5 c 128,-1,28
 167 241 167 241 167 196 c 0,29,30
 167 139 167 139 194.5 108 c 128,-1,31
 222 77 222 77 272 77 c 0,32,19
 326 77 326 77 363 111.5 c 128,-1,20
EndSplineSet
EndChar
StartChar: q
Encoding: 113 113 184
Width: 585
GlyphClass: 2
Flags: W
AnchorPoint: "Anchor-1" 341 496 basechar 0
AnchorPoint: "Anchor-0" 236 0 basechar 0
LayerCount: 2
Fore
SplineSet
343 -65 m 0,1,2
 343 -42 343 -42 349 -16 c 2,3,-1
 365 62 l 1,4,5
 335 26 335 26 293 7 c 128,-1,6
 251 -12 251 -12 206 -12 c 0,7,8
 155 -12 155 -12 115 12.5 c 128,-1,9
 75 37 75 37 52 83 c 128,-1,10
 29 129 29 129 29 192 c 0,11,12
 29 264 29 264 58.5 336.5 c 128,-1,13
 88 409 88 409 147.5 457.5 c 128,-1,14
 207 506 207 506 290 506 c 0,15,16
 342 506 342 506 383.5 481 c 128,-1,17
 425 456 425 456 440 415 c 1,18,-1
 479 496 l 1,19,-1
 567 496 l 1,20,-1
 463 5 l 2,21,22
 459 -11 459 -11 459 -27 c 0,23,24
 459 -50 459 -50 473 -62 c 128,-1,25
 487 -74 487 -74 521 -74 c 0,26,27
 548 -74 548 -74 575 -67 c 1,28,-1
 554 -164 l 1,29,30
 525 -173 525 -173 485 -173 c 0,31,0
 343 -173 343 -173 343 -65 c 0,1,2
340.5 113 m 128,-1,33
 377 149 377 149 395.5 201 c 128,-1,34
 414 253 414 253 414 298 c 0,35,36
 414 355 414 355 386 386 c 128,-1,37
 358 417 358 417 308 417 c 0,38,39
 254 417 254 417 217 382.5 c 128,-1,40
 180 348 180 348 163 298 c 128,-1,41
 146 248 146 248 146 202 c 0,42,43
 146 145 146 145 173.5 111 c 128,-1,44
 201 77 201 77 252 77 c 0,45,32
 304 77 304 77 340.5 113 c 128,-1,33
EndSplineSet
EndChar
StartChar: r
Encoding: 114 114 185
Width: 361
GlyphClass: 2
Flags: W
AnchorPoint: "Anchor-1" 250 496 basechar 0
AnchorPoint: "Anchor-0" 125 0 basechar 0
LayerCount: 2
Fore
SplineSet
118 496 m 1,0,-1
 204 496 l 1,1,-1
 205 404 l 1,2,3
 235 453 235 453 288 481 c 128,-1,4
 341 509 341 509 400 506 c 1,5,-1
 377 398 l 1,6,7
 294 403 294 403 242 360 c 128,-1,8
 190 317 190 317 171 230 c 2,9,-1
 122 0 l 1,10,-1
 13 0 l 1,11,-1
 118 496 l 1,0,-1
EndSplineSet
EndChar
StartChar: s
Encoding: 115 115 188
Width: 488
GlyphClass: 2
Flags: W
AnchorPoint: "Anchor-1" 290 496 basechar 0
AnchorPoint: "Anchor-0" 211 0 basechar 0
LayerCount: 2
Fore
SplineSet
89.5 21.5 m 128,-1,1
 26 55 26 55 6 117 c 1,2,-1
 105 151 l 1,3,4
 113 113 113 113 148.5 93 c 128,-1,5
 184 73 184 73 231 73 c 0,6,7
 273 73 273 73 304 90.5 c 128,-1,8
 335 108 335 108 335 140 c 0,9,10
 335 162 335 162 315 177.5 c 128,-1,11
 295 193 295 193 252 207 c 2,12,-1
 189 226 l 2,13,14
 65 267 65 267 65 354 c 0,15,16
 65 403 65 403 94 438 c 128,-1,17
 123 473 123 473 170.5 490.5 c 128,-1,18
 218 508 218 508 273 508 c 0,19,20
 342 508 342 508 396.5 480 c 128,-1,21
 451 452 451 452 470 398 c 1,22,-1
 373 363 l 1,23,24
 364 394 364 394 334 408 c 128,-1,25
 304 422 304 422 265 422 c 0,26,27
 227 422 227 422 199 408.5 c 128,-1,28
 171 395 171 395 171 366 c 0,29,30
 171 346 171 346 187 332.5 c 128,-1,31
 203 319 203 319 237 307 c 2,32,-1
 300 288 l 2,33,34
 372 264 372 264 406.5 233.5 c 128,-1,35
 441 203 441 203 441 157 c 0,36,37
 441 104 441 104 412 65.5 c 128,-1,38
 383 27 383 27 334.5 7.5 c 128,-1,39
 286 -12 286 -12 228 -12 c 0,40,0
 153 -12 153 -12 89.5 21.5 c 128,-1,1
EndSplineSet
EndChar
StartChar: t
Encoding: 116 116 194
Width: 349
GlyphClass: 2
Flags: W
AnchorPoint: "Anchor-3" 298 548 basechar 0
AnchorPoint: "Anchor-1" 225 496 basechar 0
AnchorPoint: "Anchor-0" 157 0 basechar 0
LayerCount: 2
Fore
SplineSet
104 19.5 m 128,-1,1
 69 39 69 39 69 88 c 0,2,3
 69 107 69 107 76 144 c 2,4,-1
 134 411 l 1,5,-1
 51 411 l 1,6,-1
 69 496 l 1,7,-1
 153 496 l 1,8,-1
 179 620 l 1,9,-1
 288 620 l 1,10,-1
 262 496 l 1,11,-1
 367 496 l 1,12,-1
 348 411 l 1,13,-1
 243 411 l 1,14,-1
 189 160 l 2,15,16
 186 144 186 144 186 132 c 0,17,18
 186 110 186 110 200 101.5 c 128,-1,19
 214 93 214 93 251 93 c 2,20,-1
 281 93 l 1,21,-1
 261 0 l 1,22,-1
 225 0 l 2,23,0
 139 0 139 0 104 19.5 c 128,-1,1
EndSplineSet
EndChar
StartChar: u
Encoding: 117 117 198
Width: 553
GlyphClass: 2
Flags: W
AnchorPoint: "Anchor-3" 574 496 basechar 0
AnchorPoint: "Anchor-2" 437 10 basechar 0
AnchorPoint: "Anchor-1" 323 496 basechar 0
AnchorPoint: "Anchor-0" 217 0 basechar 0
LayerCount: 2
Fore
SplineSet
82 24.5 m 128,-1,1
 45 61 45 61 45 130 c 0,2,3
 45 160 45 160 52 192 c 2,4,-1
 116 496 l 1,5,-1
 225 496 l 1,6,-1
 164 209 l 2,7,8
 159 181 159 181 159 163 c 0,9,10
 159 79 159 79 235 79 c 0,11,12
 288 79 288 79 323.5 119.5 c 128,-1,13
 359 160 359 160 375 235 c 2,14,-1
 431 496 l 1,15,-1
 540 496 l 1,16,-1
 435 0 l 1,17,-1
 343 0 l 1,18,-1
 342 71 l 1,19,20
 317 35 317 35 275.5 11.5 c 128,-1,21
 234 -12 234 -12 182 -12 c 0,22,0
 119 -12 119 -12 82 24.5 c 128,-1,1
EndSplineSet
EndChar
StartChar: w
Encoding: 119 119 208
Width: 710
GlyphClass: 2
Flags: W
AnchorPoint: "Anchor-1" 405 496 basechar 0
AnchorPoint: "Anchor-0" 302 0 basechar 0
LayerCount: 2
Fore
SplineSet
68 496 m 1,0,-1
 175 496 l 1,1,-1
 190 135 l 1,2,-1
 353 496 l 1,3,-1
 457 496 l 1,4,-1
 468 135 l 1,5,-1
 635 496 l 1,6,-1
 748 496 l 1,7,-1
 507 0 l 1,8,-1
 396 0 l 1,9,-1
 383 385 l 1,10,-1
 207 0 l 1,11,-1
 97 0 l 1,12,-1
 68 496 l 1,0,-1
EndSplineSet
EndChar
StartChar: x
Encoding: 120 120 213
Width: 508
GlyphClass: 2
Flags: W
AnchorPoint: "Anchor-1" 308 496 basechar 0
AnchorPoint: "Anchor-0" 202 0 basechar 0
LayerCount: 2
Fore
SplineSet
195 259 m 1,0,-1
 74 496 l 1,1,-1
 186 496 l 1,2,-1
 267 337 l 1,3,-1
 411 496 l 1,4,-1
 540 496 l 1,5,-1
 317 254 l 1,6,-1
 445 0 l 1,7,-1
 333 0 l 1,8,-1
 243 175 l 1,9,-1
 86 0 l 1,10,-1
 -43 0 l 1,11,-1
 195 259 l 1,0,-1
EndSplineSet
EndChar
StartChar: y
Encoding: 121 121 214
Width: 482
GlyphClass: 2
Flags: W
AnchorPoint: "Anchor-1" 290 496 basechar 0
AnchorPoint: "Anchor-0" 187 0 basechar 0
LayerCount: 2
Fore
SplineSet
-16 -74 m 1,0,-1
 26 -74 l 2,1,2
 67 -74 67 -74 87.5 -62.5 c 128,-1,3
 108 -51 108 -51 122 -22 c 2,4,-1
 140 13 l 1,5,-1
 63 496 l 1,6,-1
 176 496 l 1,7,-1
 220 140 l 1,8,-1
 406 496 l 1,9,-1
 525 496 l 1,10,-1
 223 -33 l 2,11,12
 193 -85 193 -85 169.5 -112 c 128,-1,13
 146 -139 146 -139 118 -150.5 c 128,-1,14
 90 -162 90 -162 48 -162 c 2,15,-1
 -35 -162 l 1,16,-1
 -16 -74 l 1,0,-1
EndSplineSet
EndChar
StartChar: z
Encoding: 122 122 219
Width: 481
GlyphClass: 2
Flags: W
AnchorPoint: "Anchor-1" 298 496 basechar 0
AnchorPoint: "Anchor-0" 186 0 basechar 0
LayerCount: 2
Fore
SplineSet
3 91 m 1,0,-1
 332 404 l 1,1,-1
 80 404 l 1,2,-1
 100 496 l 1,3,-1
 496 496 l 1,4,-1
 477 405 l 1,5,-1
 151 92 l 1,6,-1
 422 92 l 1,7,-1
 402 0 l 1,8,-1
 -17 0 l 1,9,-1
 3 91 l 1,0,-1
EndSplineSet
EndChar
StartChar: braceleft
Encoding: 123 123 279
Width: 356
GlyphClass: 1
Flags: W
LayerCount: 2
Fore
SplineSet
96.5 -138.5 m 128,-1,1
 62 -115 62 -115 62 -61 c 0,2,3
 62 -33 62 -33 69 -2 c 2,4,-1
 100 138 l 2,5,6
 104 154 104 154 104 171 c 0,7,8
 104 196 104 196 87.5 210 c 128,-1,9
 71 224 71 224 30 228 c 1,10,-1
 48 319 l 1,11,12
 87 321 87 321 108.5 331 c 128,-1,13
 130 341 130 341 139.5 359 c 128,-1,14
 149 377 149 377 156 409 c 2,15,-1
 194 578 l 2,16,17
 205 632 205 632 224 660 c 128,-1,18
 243 688 243 688 271.5 698 c 128,-1,19
 300 708 300 708 346 708 c 2,20,-1
 420 708 l 1,21,-1
 402 619 l 1,22,-1
 362 619 l 2,23,24
 329 619 329 619 316 609.5 c 128,-1,25
 303 600 303 600 296 566 c 2,26,-1
 256 383 l 2,27,28
 243 326 243 326 217 300.5 c 128,-1,29
 191 275 191 275 150 267 c 1,30,-1
 149 262 l 1,31,32
 178 251 178 251 193.5 231 c 128,-1,33
 209 211 209 211 209 175 c 0,34,35
 209 156 209 156 203 129 c 2,36,-1
 173 -10 l 2,37,38
 170 -25 170 -25 170 -37 c 0,39,40
 170 -56 170 -56 182 -64.5 c 128,-1,41
 194 -73 194 -73 223 -73 c 2,42,-1
 254 -73 l 1,43,-1
 236 -162 l 1,44,-1
 212 -162 l 2,45,0
 131 -162 131 -162 96.5 -138.5 c 128,-1,1
EndSplineSet
EndChar
StartChar: bar
Encoding: 124 124 305
Width: 245
GlyphClass: 1
Flags: W
LayerCount: 2
Fore
SplineSet
195 838 m 1,0,-1
 300 838 l 1,1,-1
 88 -162 l 1,2,-1
 -17 -162 l 1,3,-1
 195 838 l 1,0,-1
EndSplineSet
EndChar
StartChar: braceright
Encoding: 125 125 280
Width: 357
GlyphClass: 1
Flags: W
LayerCount: 2
Fore
SplineSet
-34 -73 m 1,0,-1
 5 -73 l 2,1,2
 39 -73 39 -73 51.5 -63.5 c 128,-1,3
 64 -54 64 -54 71 -20 c 2,4,-1
 111 163 l 2,5,6
 124 220 124 220 150 246 c 128,-1,7
 176 272 176 272 218 279 c 1,8,-1
 219 285 l 1,9,10
 190 296 190 296 174 316 c 128,-1,11
 158 336 158 336 158 371 c 0,12,13
 158 392 158 392 164 417 c 2,14,-1
 195 556 l 2,15,16
 198 571 198 571 198 582 c 0,17,18
 198 602 198 602 185.5 610.5 c 128,-1,19
 173 619 173 619 144 619 c 2,20,-1
 114 619 l 1,21,-1
 132 708 l 1,22,-1
 156 708 l 2,23,24
 236 708 236 708 271 684.5 c 128,-1,25
 306 661 306 661 306 608 c 0,26,27
 306 585 306 585 298 548 c 2,28,-1
 267 408 l 2,29,30
 263 384 263 384 263 376 c 0,31,32
 263 350 263 350 280 336 c 128,-1,33
 297 322 297 322 338 318 c 1,34,-1
 320 227 l 1,35,36
 280 225 280 225 259 215 c 128,-1,37
 238 205 238 205 228 187 c 128,-1,38
 218 169 218 169 211 137 c 2,39,-1
 174 -32 l 2,40,41
 162 -86 162 -86 143 -114 c 128,-1,42
 124 -142 124 -142 96 -152 c 128,-1,43
 68 -162 68 -162 21 -162 c 2,44,-1
 -52 -162 l 1,45,-1
 -34 -73 l 1,0,-1
EndSplineSet
EndChar
StartChar: asciitilde
Encoding: 126 126 333
Width: 547
GlyphClass: 1
Flags: W
LayerCount: 2
Fore
SplineSet
86 299 m 128,-1,1
 122 337 122 337 180 337 c 0,2,3
 209 337 209 337 231.5 328.5 c 128,-1,4
 254 320 254 320 286 303 c 0,5,6
 310 289 310 289 328 282 c 128,-1,7
 346 275 346 275 366 275 c 0,8,9
 396 275 396 275 415 294 c 128,-1,10
 434 313 434 313 443 356 c 1,11,-1
 522 328 l 1,12,13
 502 257 502 257 466 219 c 128,-1,14
 430 181 430 181 372 181 c 0,15,16
 342 181 342 181 318.5 190 c 128,-1,17
 295 199 295 199 265 216 c 0,18,19
 237 231 237 231 221 237.5 c 128,-1,20
 205 244 205 244 186 244 c 0,21,22
 156 244 156 244 137.5 224.5 c 128,-1,23
 119 205 119 205 109 162 c 1,24,-1
 29 190 l 1,25,0
 50 261 50 261 86 299 c 128,-1,1
EndSplineSet
EndChar
StartChar: exclamdown
Encoding: 161 161 264
Width: 297
GlyphClass: 1
Flags: W
LayerCount: 2
Fore
SplineSet
38 2 m 1,0,-1
 121 285 l 1,1,-1
 192 285 l 1,2,-1
 156 2 l 1,3,-1
 119 -170 l 1,4,-1
 2 -170 l 1,5,-1
 38 2 l 1,0,-1
133.5 378.5 m 128,-1,7
 111 401 111 401 111 433 c 256,8,9
 111 465 111 465 133.5 487.5 c 128,-1,10
 156 510 156 510 188 510 c 256,11,12
 220 510 220 510 242.5 487.5 c 128,-1,13
 265 465 265 465 265 433 c 256,14,15
 265 401 265 401 242.5 378.5 c 128,-1,16
 220 356 220 356 188 356 c 256,17,6
 156 356 156 356 133.5 378.5 c 128,-1,7
EndSplineSet
EndChar
StartChar: cent
Encoding: 162 162 311
Width: 496
GlyphClass: 1
Flags: W
LayerCount: 2
Fore
SplineSet
71.5 63 m 128,-1,1
 30 117 30 117 30 199 c 0,2,3
 30 277 30 277 63 346.5 c 128,-1,4
 96 416 96 416 156 460 c 128,-1,5
 216 504 216 504 294 507 c 1,6,-1
 311 586 l 1,7,-1
 369 586 l 1,8,-1
 351 502 l 1,9,10
 401 493 401 493 439 464 c 128,-1,11
 477 435 477 435 497 386 c 1,12,-1
 402 354 l 1,13,14
 383 401 383 401 332 413 c 1,15,-1
 260 77 l 1,16,17
 330 80 330 80 370 134 c 1,18,-1
 458 99 l 1,19,20
 421 45 421 45 365 17.5 c 128,-1,21
 309 -10 309 -10 242 -12 c 1,22,-1
 225 -90 l 1,23,-1
 167 -90 l 1,24,-1
 185 -6 l 1,25,0
 113 9 113 9 71.5 63 c 128,-1,1
201 370.5 m 128,-1,27
 171 336 171 336 156.5 290.5 c 128,-1,28
 142 245 142 245 142 204 c 0,29,30
 142 161 142 161 158 130.5 c 128,-1,31
 174 100 174 100 205 87 c 1,32,-1
 275 414 l 1,33,26
 231 405 231 405 201 370.5 c 128,-1,27
EndSplineSet
EndChar
StartChar: sterling
Encoding: 163 163 316
Width: 621
GlyphClass: 1
Flags: W
LayerCount: 2
Fore
SplineSet
203 278 m 0,1,2
 203 287 203 287 201 309 c 1,3,-1
 84 309 l 1,4,-1
 98 369 l 1,5,-1
 189 369 l 1,6,7
 166 449 166 449 166 492 c 0,8,9
 166 547 166 547 194.5 590 c 128,-1,10
 223 633 223 633 275 656.5 c 128,-1,11
 327 680 327 680 395 680 c 0,12,13
 479 680 479 680 541 642.5 c 128,-1,14
 603 605 603 605 621 537 c 1,15,-1
 518 505 l 1,16,17
 511 546 511 546 478 568 c 128,-1,18
 445 590 445 590 396 590 c 0,19,20
 342 590 342 590 309.5 561.5 c 128,-1,21
 277 533 277 533 277 483 c 0,22,23
 277 461 277 461 282.5 437.5 c 128,-1,24
 288 414 288 414 302 369 c 1,25,-1
 481 369 l 1,26,-1
 468 309 l 1,27,-1
 314 309 l 1,28,29
 317 296 317 296 317 279 c 0,30,31
 317 226 317 226 286 182 c 128,-1,32
 255 138 255 138 205 105 c 1,33,34
 223 114 223 114 252 114 c 0,35,36
 283 114 283 114 330 99 c 0,37,38
 350 93 350 93 371.5 88.5 c 128,-1,39
 393 84 393 84 413 84 c 0,40,41
 437 84 437 84 460.5 90 c 128,-1,42
 484 96 484 96 516 111 c 1,43,-1
 530 19 l 1,44,45
 489 2 489 2 455.5 -5 c 128,-1,46
 422 -12 422 -12 387 -12 c 0,47,48
 346 -12 346 -12 289 7 c 0,49,50
 258 16 258 16 238 20.5 c 128,-1,51
 218 25 218 25 195 25 c 0,52,53
 133 25 133 25 56 -11 c 1,54,-1
 35 71 l 1,55,0
 203 148 203 148 203 278 c 0,1,2
EndSplineSet
EndChar
StartChar: currency
Encoding: 164 164 312
Width: 586
GlyphClass: 1
Flags: W
LayerCount: 2
Fore
SplineSet
68 123 m 1,0,-1
 135 190 l 1,1,2
 90 249 90 249 90 321 c 256,3,4
 90 393 90 393 135 452 c 1,5,-1
 68 519 l 1,6,-1
 110 561 l 1,7,-1
 177 494 l 1,8,9
 234 539 234 539 308 539 c 0,10,11
 383 539 383 539 440 494 c 1,12,-1
 506 561 l 1,13,-1
 548 519 l 1,14,-1
 482 452 l 1,15,16
 527 393 527 393 527 321 c 256,17,18
 527 249 527 249 482 190 c 1,19,-1
 548 123 l 1,20,-1
 506 81 l 1,21,-1
 440 148 l 1,22,23
 383 103 383 103 308 103 c 0,24,25
 234 103 234 103 177 148 c 1,26,-1
 110 81 l 1,27,-1
 68 123 l 1,0,-1
397 232.5 m 128,-1,29
 434 269 434 269 434 321 c 0,30,31
 434 355 434 355 417 384 c 128,-1,32
 400 413 400 413 371 430 c 128,-1,33
 342 447 342 447 308 447 c 0,34,35
 256 447 256 447 219.5 410 c 128,-1,36
 183 373 183 373 183 321 c 256,37,38
 183 269 183 269 219.5 232.5 c 128,-1,39
 256 196 256 196 308 196 c 256,40,28
 360 196 360 196 397 232.5 c 128,-1,29
EndSplineSet
EndChar
StartChar: yen
Encoding: 165 165 317
Width: 609
GlyphClass: 1
Flags: W
LayerCount: 2
Fore
SplineSet
211 82 m 1,0,-1
 68 82 l 1,1,-1
 81 142 l 1,2,-1
 223 142 l 1,3,-1
 240 219 l 1,4,-1
 97 219 l 1,5,-1
 110 279 l 1,6,-1
 240 279 l 1,7,-1
 89 668 l 1,8,-1
 217 668 l 1,9,-1
 324 369 l 1,10,-1
 559 668 l 1,11,-1
 698 668 l 1,12,-1
 380 279 l 1,13,-1
 512 279 l 1,14,-1
 499 219 l 1,15,-1
 356 219 l 1,16,-1
 340 142 l 1,17,-1
 483 142 l 1,18,-1
 470 82 l 1,19,-1
 327 82 l 1,20,-1
 310 0 l 1,21,-1
 193 0 l 1,22,-1
 211 82 l 1,0,-1
EndSplineSet
EndChar
StartChar: brokenbar
Encoding: 166 166 306
Width: 245
GlyphClass: 1
Flags: W
LayerCount: 2
Fore
SplineSet
67 233 m 1,0,-1
 172 233 l 1,1,-1
 88 -162 l 1,2,-1
 -17 -162 l 1,3,-1
 67 233 l 1,0,-1
195 838 m 1,4,-1
 300 838 l 1,5,-1
 216 443 l 1,6,-1
 111 443 l 1,7,-1
 195 838 l 1,4,-1
EndSplineSet
EndChar
StartChar: section
Encoding: 167 167 300
Width: 539
GlyphClass: 1
Flags: W
LayerCount: 2
Fore
SplineSet
84 -139 m 128,-1,1
 34 -105 34 -105 20 -41 c 1,2,-1
 121 -10 l 1,3,4
 130 -85 130 -85 217 -85 c 0,5,6
 257 -85 257 -85 284 -67 c 128,-1,7
 311 -49 311 -49 311 -22 c 0,8,9
 311 -1 311 -1 293.5 19 c 128,-1,10
 276 39 276 39 238 66 c 2,11,-1
 148 129 l 2,12,13
 94 167 94 167 68.5 201 c 128,-1,14
 43 235 43 235 43 277 c 0,15,16
 43 379 43 379 169 430 c 1,17,18
 132 470 132 470 132 517 c 256,19,20
 132 564 132 564 161 601.5 c 128,-1,21
 190 639 190 639 238.5 659.5 c 128,-1,22
 287 680 287 680 342 680 c 0,23,24
 417 680 417 680 467 646 c 128,-1,25
 517 612 517 612 531 548 c 1,26,-1
 430 517 l 1,27,28
 419 593 419 593 334 593 c 0,29,30
 294 593 294 593 267 575 c 128,-1,31
 240 557 240 557 240 530 c 0,32,33
 240 509 240 509 257.5 489 c 128,-1,34
 275 469 275 469 313 442 c 2,35,-1
 403 378 l 2,36,37
 457 340 457 340 482.5 306.5 c 128,-1,38
 508 273 508 273 508 231 c 0,39,40
 508 130 508 130 382 77 c 1,41,42
 419 37 419 37 419 -9 c 0,43,44
 419 -56 419 -56 390 -93.5 c 128,-1,45
 361 -131 361 -131 312.5 -152 c 128,-1,46
 264 -173 264 -173 209 -173 c 0,47,0
 134 -173 134 -173 84 -139 c 128,-1,1
401 214 m 0,49,50
 401 236 401 236 384.5 256 c 128,-1,51
 368 276 368 276 335 300 c 2,52,-1
 232 373 l 1,53,54
 150 343 150 343 150 293 c 0,55,56
 150 271 150 271 166.5 251 c 128,-1,57
 183 231 183 231 216 207 c 2,58,-1
 319 134 l 1,59,48
 401 166 401 166 401 214 c 0,49,50
EndSplineSet
EndChar
StartChar: copyright
Encoding: 169 169 301
Width: 798
GlyphClass: 1
Flags: W
LayerCount: 2
Fore
SplineSet
243 33.5 m 128,-1,1
 163 80 163 80 116.5 160 c 128,-1,2
 70 240 70 240 70 334 c 256,3,4
 70 428 70 428 116.5 508 c 128,-1,5
 163 588 163 588 243 634.5 c 128,-1,6
 323 681 323 681 417 681 c 256,7,8
 511 681 511 681 591 634.5 c 128,-1,9
 671 588 671 588 717.5 508 c 128,-1,10
 764 428 764 428 764 334 c 256,11,12
 764 240 764 240 717.5 160 c 128,-1,13
 671 80 671 80 591 33.5 c 128,-1,14
 511 -13 511 -13 417 -13 c 256,15,0
 323 -13 323 -13 243 33.5 c 128,-1,1
287 194.5 m 128,-1,17
 240 246 240 246 240 336 c 0,18,19
 240 424 240 424 289 475 c 128,-1,20
 338 526 338 526 420 526 c 0,21,22
 472 526 472 526 511.5 504 c 128,-1,23
 551 482 551 482 572 440 c 1,24,-1
 496 411 l 1,25,26
 475 456 475 456 421 456 c 0,27,28
 381 456 381 456 356 426.5 c 128,-1,29
 331 397 331 397 331 336 c 0,30,31
 331 274 331 274 356 244 c 128,-1,32
 381 214 381 214 421 214 c 0,33,34
 476 214 476 214 498 253 c 1,35,-1
 573 225 l 1,36,37
 550 186 550 186 510 164.5 c 128,-1,38
 470 143 470 143 419 143 c 0,39,16
 334 143 334 143 287 194.5 c 128,-1,17
558.5 90 m 128,-1,41
 623 128 623 128 661 192.5 c 128,-1,42
 699 257 699 257 699 334 c 256,43,44
 699 411 699 411 661 476 c 128,-1,45
 623 541 623 541 558.5 578.5 c 128,-1,46
 494 616 494 616 417 616 c 256,47,48
 340 616 340 616 275.5 578.5 c 128,-1,49
 211 541 211 541 173 476 c 128,-1,50
 135 411 135 411 135 334 c 256,51,52
 135 257 135 257 173 192.5 c 128,-1,53
 211 128 211 128 275.5 90 c 128,-1,54
 340 52 340 52 417 52 c 256,55,40
 494 52 494 52 558.5 90 c 128,-1,41
EndSplineSet
EndChar
StartChar: ordfeminine
Encoding: 170 170 223
Width: 381
GlyphClass: 1
Flags: W
LayerCount: 2
Fore
SplineSet
130 415.5 m 128,-1,1
 103 437 103 437 103 471 c 0,2,3
 103 525 103 525 156.5 551 c 128,-1,4
 210 577 210 577 311 575 c 1,5,6
 313 582 313 582 313 595 c 0,7,8
 313 615 313 615 301.5 623.5 c 128,-1,9
 290 632 290 632 267 632 c 0,10,11
 249 632 249 632 234 624 c 128,-1,12
 219 616 219 616 215 601 c 1,13,-1
 144 626 l 1,14,15
 160 656 160 656 192 672 c 128,-1,16
 224 688 224 688 268 688 c 0,17,18
 326 688 326 688 358 665.5 c 128,-1,19
 390 643 390 643 390 597 c 0,20,21
 390 578 390 578 386 561 c 2,22,-1
 374 508 l 2,23,24
 359 440 359 440 359 400 c 1,25,-1
 291 400 l 1,26,-1
 289 438 l 1,27,28
 256 394 256 394 198 394 c 0,29,0
 157 394 157 394 130 415.5 c 128,-1,1
272 468 m 128,-1,31
 292 484 292 484 298 511 c 2,32,-1
 301 525 l 1,33,34
 243 526 243 526 214.5 514.5 c 128,-1,35
 186 503 186 503 186 479 c 0,36,37
 186 467 186 467 196 459.5 c 128,-1,38
 206 452 206 452 224 452 c 0,39,30
 252 452 252 452 272 468 c 128,-1,31
EndSplineSet
EndChar
StartChar: guillemotleft
Encoding: 171 171 289
Width: 602
GlyphClass: 1
Flags: W
LayerCount: 2
Fore
SplineSet
275 243 m 1,0,-1
 465 460 l 1,1,-1
 593 460 l 1,2,-1
 397 237 l 1,3,-1
 503 40 l 1,4,-1
 386 40 l 1,5,-1
 275 243 l 1,0,-1
54 250 m 1,6,-1
 244 460 l 1,7,-1
 372 460 l 1,8,-1
 176 243 l 1,9,-1
 282 40 l 1,10,-1
 165 40 l 1,11,-1
 54 250 l 1,6,-1
EndSplineSet
EndChar
StartChar: logicalnot
Encoding: 172 172 332
Width: 608
GlyphClass: 1
Flags: W
LayerCount: 2
Fore
SplineSet
470 308 m 1,0,-1
 66 308 l 1,1,-1
 86 406 l 1,2,-1
 588 406 l 1,3,-1
 518 77 l 1,4,-1
 420 77 l 1,5,-1
 470 308 l 1,0,-1
EndSplineSet
EndChar
StartChar: registered
Encoding: 174 174 302
Width: 798
GlyphClass: 1
Flags: W
LayerCount: 2
Fore
SplineSet
243 33.5 m 128,-1,1
 163 80 163 80 116.5 160 c 128,-1,2
 70 240 70 240 70 334 c 256,3,4
 70 428 70 428 116.5 508 c 128,-1,5
 163 588 163 588 243 634.5 c 128,-1,6
 323 681 323 681 417 681 c 256,7,8
 511 681 511 681 591 634.5 c 128,-1,9
 671 588 671 588 717.5 508 c 128,-1,10
 764 428 764 428 764 334 c 256,11,12
 764 240 764 240 717.5 160 c 128,-1,13
 671 80 671 80 591 33.5 c 128,-1,14
 511 -13 511 -13 417 -13 c 256,15,0
 323 -13 323 -13 243 33.5 c 128,-1,1
558.5 90 m 128,-1,17
 623 128 623 128 661 192.5 c 128,-1,18
 699 257 699 257 699 334 c 256,19,20
 699 411 699 411 661 476 c 128,-1,21
 623 541 623 541 558.5 578.5 c 128,-1,22
 494 616 494 616 417 616 c 256,23,24
 340 616 340 616 275.5 578.5 c 128,-1,25
 211 541 211 541 173 476 c 128,-1,26
 135 411 135 411 135 334 c 256,27,28
 135 257 135 257 173 192.5 c 128,-1,29
 211 128 211 128 275.5 90 c 128,-1,30
 340 52 340 52 417 52 c 256,31,16
 494 52 494 52 558.5 90 c 128,-1,17
274 529 m 1,32,-1
 414 529 l 2,33,34
 490 529 490 529 531 503 c 128,-1,35
 572 477 572 477 572 414 c 0,36,37
 572 374 572 374 548.5 347.5 c 128,-1,38
 525 321 525 321 484 310 c 1,39,-1
 592 162 l 1,40,-1
 498 162 l 1,41,-1
 396 300 l 1,42,-1
 358 300 l 1,43,-1
 358 162 l 1,44,-1
 274 162 l 1,45,-1
 274 529 l 1,32,-1
469.5 376 m 128,-1,47
 487 388 487 388 487 413 c 0,48,49
 487 441 487 441 468 451.5 c 128,-1,50
 449 462 449 462 411 462 c 2,51,-1
 358 462 l 1,52,-1
 358 364 l 1,53,-1
 414 364 l 2,54,46
 452 364 452 364 469.5 376 c 128,-1,47
EndSplineSet
EndChar
StartChar: degree
Encoding: 176 176 304
Width: 372
GlyphClass: 1
Flags: W
LayerCount: 2
Fore
SplineSet
173.5 407.5 m 128,-1,1
 140 427 140 427 120.5 461 c 128,-1,2
 101 495 101 495 101 534 c 0,3,4
 101 574 101 574 120.5 607.5 c 128,-1,5
 140 641 140 641 173.5 660.5 c 128,-1,6
 207 680 207 680 247 680 c 0,7,8
 286 680 286 680 319.5 660.5 c 128,-1,9
 353 641 353 641 372.5 607.5 c 128,-1,10
 392 574 392 574 392 534 c 0,11,12
 392 495 392 495 372.5 461.5 c 128,-1,13
 353 428 353 428 319.5 408 c 128,-1,14
 286 388 286 388 247 388 c 0,15,0
 207 388 207 388 173.5 407.5 c 128,-1,1
299 482.5 m 128,-1,17
 320 504 320 504 320 534 c 0,18,19
 320 565 320 565 299 586 c 128,-1,20
 278 607 278 607 247 607 c 0,21,22
 217 607 217 607 195.5 586 c 128,-1,23
 174 565 174 565 174 534 c 0,24,25
 174 504 174 504 195.5 482.5 c 128,-1,26
 217 461 217 461 247 461 c 0,27,16
 278 461 278 461 299 482.5 c 128,-1,17
EndSplineSet
EndChar
StartChar: plusminus
Encoding: 177 177 330
Width: 594
GlyphClass: 1
Flags: W
LayerCount: 2
Fore
SplineSet
254 275 m 1,0,-1
 59 275 l 1,1,-1
 78 365 l 1,2,-1
 273 365 l 1,3,-1
 301 496 l 1,4,-1
 399 496 l 1,5,-1
 371 365 l 1,6,-1
 566 365 l 1,7,-1
 546 275 l 1,8,-1
 352 275 l 1,9,-1
 325 145 l 1,10,-1
 227 145 l 1,11,-1
 254 275 l 1,0,-1
21 98 m 1,12,-1
 508 98 l 1,13,-1
 488 0 l 1,14,-1
 0 0 l 1,15,-1
 21 98 l 1,12,-1
EndSplineSet
EndChar
StartChar: uni00B2
Encoding: 178 178 254
Width: 391
GlyphClass: 1
Flags: W
LayerCount: 2
Fore
SplineSet
340 684 m 0,1,2
 340 704 340 704 327 715 c 128,-1,3
 314 726 314 726 293 726 c 0,4,5
 271 726 271 726 253 712.5 c 128,-1,6
 235 699 235 699 228 672 c 1,7,-1
 155 700 l 1,8,9
 173 741 173 741 209.5 763.5 c 128,-1,10
 246 786 246 786 296 786 c 0,11,12
 350 786 350 786 387.5 761.5 c 128,-1,13
 425 737 425 737 425 690 c 0,14,15
 425 628 425 628 366.5 572 c 128,-1,16
 308 516 308 516 225 472 c 1,17,-1
 386 472 l 1,18,-1
 370 403 l 1,19,-1
 85 403 l 1,20,-1
 99 469 l 1,21,0
 340 605 340 605 340 684 c 0,1,2
EndSplineSet
EndChar
StartChar: uni00B3
Encoding: 179 179 255
Width: 395
GlyphClass: 1
Flags: W
LayerCount: 2
Fore
SplineSet
156 420 m 128,-1,1
 119 444 119 444 109 485 c 1,2,-1
 181 506 l 1,3,4
 186 483 186 483 203 470 c 128,-1,5
 220 457 220 457 247 457 c 0,6,7
 276 457 276 457 296 473.5 c 128,-1,8
 316 490 316 490 316 516 c 0,9,10
 316 565 316 565 225 564 c 1,11,-1
 238 630 l 1,12,13
 246 629 246 629 262 629 c 0,14,15
 300 629 300 629 320.5 643 c 128,-1,16
 341 657 341 657 341 684 c 0,17,18
 341 704 341 704 326.5 715 c 128,-1,19
 312 726 312 726 289 726 c 0,20,21
 240 726 240 726 220 680 c 1,22,-1
 149 705 l 1,23,24
 168 745 168 745 204 765.5 c 128,-1,25
 240 786 240 786 290 786 c 0,26,27
 348 786 348 786 386.5 761 c 128,-1,28
 425 736 425 736 425 689 c 0,29,30
 425 658 425 658 404.5 630.5 c 128,-1,31
 384 603 384 603 354 592 c 1,32,33
 375 581 375 581 386.5 561.5 c 128,-1,34
 398 542 398 542 398 518 c 0,35,36
 398 466 398 466 355.5 431 c 128,-1,37
 313 396 313 396 246 396 c 0,38,0
 193 396 193 396 156 420 c 128,-1,1
EndSplineSet
EndChar
StartChar: paragraph
Encoding: 182 182 299
Width: 515
GlyphClass: 1
Flags: W
LayerCount: 2
Fore
SplineSet
111.5 360 m 128,-1,1
 82 404 82 404 82 457 c 0,2,3
 82 479 82 479 86 496 c 0,4,5
 97 547 97 547 129 586 c 128,-1,6
 161 625 161 625 206 646.5 c 128,-1,7
 251 668 251 668 299 668 c 2,8,-1
 577 668 l 1,9,-1
 563 601 l 1,10,-1
 521 601 l 1,11,-1
 359 -162 l 1,12,-1
 273 -162 l 1,13,-1
 435 601 l 1,14,-1
 341 601 l 1,15,-1
 180 -162 l 1,16,-1
 94 -162 l 1,17,-1
 192 297 l 1,18,0
 141 316 141 316 111.5 360 c 128,-1,1
EndSplineSet
EndChar
StartChar: uni00B9
Encoding: 185 185 253
Width: 269
GlyphClass: 1
Flags: W
LayerCount: 2
Fore
SplineSet
225 668 m 1,0,-1
 142 668 l 1,1,-1
 156 732 l 1,2,3
 197 731 197 731 224 742 c 128,-1,4
 251 753 251 753 265 779 c 1,5,-1
 329 779 l 1,6,-1
 249 403 l 1,7,-1
 169 403 l 1,8,-1
 225 668 l 1,0,-1
EndSplineSet
EndChar
StartChar: ordmasculine
Encoding: 186 186 224
Width: 391
GlyphClass: 1
Flags: W
LayerCount: 2
Fore
SplineSet
150.5 425.5 m 128,-1,1
 113 457 113 457 113 516 c 0,2,3
 113 561 113 561 131.5 600.5 c 128,-1,4
 150 640 150 640 186.5 664 c 128,-1,5
 223 688 223 688 272 688 c 0,6,7
 327 688 327 688 364.5 656.5 c 128,-1,8
 402 625 402 625 402 566 c 0,9,10
 402 521 402 521 383.5 481.5 c 128,-1,11
 365 442 365 442 328.5 418 c 128,-1,12
 292 394 292 394 243 394 c 0,13,0
 188 394 188 394 150.5 425.5 c 128,-1,1
301 492 m 128,-1,15
 320 527 320 527 320 563 c 0,16,17
 320 591 320 591 307 608 c 128,-1,18
 294 625 294 625 270 625 c 0,19,20
 233 625 233 625 214 590.5 c 128,-1,21
 195 556 195 556 195 519 c 0,22,23
 195 491 195 491 208 474 c 128,-1,24
 221 457 221 457 245 457 c 0,25,14
 282 457 282 457 301 492 c 128,-1,15
EndSplineSet
EndChar
StartChar: guillemotright
Encoding: 187 187 290
Width: 603
GlyphClass: 1
Flags: W
LayerCount: 2
Fore
SplineSet
427 257 m 1,0,-1
 321 460 l 1,1,-1
 437 460 l 1,2,-1
 549 250 l 1,3,-1
 359 40 l 1,4,-1
 231 40 l 1,5,-1
 427 257 l 1,0,-1
206 264 m 1,6,-1
 100 460 l 1,7,-1
 216 460 l 1,8,-1
 328 257 l 1,9,-1
 138 40 l 1,10,-1
 10 40 l 1,11,-1
 206 264 l 1,6,-1
EndSplineSet
EndChar
StartChar: onequarter
Encoding: 188 188 251
Width: 837
GlyphClass: 3
Flags: W
LayerCount: 2
Fore
SplineSet
665 668 m 1,0,-1
 775 668 l 1,1,-1
 173 0 l 1,2,-1
 63 0 l 1,3,-1
 665 668 l 1,0,-1
202 558 m 1,4,-1
 119 558 l 1,5,-1
 133 621 l 1,6,7
 173 621 173 621 199.5 631 c 128,-1,8
 226 641 226 641 241 668 c 1,9,-1
 306 668 l 1,10,-1
 226 293 l 1,11,-1
 146 293 l 1,12,-1
 202 558 l 1,4,-1
621 150 m 1,13,-1
 647 273 l 1,14,-1
 526 150 l 1,15,-1
 621 150 l 1,13,-1
606 82 m 1,16,-1
 423 82 l 1,17,-1
 436 144 l 1,18,-1
 664 375 l 1,19,-1
 749 375 l 1,20,-1
 701 150 l 1,21,-1
 763 150 l 1,22,-1
 749 82 l 1,23,-1
 687 82 l 1,24,-1
 669 0 l 1,25,-1
 589 0 l 1,26,-1
 606 82 l 1,16,-1
EndSplineSet
Ligature2: "'frac' Diagonal Fractions in Latin lookup 7 subtable" one slash four
EndChar
StartChar: onehalf
Encoding: 189 189 250
Width: 855
GlyphClass: 3
Flags: W
LayerCount: 2
Fore
SplineSet
665 668 m 1,0,-1
 775 668 l 1,1,-1
 173 0 l 1,2,-1
 63 0 l 1,3,-1
 665 668 l 1,0,-1
202 558 m 1,4,-1
 119 558 l 1,5,-1
 133 621 l 1,6,7
 173 621 173 621 199.5 631 c 128,-1,8
 226 641 226 641 241 668 c 1,9,-1
 306 668 l 1,10,-1
 226 293 l 1,11,-1
 146 293 l 1,12,-1
 202 558 l 1,4,-1
509 85 m 2,13,14
 598 139 598 139 658.5 188 c 128,-1,15
 719 237 719 237 719 280 c 0,16,17
 719 300 719 300 706 311.5 c 128,-1,18
 693 323 693 323 671 323 c 0,19,20
 647 323 647 323 630.5 308.5 c 128,-1,21
 614 294 614 294 605 269 c 1,22,-1
 531 294 l 1,23,24
 548 333 548 333 585.5 357.5 c 128,-1,25
 623 382 623 382 673 382 c 0,26,27
 726 382 726 382 764.5 356.5 c 128,-1,28
 803 331 803 331 803 286 c 256,29,30
 803 241 803 241 771 201.5 c 128,-1,31
 739 162 739 162 699 134.5 c 128,-1,32
 659 107 659 107 594 69 c 1,33,-1
 762 69 l 1,34,-1
 747 0 l 1,35,-1
 463 0 l 1,36,-1
 476 64 l 1,37,-1
 509 85 l 2,13,14
EndSplineSet
Ligature2: "'frac' Diagonal Fractions in Latin lookup 7 subtable" one slash two
EndChar
StartChar: threequarters
Encoding: 190 190 252
Width: 912
GlyphClass: 3
Flags: W
LayerCount: 2
Fore
SplineSet
741 668 m 1,0,-1
 851 668 l 1,1,-1
 248 0 l 1,2,-1
 137 0 l 1,3,-1
 741 668 l 1,0,-1
137 312 m 128,-1,5
 100 334 100 334 88 380 c 1,6,-1
 161 400 l 1,7,8
 165 375 165 375 182 362.5 c 128,-1,9
 199 350 199 350 225 350 c 0,10,11
 256 350 256 350 274.5 367.5 c 128,-1,12
 293 385 293 385 293 411 c 0,13,14
 293 462 293 462 202 458 c 1,15,-1
 216 522 l 1,16,-1
 235 521 l 1,17,18
 320 521 320 521 320 577 c 0,19,20
 320 597 320 597 305 608 c 128,-1,21
 290 619 290 619 267 619 c 256,22,23
 244 619 244 619 226 607 c 128,-1,24
 208 595 208 595 198 573 c 1,25,-1
 127 598 l 1,26,27
 146 637 146 637 182.5 658 c 128,-1,28
 219 679 219 679 268 679 c 0,29,30
 322 679 322 679 361.5 654 c 128,-1,31
 401 629 401 629 401 584 c 0,32,33
 401 551 401 551 382.5 524.5 c 128,-1,34
 364 498 364 498 332 486 c 1,35,36
 353 475 353 475 364 455.5 c 128,-1,37
 375 436 375 436 375 411 c 0,38,39
 375 356 375 356 331 323 c 128,-1,40
 287 290 287 290 224 290 c 0,41,4
 174 290 174 290 137 312 c 128,-1,5
681 82 m 1,42,-1
 498 82 l 1,43,-1
 511 144 l 1,44,-1
 739 375 l 1,45,-1
 824 375 l 1,46,-1
 776 150 l 1,47,-1
 838 150 l 1,48,-1
 824 82 l 1,49,-1
 761 82 l 1,50,-1
 744 0 l 1,51,-1
 664 0 l 1,52,-1
 681 82 l 1,42,-1
695 150 m 1,53,-1
 722 273 l 1,54,-1
 601 150 l 1,55,-1
 695 150 l 1,53,-1
EndSplineSet
Ligature2: "'frac' Diagonal Fractions in Latin lookup 7 subtable" three slash four
EndChar
StartChar: questiondown
Encoding: 191 191 266
Width: 494
GlyphClass: 1
Flags: W
LayerCount: 2
Fore
SplineSet
80 -164 m 128,-1,1
 29 -145 29 -145 -2 -108.5 c 128,-1,2
 -33 -72 -33 -72 -33 -23 c 0,3,4
 -33 46 -33 46 8.5 90.5 c 128,-1,5
 50 135 50 135 134 176 c 0,6,7
 189 201 189 201 209 220 c 128,-1,8
 229 239 229 239 235 268 c 2,9,-1
 240 292 l 1,10,-1
 352 292 l 1,11,-1
 347 269 l 2,12,13
 332 206 332 206 301 167.5 c 128,-1,14
 270 129 270 129 203 103 c 0,15,16
 142 78 142 78 111.5 51 c 128,-1,17
 81 24 81 24 81 -14 c 0,18,19
 81 -50 81 -50 112.5 -71.5 c 128,-1,20
 144 -93 144 -93 192 -93 c 0,21,22
 241 -93 241 -93 278.5 -67.5 c 128,-1,23
 316 -42 316 -42 334 3 c 1,24,-1
 434 -32 l 1,25,26
 410 -105 410 -105 341.5 -144 c 128,-1,27
 273 -183 273 -183 189 -183 c 0,28,0
 131 -183 131 -183 80 -164 c 128,-1,1
271.5 378.5 m 128,-1,30
 249 401 249 401 249 433 c 256,31,32
 249 465 249 465 271.5 487.5 c 128,-1,33
 294 510 294 510 326 510 c 256,34,35
 358 510 358 510 380.5 487.5 c 128,-1,36
 403 465 403 465 403 433 c 256,37,38
 403 401 403 401 380.5 378.5 c 128,-1,39
 358 356 358 356 326 356 c 256,40,29
 294 356 294 356 271.5 378.5 c 128,-1,30
EndSplineSet
EndChar
StartChar: Aring
Encoding: 197 197 10
Width: 650
GlyphClass: 2
Flags: W
AnchorPoint: "Anchor-2" 591 10 basechar 0
AnchorPoint: "Anchor-1" 437 847 basechar 0
AnchorPoint: "Anchor-0" 273 0 basechar 0
LayerCount: 2
Fore
SplineSet
314 685 m 128,-1,1
 305 706 305 706 305 729 c 0,2,3
 305 777 305 777 339.5 812 c 128,-1,4
 374 847 374 847 423 847 c 256,5,6
 472 847 472 847 506 812 c 128,-1,7
 540 777 540 777 540 729 c 0,8,9
 540 698 540 698 525.5 672 c 128,-1,10
 511 646 511 646 485 631 c 1,11,-1
 589 0 l 1,12,-1
 465 0 l 1,13,-1
 447 136 l 1,14,-1
 161 136 l 1,15,-1
 85 0 l 1,16,-1
 -45 0 l 1,17,-1
 338 648 l 1,18,0
 323 664 323 664 314 685 c 128,-1,1
434 235 m 1,19,-1
 391 545 l 1,20,-1
 216 235 l 1,21,-1
 434 235 l 1,19,-1
458.5 694 m 128,-1,23
 473 708 473 708 473 729 c 256,24,25
 473 750 473 750 458.5 764.5 c 128,-1,26
 444 779 444 779 423 779 c 0,27,28
 401 779 401 779 387 764.5 c 128,-1,29
 373 750 373 750 373 729 c 256,30,31
 373 708 373 708 387 694 c 128,-1,32
 401 680 401 680 423 680 c 0,33,22
 444 680 444 680 458.5 694 c 128,-1,23
EndSplineSet
EndChar
StartChar: AE
Encoding: 198 198 12
Width: 926
GlyphClass: 2
Flags: W
AnchorPoint: "Anchor-1" 569 668 basechar 0
AnchorPoint: "Anchor-0" 427 0 basechar 0
LayerCount: 2
Fore
SplineSet
454 668 m 1,0,-1
 978 668 l 1,1,-1
 956 565 l 1,2,-1
 628 565 l 1,3,-1
 592 395 l 1,4,-1
 809 395 l 1,5,-1
 788 292 l 1,6,-1
 570 292 l 1,7,-1
 530 103 l 1,8,-1
 858 103 l 1,9,-1
 836 0 l 1,10,-1
 390 0 l 1,11,-1
 419 136 l 1,12,-1
 185 136 l 1,13,-1
 84 0 l 1,14,-1
 -53 0 l 1,15,-1
 454 668 l 1,0,-1
440 235 m 1,16,-1
 512 574 l 1,17,-1
 259 235 l 1,18,-1
 440 235 l 1,16,-1
EndSplineSet
EndChar
StartChar: Ccedilla
Encoding: 199 199 17
Width: 652
GlyphClass: 2
Flags: W
AnchorPoint: "Anchor-1" 441 668 basechar 0
LayerCount: 2
Fore
SplineSet
215 -158 m 1,1,-1
 237 -120 l 1,2,3
 270 -140 270 -140 300 -140 c 0,4,5
 320 -140 320 -140 333.5 -131 c 128,-1,6
 347 -122 347 -122 347 -106 c 0,7,8
 347 -94 347 -94 335.5 -86.5 c 128,-1,9
 324 -79 324 -79 307 -79 c 0,10,11
 296 -79 296 -79 284 -81 c 0,12,13
 273 -83 273 -83 267 -78.5 c 128,-1,14
 261 -74 261 -74 261 -66 c 0,15,16
 261 -59 261 -59 267 -51 c 2,17,-1
 302 -10 l 1,18,19
 185 1 185 1 119.5 76.5 c 128,-1,20
 54 152 54 152 54 271 c 0,21,22
 54 375 54 375 98.5 469 c 128,-1,23
 143 563 143 563 225.5 621.5 c 128,-1,24
 308 680 308 680 418 680 c 0,25,26
 507 680 507 680 573 640 c 128,-1,27
 639 600 639 600 668 523 c 1,28,-1
 565 488 l 1,29,30
 548 532 548 532 508 557 c 128,-1,31
 468 582 468 582 416 582 c 0,32,33
 338 582 338 582 284 534.5 c 128,-1,34
 230 487 230 487 203.5 416.5 c 128,-1,35
 177 346 177 346 177 278 c 0,36,37
 177 192 177 192 221.5 139 c 128,-1,38
 266 86 266 86 351 86 c 0,39,40
 455 86 455 86 513 176 c 1,41,-1
 616 135 l 1,42,43
 569 62 569 62 501.5 26 c 128,-1,44
 434 -10 434 -10 353 -12 c 1,45,-1
 326 -44 l 1,46,47
 332 -43 332 -43 343 -43 c 0,48,49
 377 -43 377 -43 398 -58.5 c 128,-1,50
 419 -74 419 -74 419 -103 c 0,51,52
 419 -141 419 -141 388.5 -162.5 c 128,-1,53
 358 -184 358 -184 313 -184 c 0,54,0
 262 -184 262 -184 215 -158 c 1,1,-1
EndSplineSet
EndChar
StartChar: Eth
Encoding: 208 208 22
Width: 698
GlyphClass: 1
Flags: W
LayerCount: 2
Fore
SplineSet
101 298 m 1,0,-1
 34 298 l 1,1,-1
 54 396 l 1,2,-1
 121 396 l 1,3,-1
 179 668 l 1,4,-1
 319 668 l 2,5,6
 490 668 490 668 584.5 599 c 128,-1,7
 679 530 679 530 679 396 c 0,8,9
 679 300 679 300 643.5 210 c 128,-1,10
 608 120 608 120 525.5 60 c 128,-1,11
 443 0 443 0 311 0 c 2,12,-1
 37 0 l 1,13,-1
 101 298 l 1,0,-1
454 140.5 m 128,-1,15
 508 182 508 182 533 246.5 c 128,-1,16
 558 311 558 311 558 383 c 0,17,18
 558 570 558 570 319 570 c 2,19,-1
 276 570 l 1,20,-1
 239 396 l 1,21,-1
 409 396 l 1,22,-1
 389 298 l 1,23,-1
 218 298 l 1,24,-1
 176 99 l 1,25,-1
 318 99 l 2,26,14
 400 99 400 99 454 140.5 c 128,-1,15
EndSplineSet
EndChar
StartChar: multiply
Encoding: 215 215 322
Width: 533
GlyphClass: 1
Flags: W
LayerCount: 2
Fore
SplineSet
18 104 m 1,0,-1
 199 254 l 1,1,-1
 80 403 l 1,2,-1
 157 466 l 1,3,-1
 275 314 l 1,4,-1
 458 466 l 1,5,-1
 517 392 l 1,6,-1
 334 242 l 1,7,-1
 452 93 l 1,8,-1
 375 31 l 1,9,-1
 259 180 l 1,10,-1
 79 31 l 1,11,-1
 18 104 l 1,0,-1
EndSplineSet
EndChar
StartChar: Oslash
Encoding: 216 216 68
Width: 728
GlyphClass: 2
Flags: W
AnchorPoint: "Anchor-3" 803 668 basechar 0
AnchorPoint: "Anchor-1" 443 668 basechar 0
AnchorPoint: "Anchor-0" 312 0 basechar 0
LayerCount: 2
Fore
SplineSet
231.5 7.5 m 128,-1,1
 178 27 178 27 139 63 c 1,2,-1
 63 -8 l 1,3,-1
 22 35 l 1,4,-1
 101 109 l 1,5,6
 55 180 55 180 55 277 c 0,7,8
 55 381 55 381 100.5 473.5 c 128,-1,9
 146 566 146 566 229 623 c 128,-1,10
 312 680 312 680 419 680 c 0,11,12
 482 680 482 680 535 660.5 c 128,-1,13
 588 641 588 641 627 603 c 1,14,-1
 703 675 l 1,15,-1
 746 633 l 1,16,-1
 666 557 l 1,17,18
 710 488 710 488 710 391 c 0,19,20
 710 287 710 287 664.5 194.5 c 128,-1,21
 619 102 619 102 536 45 c 128,-1,22
 453 -12 453 -12 346 -12 c 0,23,0
 285 -12 285 -12 231.5 7.5 c 128,-1,1
480 133.5 m 128,-1,25
 534 181 534 181 560.5 251.5 c 128,-1,26
 587 322 587 322 587 389 c 0,27,28
 587 432 587 432 574 471 c 1,29,-1
 222 141 l 1,30,31
 269 86 269 86 349 86 c 0,32,24
 426 86 426 86 480 133.5 c 128,-1,25
192 195 m 1,34,-1
 544 526 l 1,35,36
 521 553 521 553 488.5 567.5 c 128,-1,37
 456 582 456 582 416 582 c 0,38,39
 339 582 339 582 285 534.5 c 128,-1,40
 231 487 231 487 204.5 416.5 c 128,-1,41
 178 346 178 346 178 279 c 0,42,33
 178 232 178 232 192 195 c 1,34,-1
EndSplineSet
EndChar
StartChar: Thorn
Encoding: 222 222 72
Width: 609
GlyphClass: 2
Flags: W
AnchorPoint: "Anchor-1" 391 668 basechar 0
AnchorPoint: "Anchor-0" 249 0 basechar 0
LayerCount: 2
Fore
SplineSet
159 668 m 1,0,-1
 277 668 l 1,1,-1
 251 548 l 1,2,-1
 365 548 l 2,3,4
 475 548 475 548 540.5 500 c 128,-1,5
 606 452 606 452 606 366 c 0,6,7
 606 295 606 295 574 242.5 c 128,-1,8
 542 190 542 190 484.5 161.5 c 128,-1,9
 427 133 427 133 353 133 c 2,10,-1
 163 133 l 1,11,-1
 135 0 l 1,12,-1
 17 0 l 1,13,-1
 159 668 l 1,0,-1
444.5 265.5 m 128,-1,15
 481 297 481 297 481 356 c 0,16,17
 481 400 481 400 448 423.5 c 128,-1,18
 415 447 415 447 357 447 c 2,19,-1
 230 447 l 1,20,-1
 184 234 l 1,21,-1
 343 234 l 2,22,14
 408 234 408 234 444.5 265.5 c 128,-1,15
EndSplineSet
EndChar
StartChar: germandbls
Encoding: 223 223 193
Width: 602
GlyphClass: 1
Flags: W
LayerCount: 2
Fore
SplineSet
299 82 m 0,1,2
 369 82 369 82 411 120.5 c 128,-1,3
 453 159 453 159 453 222 c 0,4,5
 453 280 453 280 405.5 316.5 c 128,-1,6
 358 353 358 353 288 353 c 2,7,-1
 285 353 l 1,8,-1
 303 442 l 1,9,10
 363 441 363 441 404 462.5 c 128,-1,11
 445 484 445 484 445 527 c 0,12,13
 445 560 445 560 418.5 577.5 c 128,-1,14
 392 595 392 595 353 595 c 0,15,16
 304 595 304 595 273 566.5 c 128,-1,17
 242 538 242 538 228 476 c 2,18,-1
 127 0 l 1,19,-1
 17 0 l 1,20,-1
 122 491 l 2,21,22
 163 680 163 680 344 680 c 0,23,24
 427 680 427 680 483.5 643 c 128,-1,25
 540 606 540 606 540 535 c 0,26,27
 540 490 540 490 513.5 453 c 128,-1,28
 487 416 487 416 440 396 c 1,29,30
 497 376 497 376 530.5 330 c 128,-1,31
 564 284 564 284 564 224 c 0,32,33
 564 153 564 153 530 99.5 c 128,-1,34
 496 46 496 46 437.5 17 c 128,-1,35
 379 -12 379 -12 305 -12 c 0,36,37
 272 -12 272 -12 230 -4 c 1,38,-1
 222 97 l 1,39,0
 256 82 256 82 299 82 c 0,1,2
EndSplineSet
EndChar
StartChar: ae
Encoding: 230 230 122
Width: 864
GlyphClass: 2
Flags: W
AnchorPoint: "Anchor-1" 486 496 basechar 0
AnchorPoint: "Anchor-0" 380 0 basechar 0
LayerCount: 2
Fore
SplineSet
50 21.5 m 128,-1,1
 3 55 3 55 3 116 c 0,2,3
 3 209 3 209 88 252.5 c 128,-1,4
 173 296 173 296 343 296 c 2,5,-1
 374 296 l 1,6,-1
 378 313 l 2,7,8
 381 331 381 331 381 345 c 0,9,10
 381 385 381 385 357 405.5 c 128,-1,11
 333 426 333 426 288 426 c 0,12,13
 249 426 249 426 219 409.5 c 128,-1,14
 189 393 189 393 177 358 c 1,15,-1
 79 390 l 1,16,17
 109 449 109 449 166 477.5 c 128,-1,18
 223 506 223 506 289 506 c 0,19,20
 349 506 349 506 391 487.5 c 128,-1,21
 433 469 433 469 453 432 c 1,22,23
 488 467 488 467 533.5 486.5 c 128,-1,24
 579 506 579 506 631 506 c 0,25,26
 695 506 695 506 742 478.5 c 128,-1,27
 789 451 789 451 814 402.5 c 128,-1,28
 839 354 839 354 839 292 c 0,29,30
 839 252 839 252 831 219 c 1,31,-1
 458 219 l 1,32,33
 454 149 454 149 489.5 114 c 128,-1,34
 525 79 525 79 583 79 c 0,35,36
 661 79 661 79 694 125 c 1,37,-1
 789 86 l 1,38,39
 747 36 747 36 693 12 c 128,-1,40
 639 -12 639 -12 578 -12 c 0,41,42
 509 -12 509 -12 459 17 c 128,-1,43
 409 46 409 46 384 99 c 1,44,45
 351 47 351 47 295.5 17.5 c 128,-1,46
 240 -12 240 -12 169 -12 c 0,47,0
 97 -12 97 -12 50 21.5 c 128,-1,1
297.5 101 m 128,-1,49
 339 133 339 133 354 202 c 2,50,-1
 358 221 l 1,51,-1
 326 221 l 2,52,53
 217 221 217 221 168 198.5 c 128,-1,54
 119 176 119 176 119 132 c 0,55,56
 119 102 119 102 143 85.5 c 128,-1,57
 167 69 167 69 203 69 c 0,58,48
 256 69 256 69 297.5 101 c 128,-1,49
713 385.5 m 128,-1,60
 681 419 681 419 623 419 c 256,61,62
 565 419 565 419 528 384 c 128,-1,63
 491 349 491 349 472 295 c 1,64,-1
 742 295 l 1,65,59
 745 352 745 352 713 385.5 c 128,-1,60
EndSplineSet
EndChar
StartChar: ccedilla
Encoding: 231 231 127
Width: 497
GlyphClass: 2
Flags: W
AnchorPoint: "Anchor-1" 322 496 basechar 0
LayerCount: 2
Fore
SplineSet
103 -158 m 1,1,-1
 126 -120 l 1,2,3
 157 -140 157 -140 188 -140 c 0,4,5
 208 -140 208 -140 221.5 -131 c 128,-1,6
 235 -122 235 -122 235 -106 c 0,7,8
 235 -94 235 -94 223.5 -86.5 c 128,-1,9
 212 -79 212 -79 195 -79 c 0,10,11
 185 -79 185 -79 173 -81 c 0,12,13
 162 -83 162 -83 156 -78.5 c 128,-1,14
 150 -74 150 -74 150 -66 c 0,15,16
 150 -57 150 -57 156 -51 c 2,17,-1
 193 -7 l 1,18,19
 115 7 115 7 72.5 62.5 c 128,-1,20
 30 118 30 118 30 200 c 0,21,22
 30 280 30 280 64.5 350.5 c 128,-1,23
 99 421 99 421 161 463.5 c 128,-1,24
 223 506 223 506 303 506 c 0,25,26
 374 506 374 506 425.5 473.5 c 128,-1,27
 477 441 477 441 498 383 c 1,28,-1
 402 351 l 1,29,30
 392 383 392 383 366 399.5 c 128,-1,31
 340 416 340 416 303 416 c 0,32,33
 249 416 249 416 212.5 381.5 c 128,-1,34
 176 347 176 347 159 298 c 128,-1,35
 142 249 142 249 142 204 c 0,36,37
 142 146 142 146 170.5 112.5 c 128,-1,38
 199 79 199 79 255 79 c 0,39,40
 331 79 331 79 364 136 c 1,41,-1
 458 97 l 1,42,43
 419 43 419 43 366.5 15.5 c 128,-1,44
 314 -12 314 -12 242 -12 c 1,45,-1
 214 -44 l 1,46,-1
 232 -43 l 2,47,48
 266 -43 266 -43 287 -58.5 c 128,-1,49
 308 -74 308 -74 308 -103 c 0,50,51
 308 -141 308 -141 277.5 -162.5 c 128,-1,52
 247 -184 247 -184 202 -184 c 0,53,0
 150 -184 150 -184 103 -158 c 1,1,-1
EndSplineSet
EndChar
StartChar: eth
Encoding: 240 240 132
Width: 576
GlyphClass: 2
Flags: W
AnchorPoint: "Anchor-1" 402 796 basechar 0
AnchorPoint: "Anchor-0" 233 0 basechar 0
LayerCount: 2
Fore
SplineSet
132 13.5 m 128,-1,1
 82 39 82 39 54.5 84.5 c 128,-1,2
 27 130 27 130 27 189 c 0,3,4
 27 258 27 258 60 317.5 c 128,-1,5
 93 377 93 377 150.5 412.5 c 128,-1,6
 208 448 208 448 278 448 c 0,7,8
 333 448 333 448 376 422.5 c 128,-1,9
 419 397 419 397 440 352 c 1,10,11
 446 404 446 404 446 429 c 0,12,13
 446 513 446 513 411 561 c 1,14,-1
 326 499 l 1,15,-1
 290 544 l 1,16,-1
 368 600 l 1,17,18
 347 614 347 614 315 624.5 c 128,-1,19
 283 635 283 635 248 639 c 1,20,-1
 266 728 l 1,21,22
 382 714 382 714 450 662 c 1,23,-1
 521 714 l 1,24,-1
 557 669 l 1,25,-1
 491 621 l 1,26,27
 517 588 517 588 532.5 533.5 c 128,-1,28
 548 479 548 479 548 411 c 0,29,30
 548 309 548 309 517 212 c 128,-1,31
 486 115 486 115 418.5 51.5 c 128,-1,32
 351 -12 351 -12 249 -12 c 0,33,0
 182 -12 182 -12 132 13.5 c 128,-1,1
333.5 98.5 m 128,-1,35
 368 122 368 122 386.5 161 c 128,-1,36
 405 200 405 200 405 243 c 0,37,38
 405 295 405 295 372.5 327 c 128,-1,39
 340 359 340 359 287 359 c 0,40,41
 241 359 241 359 206.5 333.5 c 128,-1,42
 172 308 172 308 154.5 269 c 128,-1,43
 137 230 137 230 137 189 c 0,44,45
 137 136 137 136 168.5 105.5 c 128,-1,46
 200 75 200 75 253 75 c 0,47,34
 299 75 299 75 333.5 98.5 c 128,-1,35
EndSplineSet
EndChar
StartChar: divide
Encoding: 247 247 323
Width: 601
GlyphClass: 1
Flags: W
LayerCount: 2
Fore
SplineSet
60 297 m 1,0,-1
 562 297 l 1,1,-1
 541 199 l 1,2,-1
 39 199 l 1,3,-1
 60 297 l 1,0,-1
212.5 24.5 m 128,-1,5
 192 45 192 45 192 75 c 0,6,7
 192 104 192 104 213 124.5 c 128,-1,8
 234 145 234 145 262 145 c 0,9,10
 291 145 291 145 311.5 124.5 c 128,-1,11
 332 104 332 104 332 75 c 0,12,13
 332 45 332 45 311.5 24.5 c 128,-1,14
 291 4 291 4 262 4 c 256,15,4
 233 4 233 4 212.5 24.5 c 128,-1,5
286.5 372.5 m 128,-1,17
 266 393 266 393 266 422 c 256,18,19
 266 451 266 451 286.5 471.5 c 128,-1,20
 307 492 307 492 336 492 c 256,21,22
 365 492 365 492 386 471.5 c 128,-1,23
 407 451 407 451 407 422 c 256,24,25
 407 393 407 393 386 372.5 c 128,-1,26
 365 352 365 352 336 352 c 256,27,16
 307 352 307 352 286.5 372.5 c 128,-1,17
EndSplineSet
EndChar
StartChar: oslash
Encoding: 248 248 179
Width: 560
GlyphClass: 2
Flags: W
AnchorPoint: "Anchor-3" 592 496 basechar 0
AnchorPoint: "Anchor-1" 328 496 basechar 0
AnchorPoint: "Anchor-0" 227 0 basechar 0
LayerCount: 2
Fore
SplineSet
101 40 m 1,1,-1
 42 -16 l 1,2,-1
 1 26 l 1,3,-1
 63 84 l 1,4,5
 32 137 32 137 32 206 c 0,6,7
 32 285 32 285 66.5 354 c 128,-1,8
 101 423 101 423 164.5 464.5 c 128,-1,9
 228 506 228 506 311 506 c 0,10,11
 400 506 400 506 459 455 c 1,12,-1
 519 512 l 1,13,-1
 560 470 l 1,14,-1
 497 411 l 1,15,16
 528 358 528 358 528 289 c 0,17,18
 528 210 528 210 493.5 141 c 128,-1,19
 459 72 459 72 395.5 30 c 128,-1,20
 332 -12 332 -12 250 -12 c 0,21,0
 159 -12 159 -12 101 40 c 1,1,-1
345.5 112.5 m 128,-1,23
 382 146 382 146 399.5 194.5 c 128,-1,24
 417 243 417 243 417 288 c 0,25,26
 417 312 417 312 411 331 c 1,27,-1
 175 109 l 1,28,29
 203 79 203 79 254 79 c 0,30,22
 309 79 309 79 345.5 112.5 c 128,-1,23
149 165 m 1,32,-1
 384 386 l 1,33,34
 356 416 356 416 306 416 c 0,35,36
 251 416 251 416 214.5 382.5 c 128,-1,37
 178 349 178 349 160.5 300.5 c 128,-1,38
 143 252 143 252 143 206 c 0,39,31
 143 185 143 185 149 165 c 1,32,-1
EndSplineSet
EndChar
StartChar: Aogonek
Encoding: 260 260 9
Width: 650
GlyphClass: 2
Flags: W
AnchorPoint: "Anchor-1" 415 668 basechar 0
AnchorPoint: "Anchor-0" 273 0 basechar 0
LayerCount: 2
Fore
SplineSet
423 -153 m 128,-1,1
 389 -133 389 -133 389 -95 c 0,2,3
 389 -65 389 -65 412 -38 c 128,-1,4
 435 -11 435 -11 465 3 c 1,5,-1
 447 136 l 1,6,-1
 161 136 l 1,7,-1
 85 0 l 1,8,-1
 -45 0 l 1,9,-1
 350 668 l 1,10,-1
 479 668 l 1,11,-1
 589 0 l 1,12,13
 545 -11 545 -11 514 -30.5 c 128,-1,14
 483 -50 483 -50 483 -76 c 0,15,16
 483 -93 483 -93 496.5 -101 c 128,-1,17
 510 -109 510 -109 530 -109 c 256,18,19
 550 -109 550 -109 567 -104 c 1,20,-1
 554 -169 l 1,21,22
 535 -173 535 -173 507 -173 c 0,23,0
 457 -173 457 -173 423 -153 c 128,-1,1
434 235 m 1,24,-1
 391 545 l 1,25,-1
 216 235 l 1,26,-1
 434 235 l 1,24,-1
EndSplineSet
EndChar
StartChar: aogonek
Encoding: 261 261 119
Width: 537
GlyphClass: 2
Flags: W
AnchorPoint: "Anchor-1" 309 496 basechar 0
AnchorPoint: "Anchor-0" 213 0 basechar 0
LayerCount: 2
Fore
SplineSet
269 -153.5 m 128,-1,1
 234 -134 234 -134 234 -97 c 256,2,3
 234 -60 234 -60 262.5 -33 c 128,-1,4
 291 -6 291 -6 335 10 c 1,5,-1
 333 67 l 1,6,7
 266 -12 266 -12 159 -12 c 0,8,9
 94 -12 94 -12 49 22 c 128,-1,10
 4 56 4 56 4 117 c 0,11,12
 4 214 4 214 97 260.5 c 128,-1,13
 190 307 190 307 378 306 c 1,14,-1
 381 317 l 2,15,16
 384 332 384 332 384 346 c 0,17,18
 384 384 384 384 359 405 c 128,-1,19
 334 426 334 426 288 426 c 0,20,21
 249 426 249 426 219 409.5 c 128,-1,22
 189 393 189 393 177 358 c 1,23,-1
 79 390 l 1,24,25
 109 449 109 449 166.5 477.5 c 128,-1,26
 224 506 224 506 292 506 c 0,27,28
 384 506 384 506 435 465.5 c 128,-1,29
 486 425 486 425 486 349 c 0,30,31
 486 328 486 328 479 291 c 2,32,-1
 458 190 l 2,33,34
 433 75 433 75 435 0 c 1,35,36
 392 -10 392 -10 360.5 -29.5 c 128,-1,37
 329 -49 329 -49 329 -74 c 0,38,39
 329 -92 329 -92 343 -100.5 c 128,-1,40
 357 -109 357 -109 377 -109 c 0,41,42
 396 -109 396 -109 413 -104 c 1,43,-1
 399 -169 l 1,44,45
 382 -173 382 -173 353 -173 c 0,46,0
 304 -173 304 -173 269 -153.5 c 128,-1,1
299 101 m 128,-1,48
 341 133 341 133 356 202 c 2,49,-1
 362 233 l 1,50,51
 236 231 236 231 178 208 c 128,-1,52
 120 185 120 185 120 134 c 0,53,54
 120 102 120 102 143.5 85.5 c 128,-1,55
 167 69 167 69 204 69 c 0,56,47
 257 69 257 69 299 101 c 128,-1,48
EndSplineSet
EndChar
StartChar: dcroat
Encoding: 273 273 131
Width: 579
GlyphClass: 1
Flags: W
LayerCount: 2
Fore
SplineSet
115 12.5 m 128,-1,1
 75 37 75 37 52 83 c 128,-1,2
 29 129 29 129 29 192 c 0,3,4
 29 264 29 264 59 336.5 c 128,-1,5
 89 409 89 409 148 457.5 c 128,-1,6
 207 506 207 506 291 506 c 0,7,8
 343 506 343 506 384 481 c 128,-1,9
 425 456 425 456 440 414 c 1,10,-1
 468 547 l 1,11,-1
 320 547 l 1,12,-1
 335 618 l 1,13,-1
 484 618 l 1,14,-1
 503 708 l 1,15,-1
 613 708 l 1,16,-1
 593 618 l 1,17,-1
 679 618 l 1,18,-1
 664 547 l 1,19,-1
 578 547 l 1,20,-1
 502 190 l 2,21,22
 481 85 481 85 479 0 c 1,23,-1
 375 0 l 1,24,-1
 369 67 l 1,25,26
 341 29 341 29 297 8.5 c 128,-1,27
 253 -12 253 -12 206 -12 c 0,28,0
 155 -12 155 -12 115 12.5 c 128,-1,1
340.5 113 m 128,-1,30
 377 149 377 149 395.5 201 c 128,-1,31
 414 253 414 253 414 298 c 0,32,33
 414 355 414 355 386 386 c 128,-1,34
 358 417 358 417 308 417 c 0,35,36
 254 417 254 417 217 382.5 c 128,-1,37
 180 348 180 348 163 298 c 128,-1,38
 146 248 146 248 146 202 c 0,39,40
 146 145 146 145 173.5 111 c 128,-1,41
 201 77 201 77 252 77 c 0,42,29
 304 77 304 77 340.5 113 c 128,-1,30
EndSplineSet
EndChar
StartChar: Eogonek
Encoding: 280 280 31
Width: 582
GlyphClass: 2
Flags: W
AnchorPoint: "Anchor-1" 287 668 basechar 0
AnchorPoint: "Anchor-0" 240 0 basechar 0
LayerCount: 2
Fore
SplineSet
159 668 m 1,0,-1
 631 668 l 1,1,-1
 609 565 l 1,2,-1
 255 565 l 1,3,-1
 219 395 l 1,4,-1
 466 395 l 1,5,-1
 444 292 l 1,6,-1
 197 292 l 1,7,-1
 157 103 l 1,8,-1
 515 103 l 1,9,-1
 493 0 l 1,10,11
 448 -11 448 -11 417.5 -30.5 c 128,-1,12
 387 -50 387 -50 387 -76 c 0,13,14
 387 -93 387 -93 400 -101 c 128,-1,15
 413 -109 413 -109 433 -109 c 0,16,17
 454 -109 454 -109 471 -104 c 1,18,-1
 458 -169 l 1,19,20
 438 -173 438 -173 411 -173 c 0,21,22
 361 -173 361 -173 327 -153 c 128,-1,23
 293 -133 293 -133 293 -95 c 0,24,25
 293 -66 293 -66 313.5 -41 c 128,-1,26
 334 -16 334 -16 367 0 c 1,27,-1
 17 0 l 1,28,-1
 159 668 l 1,0,-1
EndSplineSet
EndChar
StartChar: eogonek
Encoding: 281 281 141
Width: 550
GlyphClass: 2
Flags: W
AnchorPoint: "Anchor-1" 329 496 basechar 0
AnchorPoint: "Anchor-0" 224 0 basechar 0
LayerCount: 2
Fore
SplineSet
254.5 -153 m 128,-1,1
 220 -133 220 -133 220 -94 c 0,2,3
 220 -51 220 -51 264 -12 c 1,4,5
 195 -12 195 -12 142 14.5 c 128,-1,6
 89 41 89 41 60.5 90.5 c 128,-1,7
 32 140 32 140 32 206 c 0,8,9
 32 285 32 285 67.5 354 c 128,-1,10
 103 423 103 423 167 464.5 c 128,-1,11
 231 506 231 506 311 506 c 0,12,13
 375 506 375 506 423.5 478.5 c 128,-1,14
 472 451 472 451 498.5 402 c 128,-1,15
 525 353 525 353 525 291 c 0,16,17
 525 257 525 257 516 219 c 1,18,-1
 137 219 l 1,19,20
 137 148 137 148 174 113.5 c 128,-1,21
 211 79 211 79 268 79 c 0,22,23
 304 79 304 79 332 89 c 128,-1,24
 360 99 360 99 379 125 c 1,25,-1
 474 86 l 1,26,27
 457 65 457 65 435.5 49 c 128,-1,28
 414 33 414 33 384 15 c 0,29,30
 355 -1 355 -1 335 -24 c 128,-1,31
 315 -47 315 -47 315 -71 c 0,32,33
 315 -90 315 -90 328 -99.5 c 128,-1,34
 341 -109 341 -109 363 -109 c 0,35,36
 384 -109 384 -109 399 -104 c 1,37,-1
 384 -169 l 1,38,39
 364 -173 364 -173 340 -173 c 0,40,0
 289 -173 289 -173 254.5 -153 c 128,-1,1
397.5 385 m 128,-1,42
 365 419 365 419 307 419 c 0,43,44
 247 419 247 419 208 384 c 128,-1,45
 169 349 169 349 151 295 c 1,46,-1
 426 295 l 1,47,41
 430 351 430 351 397.5 385 c 128,-1,42
EndSplineSet
EndChar
StartChar: Hbar
Encoding: 294 294 38
Width: 697
GlyphClass: 1
Flags: W
LayerCount: 2
Fore
SplineSet
124 504 m 1,0,-1
 66 504 l 1,1,-1
 83 588 l 1,2,-1
 142 588 l 1,3,-1
 159 668 l 1,4,-1
 277 668 l 1,5,-1
 260 588 l 1,6,-1
 582 588 l 1,7,-1
 599 668 l 1,8,-1
 717 668 l 1,9,-1
 700 588 l 1,10,-1
 758 588 l 1,11,-1
 741 504 l 1,12,-1
 682 504 l 1,13,-1
 575 0 l 1,14,-1
 457 0 l 1,15,-1
 518 292 l 1,16,-1
 197 292 l 1,17,-1
 135 0 l 1,18,-1
 17 0 l 1,19,-1
 124 504 l 1,0,-1
541 395 m 1,20,-1
 564 504 l 1,21,-1
 242 504 l 1,22,-1
 219 395 l 1,23,-1
 541 395 l 1,20,-1
EndSplineSet
EndChar
StartChar: hbar
Encoding: 295 295 148
Width: 560
GlyphClass: 1
Flags: W
LayerCount: 2
Fore
SplineSet
127 547 m 1,0,-1
 41 547 l 1,1,-1
 56 618 l 1,2,-1
 142 618 l 1,3,-1
 161 708 l 1,4,-1
 271 708 l 1,5,-1
 252 618 l 1,6,-1
 400 618 l 1,7,-1
 386 547 l 1,8,-1
 237 547 l 1,9,-1
 211 424 l 1,10,11
 235 460 235 460 277.5 483 c 128,-1,12
 320 506 320 506 373 506 c 0,13,14
 439 506 439 506 477.5 469.5 c 128,-1,15
 516 433 516 433 516 364 c 0,16,17
 516 335 516 335 509 304 c 2,18,-1
 443 0 l 1,19,-1
 334 0 l 1,20,-1
 396 287 l 2,21,22
 401 308 401 308 401 334 c 0,23,24
 401 373 401 373 381.5 395 c 128,-1,25
 362 417 362 417 322 417 c 0,26,27
 266 417 266 417 229.5 377.5 c 128,-1,28
 193 338 193 338 177 262 c 2,29,-1
 121 0 l 1,30,-1
 11 0 l 1,31,-1
 127 547 l 1,0,-1
EndSplineSet
EndChar
StartChar: Iogonek
Encoding: 302 302 47
Width: 407
GlyphClass: 2
Flags: W
AnchorPoint: "Anchor-1" 293 668 basechar 0
AnchorPoint: "Anchor-0" 152 0 basechar 0
LayerCount: 2
Fore
SplineSet
17 87 m 1,0,-1
 111 87 l 1,1,-1
 215 581 l 1,2,-1
 122 581 l 1,3,-1
 140 668 l 1,4,-1
 446 668 l 1,5,-1
 427 581 l 1,6,-1
 333 581 l 1,7,-1
 229 87 l 1,8,-1
 322 87 l 1,9,-1
 304 0 l 1,10,11
 259 -11 259 -11 228.5 -30.5 c 128,-1,12
 198 -50 198 -50 198 -76 c 0,13,14
 198 -93 198 -93 211 -101 c 128,-1,15
 224 -109 224 -109 244 -109 c 0,16,17
 265 -109 265 -109 282 -104 c 1,18,-1
 269 -169 l 1,19,20
 249 -173 249 -173 222 -173 c 0,21,22
 172 -173 172 -173 138 -153 c 128,-1,23
 104 -133 104 -133 104 -95 c 0,24,25
 104 -66 104 -66 124.5 -41 c 128,-1,26
 145 -16 145 -16 178 0 c 1,27,-1
 -2 0 l 1,28,-1
 17 87 l 1,0,-1
EndSplineSet
EndChar
StartChar: iogonek
Encoding: 303 303 156
Width: 274
GlyphClass: 2
Flags: W
AnchorPoint: "Anchor-1" 244 731 basechar 0
AnchorPoint: "Anchor-0" 71 0 basechar 0
LayerCount: 2
Fore
SplineSet
177.5 607 m 128,-1,1
 156 628 156 628 156 658 c 256,2,3
 156 688 156 688 177.5 709.5 c 128,-1,4
 199 731 199 731 229 731 c 256,5,6
 259 731 259 731 280 709.5 c 128,-1,7
 301 688 301 688 301 658 c 256,8,9
 301 628 301 628 280 607 c 128,-1,10
 259 586 259 586 229 586 c 256,11,0
 199 586 199 586 177.5 607 c 128,-1,1
-12 -153.5 m 128,-1,13
 -47 -134 -47 -134 -47 -97 c 0,14,15
 -47 -62 -47 -62 -21.5 -35.5 c 128,-1,16
 4 -9 4 -9 46 8 c 1,17,-1
 132 411 l 1,18,-1
 57 411 l 1,19,-1
 76 496 l 1,20,-1
 260 496 l 1,21,-1
 154 0 l 1,22,23
 111 -10 111 -10 79 -29.5 c 128,-1,24
 47 -49 47 -49 47 -74 c 0,25,26
 47 -92 47 -92 61 -100.5 c 128,-1,27
 75 -109 75 -109 95 -109 c 0,28,29
 114 -109 114 -109 132 -104 c 1,30,-1
 118 -169 l 1,31,32
 99 -173 99 -173 71 -173 c 0,33,12
 23 -173 23 -173 -12 -153.5 c 128,-1,13
EndSplineSet
EndChar
StartChar: dotlessi
Encoding: 305 305 150
Width: 274
GlyphClass: 2
Flags: W
AnchorPoint: "Anchor-2" 156 10 basechar 0
AnchorPoint: "Anchor-1" 195 496 basechar 0
AnchorPoint: "Anchor-0" 71 0 basechar 0
LayerCount: 2
Fore
SplineSet
132 411 m 1,0,-1
 57 411 l 1,1,-1
 76 496 l 1,2,-1
 260 496 l 1,3,-1
 154 0 l 1,4,-1
 44 0 l 1,5,-1
 132 411 l 1,0,-1
EndSplineSet
EndChar
StartChar: Lslash
Encoding: 321 321 55
Width: 576
GlyphClass: 1
Flags: W
LayerCount: 2
Fore
SplineSet
97 238 m 1,0,-1
 -4 185 l 1,1,-1
 17 284 l 1,2,-1
 118 336 l 1,3,-1
 189 668 l 1,4,-1
 307 668 l 1,5,-1
 251 406 l 1,6,-1
 447 508 l 1,7,-1
 426 409 l 1,8,-1
 230 307 l 1,9,-1
 187 103 l 1,10,-1
 531 103 l 1,11,-1
 509 0 l 1,12,-1
 47 0 l 1,13,-1
 97 238 l 1,0,-1
EndSplineSet
EndChar
StartChar: lslash
Encoding: 322 322 166
Width: 320
GlyphClass: 1
Flags: W
LayerCount: 2
Fore
SplineSet
81.5 19.5 m 128,-1,1
 50 39 50 39 50 84 c 0,2,3
 50 105 50 105 56 133 c 2,4,-1
 84 262 l 1,5,-1
 23 231 l 1,6,-1
 42 323 l 1,7,-1
 103 354 l 1,8,-1
 179 708 l 1,9,-1
 288 708 l 1,10,-1
 226 415 l 1,11,-1
 328 466 l 1,12,-1
 308 374 l 1,13,-1
 206 323 l 1,14,-1
 169 152 l 2,15,16
 166 137 166 137 166 128 c 0,17,18
 166 108 166 108 179 100.5 c 128,-1,19
 192 93 192 93 223 93 c 2,20,-1
 254 93 l 1,21,-1
 235 0 l 1,22,-1
 190 0 l 2,23,0
 113 0 113 0 81.5 19.5 c 128,-1,1
EndSplineSet
EndChar
StartChar: OE
Encoding: 338 338 70
Width: 1014
GlyphClass: 2
Flags: W
AnchorPoint: "Anchor-1" 604 668 basechar 0
AnchorPoint: "Anchor-0" 462 0 basechar 0
LayerCount: 2
Fore
SplineSet
176 23.5 m 128,-1,1
 117 59 117 59 85.5 123 c 128,-1,2
 54 187 54 187 54 269 c 0,3,4
 54 371 54 371 97 465.5 c 128,-1,5
 140 560 140 560 221.5 620 c 128,-1,6
 303 680 303 680 413 680 c 0,7,8
 548 680 548 680 606 588 c 1,9,-1
 623 668 l 1,10,-1
 1063 668 l 1,11,-1
 1041 565 l 1,12,-1
 713 565 l 1,13,-1
 677 395 l 1,14,-1
 898 395 l 1,15,-1
 876 292 l 1,16,-1
 654 292 l 1,17,-1
 615 103 l 1,18,-1
 946 103 l 1,19,-1
 925 0 l 1,20,-1
 481 0 l 1,21,-1
 492 50 l 1,22,23
 415 -12 415 -12 315 -12 c 0,24,0
 235 -12 235 -12 176 23.5 c 128,-1,1
460 138 m 128,-1,26
 510 190 510 190 534.5 264.5 c 128,-1,27
 559 339 559 339 559 404 c 0,28,29
 559 485 559 485 520.5 533.5 c 128,-1,30
 482 582 482 582 405 582 c 0,31,32
 329 582 329 582 277 532 c 128,-1,33
 225 482 225 482 200.5 409.5 c 128,-1,34
 176 337 176 337 176 270 c 0,35,36
 176 186 176 186 218 136 c 128,-1,37
 260 86 260 86 337 86 c 0,38,25
 410 86 410 86 460 138 c 128,-1,26
EndSplineSet
EndChar
StartChar: oe
Encoding: 339 339 181
Width: 928
GlyphClass: 2
Flags: W
AnchorPoint: "Anchor-1" 574 496 basechar 0
AnchorPoint: "Anchor-0" 469 0 basechar 0
LayerCount: 2
Fore
SplineSet
522 14 m 128,-1,1
 473 40 473 40 447 85 c 1,2,3
 411 39 411 39 359.5 13.5 c 128,-1,4
 308 -12 308 -12 246 -12 c 0,5,6
 183 -12 183 -12 134 15 c 128,-1,7
 85 42 85 42 58 91.5 c 128,-1,8
 31 141 31 141 31 205 c 0,9,10
 31 282 31 282 65 351.5 c 128,-1,11
 99 421 99 421 161.5 463.5 c 128,-1,12
 224 506 224 506 306 506 c 0,13,14
 367 506 367 506 413.5 481.5 c 128,-1,15
 460 457 460 457 487 412 c 1,16,17
 525 456 525 456 577 481 c 128,-1,18
 629 506 629 506 690 506 c 0,19,20
 754 506 754 506 802.5 479 c 128,-1,21
 851 452 851 452 877 403.5 c 128,-1,22
 903 355 903 355 903 293 c 0,23,24
 903 258 903 258 894 219 c 1,25,-1
 517 219 l 1,26,27
 515 157 515 157 548 118 c 128,-1,28
 581 79 581 79 646 79 c 0,29,30
 682 79 682 79 710.5 89 c 128,-1,31
 739 99 739 99 758 125 c 1,32,-1
 853 86 l 1,33,34
 769 -12 769 -12 639 -12 c 0,35,0
 571 -12 571 -12 522 14 c 128,-1,1
345 109.5 m 128,-1,37
 382 144 382 144 399.5 194.5 c 128,-1,38
 417 245 417 245 417 291 c 0,39,40
 417 348 417 348 389.5 382 c 128,-1,41
 362 416 362 416 307 416 c 256,42,43
 252 416 252 416 215 382.5 c 128,-1,44
 178 349 178 349 160.5 300.5 c 128,-1,45
 143 252 143 252 143 206 c 0,46,47
 143 148 143 148 171 111.5 c 128,-1,48
 199 75 199 75 254 75 c 0,49,36
 308 75 308 75 345 109.5 c 128,-1,37
776.5 385.5 m 128,-1,51
 744 419 744 419 686 419 c 0,52,53
 627 419 627 419 588 384.5 c 128,-1,54
 549 350 549 350 531 295 c 1,55,-1
 805 295 l 1,56,50
 809 352 809 352 776.5 385.5 c 128,-1,51
EndSplineSet
EndChar
StartChar: Scedilla
Encoding: 350 350 80
Width: 600
GlyphClass: 2
Flags: W
AnchorPoint: "Anchor-1" 385 668 basechar 0
LayerCount: 2
Fore
SplineSet
156 -158 m 1,1,-1
 178 -120 l 1,2,3
 211 -140 211 -140 241 -140 c 0,4,5
 261 -140 261 -140 274.5 -131 c 128,-1,6
 288 -122 288 -122 288 -106 c 0,7,8
 288 -94 288 -94 276.5 -86.5 c 128,-1,9
 265 -79 265 -79 248 -79 c 0,10,11
 237 -79 237 -79 225 -81 c 0,12,13
 214 -83 214 -83 208 -78.5 c 128,-1,14
 202 -74 202 -74 202 -66 c 0,15,16
 202 -59 202 -59 208 -51 c 2,17,-1
 243 -10 l 1,18,19
 160 -2 160 -2 100 40.5 c 128,-1,20
 40 83 40 83 22 155 c 1,21,-1
 131 191 l 1,22,23
 140 140 140 140 186.5 112.5 c 128,-1,24
 233 85 233 85 295 85 c 0,25,26
 356 85 356 85 397.5 112.5 c 128,-1,27
 439 140 439 140 439 191 c 0,28,29
 439 221 439 221 413.5 242.5 c 128,-1,30
 388 264 388 264 329 284 c 2,31,-1
 248 312 l 2,32,33
 181 335 181 335 139.5 376 c 128,-1,34
 98 417 98 417 98 476 c 0,35,36
 98 538 98 538 135 584.5 c 128,-1,37
 172 631 172 631 232.5 655.5 c 128,-1,38
 293 680 293 680 362 680 c 0,39,40
 446 680 446 680 510 645 c 128,-1,41
 574 610 574 610 598 542 c 1,42,-1
 491 505 l 1,43,44
 477 543 477 543 436 563 c 128,-1,45
 395 583 395 583 345 583 c 0,46,47
 291 583 291 583 253 559 c 128,-1,48
 215 535 215 535 215 491 c 0,49,50
 215 440 215 440 295 412 c 2,51,-1
 382 383 l 2,52,53
 464 353 464 353 511 314 c 128,-1,54
 558 275 558 275 558 209 c 0,55,56
 558 145 558 145 522.5 95.5 c 128,-1,57
 487 46 487 46 426.5 18.5 c 128,-1,58
 366 -9 366 -9 294 -12 c 1,59,-1
 267 -44 l 1,60,-1
 284 -43 l 2,61,62
 318 -43 318 -43 339 -58.5 c 128,-1,63
 360 -74 360 -74 360 -103 c 0,64,65
 360 -141 360 -141 329.5 -162.5 c 128,-1,66
 299 -184 299 -184 254 -184 c 0,67,0
 203 -184 203 -184 156 -158 c 1,1,-1
EndSplineSet
Substitution2: "'locl' Localized Forms in Latin lookup 4 subtable" uni0218
AlternateSubs2: "'aalt' Access All Alternates in Latin lookup 0 subtable" uni0218
EndChar
StartChar: scedilla
Encoding: 351 351 191
Width: 488
GlyphClass: 2
Flags: W
AnchorPoint: "Anchor-1" 290 496 basechar 0
LayerCount: 2
Fore
SplineSet
87 -158 m 1,1,-1
 110 -120 l 1,2,3
 141 -140 141 -140 172 -140 c 0,4,5
 192 -140 192 -140 205.5 -131 c 128,-1,6
 219 -122 219 -122 219 -106 c 0,7,8
 219 -94 219 -94 207.5 -86.5 c 128,-1,9
 196 -79 196 -79 179 -79 c 0,10,11
 169 -79 169 -79 157 -81 c 0,12,13
 146 -83 146 -83 139.5 -78.5 c 128,-1,14
 133 -74 133 -74 133 -67 c 256,15,16
 133 -60 133 -60 140 -51 c 2,17,-1
 176 -8 l 1,18,19
 115 3 115 3 68.5 34.5 c 128,-1,20
 22 66 22 66 6 117 c 1,21,-1
 105 151 l 1,22,23
 113 113 113 113 148.5 93 c 128,-1,24
 184 73 184 73 231 73 c 0,25,26
 273 73 273 73 304 90.5 c 128,-1,27
 335 108 335 108 335 140 c 0,28,29
 335 162 335 162 315 177.5 c 128,-1,30
 295 193 295 193 252 207 c 2,31,-1
 189 226 l 2,32,33
 65 267 65 267 65 354 c 0,34,35
 65 403 65 403 94 438 c 128,-1,36
 123 473 123 473 170.5 490.5 c 128,-1,37
 218 508 218 508 273 508 c 0,38,39
 342 508 342 508 396.5 480 c 128,-1,40
 451 452 451 452 470 398 c 1,41,-1
 373 363 l 1,42,43
 364 394 364 394 334 408 c 128,-1,44
 304 422 304 422 265 422 c 0,45,46
 227 422 227 422 199 408.5 c 128,-1,47
 171 395 171 395 171 366 c 0,48,49
 171 346 171 346 187 332.5 c 128,-1,50
 203 319 203 319 237 307 c 2,51,-1
 300 288 l 2,52,53
 372 264 372 264 406.5 233.5 c 128,-1,54
 441 203 441 203 441 157 c 0,55,56
 441 109 441 109 415 70.5 c 128,-1,57
 389 32 389 32 340 10 c 128,-1,58
 291 -12 291 -12 225 -12 c 1,59,-1
 198 -44 l 1,60,-1
 215 -43 l 2,61,62
 249 -43 249 -43 270.5 -58.5 c 128,-1,63
 292 -74 292 -74 292 -103 c 0,64,65
 292 -141 292 -141 261 -162.5 c 128,-1,66
 230 -184 230 -184 186 -184 c 0,67,0
 134 -184 134 -184 87 -158 c 1,1,-1
EndSplineSet
Substitution2: "'locl' Localized Forms in Latin lookup 4 subtable" uni0219
AlternateSubs2: "'aalt' Access All Alternates in Latin lookup 0 subtable" uni0219
EndChar
StartChar: uni0162
Encoding: 354 354 85
Width: 581
GlyphClass: 2
Flags: W
AnchorPoint: "Anchor-1" 380 668 basechar 0
LayerCount: 2
Fore
SplineSet
299 565 m 1,0,-1
 79 565 l 1,1,-1
 101 668 l 1,2,-1
 658 668 l 1,3,-1
 636 565 l 1,4,-1
 417 565 l 1,5,-1
 297 0 l 1,6,-1
 265 0 l 1,7,-1
 227 -44 l 1,8,-1
 244 -43 l 2,9,10
 278 -43 278 -43 299.5 -58.5 c 128,-1,11
 321 -74 321 -74 321 -103 c 0,12,13
 321 -141 321 -141 290 -162.5 c 128,-1,14
 259 -184 259 -184 214 -184 c 0,15,16
 163 -184 163 -184 116 -158 c 1,17,-1
 138 -120 l 1,18,19
 171 -140 171 -140 201 -140 c 0,20,21
 221 -140 221 -140 234.5 -131 c 128,-1,22
 248 -122 248 -122 248 -106 c 0,23,24
 248 -94 248 -94 236.5 -86.5 c 128,-1,25
 225 -79 225 -79 208 -79 c 0,26,27
 198 -79 198 -79 186 -81 c 0,28,29
 175 -83 175 -83 168.5 -78.5 c 128,-1,30
 162 -74 162 -74 162 -67 c 256,31,32
 162 -60 162 -60 169 -51 c 2,33,-1
 212 0 l 1,34,-1
 179 0 l 1,35,-1
 299 565 l 1,0,-1
EndSplineSet
Substitution2: "'locl' Localized Forms in Latin lookup 4 subtable" uni021A
AlternateSubs2: "'aalt' Access All Alternates in Latin lookup 0 subtable" uni021A
EndChar
StartChar: uni0163
Encoding: 355 355 196
Width: 349
GlyphClass: 2
Flags: W
AnchorPoint: "Anchor-3" 298 548 basechar 0
AnchorPoint: "Anchor-1" 225 496 basechar 0
LayerCount: 2
Fore
SplineSet
32 -158 m 1,1,-1
 54 -120 l 1,2,3
 85 -140 85 -140 116 -140 c 0,4,5
 136 -140 136 -140 149.5 -131 c 128,-1,6
 163 -122 163 -122 163 -106 c 0,7,8
 163 -94 163 -94 151.5 -86.5 c 128,-1,9
 140 -79 140 -79 124 -79 c 0,10,11
 113 -79 113 -79 101 -81 c 0,12,13
 90 -83 90 -83 84 -78.5 c 128,-1,14
 78 -74 78 -74 78 -66 c 0,15,16
 78 -57 78 -57 84 -51 c 2,17,-1
 134 9 l 1,18,19
 100 17 100 17 84.5 36.5 c 128,-1,20
 69 56 69 56 69 89 c 0,21,22
 69 107 69 107 76 144 c 2,23,-1
 134 411 l 1,24,-1
 51 411 l 1,25,-1
 69 496 l 1,26,-1
 153 496 l 1,27,-1
 179 620 l 1,28,-1
 288 620 l 1,29,-1
 262 496 l 1,30,-1
 367 496 l 1,31,-1
 348 411 l 1,32,-1
 243 411 l 1,33,-1
 189 160 l 2,34,35
 186 144 186 144 186 132 c 0,36,37
 186 110 186 110 200 101.5 c 128,-1,38
 214 93 214 93 251 93 c 2,39,-1
 281 93 l 1,40,-1
 261 0 l 1,41,-1
 225 0 l 2,42,43
 194 0 194 0 181 1 c 1,44,-1
 142 -44 l 1,45,-1
 160 -43 l 2,46,47
 194 -43 194 -43 215 -58.5 c 128,-1,48
 236 -74 236 -74 236 -103 c 0,49,50
 236 -141 236 -141 205.5 -162.5 c 128,-1,51
 175 -184 175 -184 130 -184 c 0,52,0
 79 -184 79 -184 32 -158 c 1,1,-1
EndSplineSet
Substitution2: "'locl' Localized Forms in Latin lookup 4 subtable" uni021B
AlternateSubs2: "'aalt' Access All Alternates in Latin lookup 0 subtable" uni021B
EndChar
StartChar: Uring
Encoding: 366 366 95
Width: 688
GlyphClass: 2
Flags: W
AnchorPoint: "Anchor-3" 751 668 basechar 0
AnchorPoint: "Anchor-2" 509 10 basechar 0
AnchorPoint: "Anchor-1" 482 898 basechar 0
AnchorPoint: "Anchor-0" 291 0 basechar 0
LayerCount: 2
Fore
SplineSet
69 203 m 0,1,2
 69 249 69 249 81 307 c 2,3,-1
 158 668 l 1,4,-1
 276 668 l 1,5,-1
 194 282 l 2,6,7
 186 242 186 242 186 214 c 0,8,9
 186 149 186 149 223 118 c 128,-1,10
 260 87 260 87 336 87 c 0,11,12
 406 87 406 87 446 129 c 128,-1,13
 486 171 486 171 504 259 c 2,14,-1
 591 668 l 1,15,-1
 709 668 l 1,16,-1
 621 255 l 2,17,18
 592 118 592 118 523.5 53 c 128,-1,19
 455 -12 455 -12 333 -12 c 0,20,0
 69 -12 69 -12 69 203 c 0,1,2
352.5 699 m 128,-1,22
 318 734 318 734 318 782 c 256,23,24
 318 830 318 830 352.5 865 c 128,-1,25
 387 900 387 900 436 900 c 256,26,27
 485 900 485 900 519.5 865 c 128,-1,28
 554 830 554 830 554 782 c 256,29,30
 554 734 554 734 519.5 699 c 128,-1,31
 485 664 485 664 436 664 c 256,32,21
 387 664 387 664 352.5 699 c 128,-1,22
471.5 747.5 m 128,-1,34
 486 762 486 762 486 782 c 256,35,36
 486 802 486 802 471.5 817 c 128,-1,37
 457 832 457 832 436 832 c 256,38,39
 415 832 415 832 400.5 817 c 128,-1,40
 386 802 386 802 386 782 c 256,41,42
 386 762 386 762 400.5 747.5 c 128,-1,43
 415 733 415 733 436 733 c 256,44,33
 457 733 457 733 471.5 747.5 c 128,-1,34
EndSplineSet
EndChar
StartChar: Uogonek
Encoding: 370 370 94
Width: 688
GlyphClass: 2
Flags: W
AnchorPoint: "Anchor-3" 751 668 basechar 0
AnchorPoint: "Anchor-1" 433 668 basechar 0
AnchorPoint: "Anchor-0" 291 0 basechar 0
LayerCount: 2
Fore
SplineSet
341.5 -153 m 128,-1,1
 307 -133 307 -133 307 -94 c 0,2,3
 307 -72 307 -72 318.5 -50.5 c 128,-1,4
 330 -29 330 -29 351 -11 c 1,5,6
 69 -18 69 -18 69 207 c 0,7,8
 69 250 69 250 81 307 c 2,9,-1
 158 668 l 1,10,-1
 276 668 l 1,11,-1
 194 282 l 2,12,13
 186 242 186 242 186 214 c 0,14,15
 186 149 186 149 223 118 c 128,-1,16
 260 87 260 87 336 87 c 0,17,18
 406 87 406 87 446 129 c 128,-1,19
 486 171 486 171 504 259 c 2,20,-1
 591 668 l 1,21,-1
 709 668 l 1,22,-1
 621 255 l 2,23,24
 601 163 601 163 566.5 106 c 128,-1,25
 532 49 532 49 477 19 c 0,26,27
 447 3 447 3 424 -22 c 128,-1,28
 401 -47 401 -47 401 -71 c 0,29,30
 401 -90 401 -90 414 -99.5 c 128,-1,31
 427 -109 427 -109 449 -109 c 0,32,33
 470 -109 470 -109 485 -104 c 1,34,-1
 471 -169 l 1,35,36
 451 -173 451 -173 427 -173 c 0,37,0
 376 -173 376 -173 341.5 -153 c 128,-1,1
EndSplineSet
EndChar
StartChar: uogonek
Encoding: 371 371 205
Width: 553
GlyphClass: 2
Flags: W
AnchorPoint: "Anchor-3" 574 496 basechar 0
AnchorPoint: "Anchor-1" 323 496 basechar 0
AnchorPoint: "Anchor-0" 217 0 basechar 0
LayerCount: 2
Fore
SplineSet
82 24.5 m 128,-1,1
 45 61 45 61 45 130 c 0,2,3
 45 160 45 160 52 192 c 2,4,-1
 116 496 l 1,5,-1
 225 496 l 1,6,-1
 164 209 l 2,7,8
 159 181 159 181 159 163 c 0,9,10
 159 79 159 79 235 79 c 0,11,12
 288 79 288 79 323.5 119.5 c 128,-1,13
 359 160 359 160 375 235 c 2,14,-1
 431 496 l 1,15,-1
 540 496 l 1,16,-1
 435 0 l 1,17,18
 392 -10 392 -10 360.5 -29.5 c 128,-1,19
 329 -49 329 -49 329 -74 c 0,20,21
 329 -92 329 -92 343 -100.5 c 128,-1,22
 357 -109 357 -109 376 -109 c 256,23,24
 395 -109 395 -109 413 -104 c 1,25,-1
 399 -169 l 1,26,27
 380 -173 380 -173 352 -173 c 0,28,29
 304 -173 304 -173 269 -153.5 c 128,-1,30
 234 -134 234 -134 234 -97 c 0,31,32
 234 -59 234 -59 264.5 -31 c 128,-1,33
 295 -3 295 -3 343 13 c 1,34,-1
 342 71 l 1,35,36
 317 35 317 35 275.5 11.5 c 128,-1,37
 234 -12 234 -12 182 -12 c 0,38,0
 119 -12 119 -12 82 24.5 c 128,-1,1
EndSplineSet
EndChar
StartChar: florin
Encoding: 402 402 295
Width: 349
GlyphClass: 1
Flags: W
LayerCount: 2
Fore
SplineSet
-63 -165 m 1,1,-1
 -43 -67 l 1,2,3
 -22 -70 -22 -70 -17 -70 c 0,4,5
 16 -70 16 -70 31.5 -53.5 c 128,-1,6
 47 -37 47 -37 55 1 c 2,7,-1
 143 411 l 1,8,-1
 59 411 l 1,9,-1
 78 496 l 1,10,-1
 161 496 l 1,11,-1
 177 572 l 2,12,13
 189 628 189 628 209.5 658.5 c 128,-1,14
 230 689 230 689 266 702 c 128,-1,15
 302 715 302 715 362 715 c 2,16,-1
 420 715 l 1,17,-1
 402 625 l 1,18,-1
 353 625 l 2,19,20
 318 625 318 625 305.5 614 c 128,-1,21
 293 603 293 603 285 568 c 2,22,-1
 270 496 l 1,23,-1
 374 496 l 1,24,-1
 356 411 l 1,25,-1
 251 411 l 1,26,-1
 158 -29 l 2,27,28
 141 -108 141 -108 100 -140.5 c 128,-1,29
 59 -173 59 -173 -5 -173 c 0,30,0
 -39 -173 -39 -173 -63 -165 c 1,1,-1
EndSplineSet
EndChar
StartChar: uni0237
Encoding: 567 567 159
Width: 251
GlyphClass: 2
Flags: W
AnchorPoint: "Anchor-1" 182 496 basechar 0
AnchorPoint: "Anchor-0" 18 -251 basechar 0
LayerCount: 2
Fore
SplineSet
-131 -71 m 1,0,-1
 -62 -71 l 2,1,2
 -31 -71 -31 -71 -16.5 -66 c 128,-1,3
 -2 -61 -2 -61 6 -47 c 128,-1,4
 14 -33 14 -33 21 -1 c 2,5,-1
 128 496 l 1,6,-1
 237 496 l 1,7,-1
 126 -29 l 2,8,9
 114 -84 114 -84 92 -113 c 128,-1,10
 70 -142 70 -142 38 -152 c 128,-1,11
 6 -162 6 -162 -45 -162 c 2,12,-1
 -151 -162 l 1,13,-1
 -131 -71 l 1,0,-1
EndSplineSet
EndChar
StartChar: uni02C9
Encoding: 713 713 374
Width: 363
GlyphClass: 1
Flags: W
LayerCount: 2
Fore
SplineSet
127 661 m 1,0,-1
 411 661 l 1,1,-1
 395 582 l 1,2,-1
 110 582 l 1,3,-1
 127 661 l 1,0,-1
EndSplineSet
EndChar
StartChar: gravecomb
Encoding: 768 768 349
Width: 0
GlyphClass: 4
Flags: W
AnchorPoint: "Anchor-5" 276 715 basemark 0
AnchorPoint: "Anchor-5" 229 496 mark 0
AnchorPoint: "Anchor-1" 229 496 mark 0
LayerCount: 2
Fore
SplineSet
129 663 m 0,1,2
 129 682 129 682 143 698 c 128,-1,3
 157 714 157 714 178 714 c 0,4,5
 190 714 190 714 198.5 706.5 c 128,-1,6
 207 699 207 699 218 682 c 2,7,-1
 281 572 l 1,8,-1
 203 572 l 1,9,-1
 157 616 l 2,10,0
 129 643 129 643 129 663 c 0,1,2
EndSplineSet
Substitution2: "Single Substitution lookup 13 subtable" gravecomb.case
Substitution2: "'case' Case-Sensitive Forms in Latin lookup 11 subtable" gravecomb.case
AlternateSubs2: "'aalt' Access All Alternates in Latin lookup 0 subtable" gravecomb.case
EndChar
StartChar: acutecomb
Encoding: 769 769 351
Width: 0
GlyphClass: 4
Flags: W
AnchorPoint: "Anchor-5" 182 715 basemark 0
AnchorPoint: "Anchor-5" 136 496 mark 0
AnchorPoint: "Anchor-1" 136 496 mark 0
LayerCount: 2
Fore
SplineSet
249 706.5 m 128,-1,1
 262 714 262 714 278 714 c 0,2,3
 296 714 296 714 307 705 c 128,-1,4
 318 696 318 696 318 681 c 0,5,6
 318 662 318 662 304 647 c 128,-1,7
 290 632 290 632 266 616 c 2,8,-1
 201 572 l 1,9,-1
 108 572 l 1,10,-1
 219 682 l 2,11,0
 236 699 236 699 249 706.5 c 128,-1,1
EndSplineSet
Substitution2: "Single Substitution lookup 13 subtable" acutecomb.case
Substitution2: "'case' Case-Sensitive Forms in Latin lookup 11 subtable" acutecomb.case
AlternateSubs2: "'aalt' Access All Alternates in Latin lookup 0 subtable" acutecomb.case
EndChar
StartChar: uni0302
Encoding: 770 770 356
Width: 0
GlyphClass: 4
Flags: W
AnchorPoint: "Anchor-5" 311 707 basemark 0
AnchorPoint: "Anchor-5" 267 496 mark 0
AnchorPoint: "Anchor-1" 267 496 mark 0
LayerCount: 2
Fore
SplineSet
311 707 m 256,1,2
 339 707 339 707 356 687 c 2,3,-1
 457 575 l 1,4,-1
 355 575 l 1,5,-1
 300 636 l 1,6,-1
 219 575 l 1,7,-1
 109 575 l 1,8,-1
 257 687 l 2,9,0
 283 707 283 707 311 707 c 256,1,2
EndSplineSet
Substitution2: "Single Substitution lookup 13 subtable" uni0302.case
Substitution2: "'case' Case-Sensitive Forms in Latin lookup 11 subtable" uni0302.case
AlternateSubs2: "'aalt' Access All Alternates in Latin lookup 0 subtable" uni0302.case
EndChar
StartChar: tildecomb
Encoding: 771 771 364
Width: 0
GlyphClass: 4
Flags: W
AnchorPoint: "Anchor-5" 305 684 basemark 0
AnchorPoint: "Anchor-5" 264 496 mark 0
AnchorPoint: "Anchor-1" 264 496 mark 0
LayerCount: 2
Fore
SplineSet
314.5 579 m 128,-1,1
 299 585 299 585 278 597 c 0,2,3
 263 606 263 606 253.5 610 c 128,-1,4
 244 614 244 614 233 614 c 0,5,6
 216 614 216 614 202.5 604 c 128,-1,7
 189 594 189 594 183 576 c 1,8,-1
 109 576 l 1,9,10
 130 630 130 630 164 657 c 128,-1,11
 198 684 198 684 242 684 c 0,12,13
 264 684 264 684 279 678 c 128,-1,14
 294 672 294 672 313 660 c 0,15,16
 329 651 329 651 338.5 646.5 c 128,-1,17
 348 642 348 642 361 642 c 256,18,19
 374 642 374 642 384 647 c 128,-1,20
 394 652 394 652 405 664 c 0,21,22
 421 683 421 683 441 683 c 0,23,24
 454 683 454 683 461.5 675 c 128,-1,25
 469 667 469 667 469 655 c 0,26,27
 469 639 469 639 452 619.5 c 128,-1,28
 435 600 435 600 408 586.5 c 128,-1,29
 381 573 381 573 353 573 c 0,30,0
 330 573 330 573 314.5 579 c 128,-1,1
EndSplineSet
Substitution2: "Single Substitution lookup 13 subtable" tildecomb.case
Substitution2: "'case' Case-Sensitive Forms in Latin lookup 11 subtable" tildecomb.case
AlternateSubs2: "'aalt' Access All Alternates in Latin lookup 0 subtable" tildecomb.case
EndChar
StartChar: uni0306
Encoding: 774 774 360
Width: 0
GlyphClass: 4
Flags: W
AnchorPoint: "Anchor-5" 277 689 basemark 0
AnchorPoint: "Anchor-5" 236 496 mark 0
AnchorPoint: "Anchor-1" 236 496 mark 0
LayerCount: 2
Fore
SplineSet
173.5 600 m 128,-1,1
 137 633 137 633 133 689 c 1,2,-1
 207 689 l 1,3,4
 212 667 212 667 229 653.5 c 128,-1,5
 246 640 246 640 274 640 c 0,6,7
 301 640 301 640 322.5 654 c 128,-1,8
 344 668 344 668 352 689 c 1,9,-1
 426 689 l 1,10,11
 409 634 409 634 365 600.5 c 128,-1,12
 321 567 321 567 264 567 c 0,13,0
 210 567 210 567 173.5 600 c 128,-1,1
EndSplineSet
Substitution2: "Single Substitution lookup 13 subtable" uni0306.case
Substitution2: "'case' Case-Sensitive Forms in Latin lookup 11 subtable" uni0306.case
AlternateSubs2: "'aalt' Access All Alternates in Latin lookup 0 subtable" uni0306.case
EndChar
StartChar: uni0307
Encoding: 775 775 346
Width: 0
GlyphClass: 4
Flags: W
AnchorPoint: "Anchor-5" 200 707 basemark 0
AnchorPoint: "Anchor-5" 155 496 mark 0
AnchorPoint: "Anchor-1" 155 496 mark 0
LayerCount: 2
Fore
SplineSet
143 601 m 128,-1,1
 125 619 125 619 125 645 c 256,2,3
 125 671 125 671 143 689 c 128,-1,4
 161 707 161 707 187 707 c 0,5,6
 212 707 212 707 230 689 c 128,-1,7
 248 671 248 671 248 645 c 256,8,9
 248 619 248 619 230 601 c 128,-1,10
 212 583 212 583 187 583 c 0,11,0
 161 583 161 583 143 601 c 128,-1,1
EndSplineSet
Substitution2: "Single Substitution lookup 13 subtable" uni0307.case
Substitution2: "'case' Case-Sensitive Forms in Latin lookup 11 subtable" uni0307.case
AlternateSubs2: "'aalt' Access All Alternates in Latin lookup 0 subtable" uni0307.case
EndChar
StartChar: uni0308
Encoding: 776 776 344
Width: 0
GlyphClass: 4
Flags: W
AnchorPoint: "Anchor-5" 295 707 basemark 0
AnchorPoint: "Anchor-5" 250 496 mark 0
AnchorPoint: "Anchor-1" 250 496 mark 0
LayerCount: 2
Fore
SplineSet
333.5 601.5 m 128,-1,1
 315 620 315 620 315 645 c 0,2,3
 315 671 315 671 333.5 689 c 128,-1,4
 352 707 352 707 377 707 c 0,5,6
 403 707 403 707 421 689 c 128,-1,7
 439 671 439 671 439 645 c 0,8,9
 439 620 439 620 421 601.5 c 128,-1,10
 403 583 403 583 377 583 c 0,11,0
 352 583 352 583 333.5 601.5 c 128,-1,1
143 601 m 128,-1,13
 125 619 125 619 125 645 c 256,14,15
 125 671 125 671 143 689 c 128,-1,16
 161 707 161 707 187 707 c 0,17,18
 212 707 212 707 230 689 c 128,-1,19
 248 671 248 671 248 645 c 256,20,21
 248 619 248 619 230 601 c 128,-1,22
 212 583 212 583 187 583 c 0,23,12
 161 583 161 583 143 601 c 128,-1,13
EndSplineSet
Substitution2: "Single Substitution lookup 13 subtable" uni0308.case
Substitution2: "'case' Case-Sensitive Forms in Latin lookup 11 subtable" uni0308.case
AlternateSubs2: "'aalt' Access All Alternates in Latin lookup 0 subtable" uni0308.case
EndChar
StartChar: uni030A
Encoding: 778 778 362
Width: 0
GlyphClass: 4
Flags: W
AnchorPoint: "Anchor-5" 284 783 basemark 0
AnchorPoint: "Anchor-5" 223 496 mark 0
AnchorPoint: "Anchor-1" 223 496 mark 0
LayerCount: 2
Fore
SplineSet
165.5 585 m 128,-1,1
 131 619 131 619 131 668 c 256,2,3
 131 717 131 717 165.5 751 c 128,-1,4
 200 785 200 785 249 785 c 256,5,6
 298 785 298 785 332.5 751 c 128,-1,7
 367 717 367 717 367 668 c 256,8,9
 367 619 367 619 332.5 585 c 128,-1,10
 298 551 298 551 249 551 c 256,11,0
 200 551 200 551 165.5 585 c 128,-1,1
284.5 632 m 128,-1,13
 299 647 299 647 299 668 c 256,14,15
 299 689 299 689 284.5 704 c 128,-1,16
 270 719 270 719 249 719 c 256,17,18
 228 719 228 719 213.5 704 c 128,-1,19
 199 689 199 689 199 668 c 256,20,21
 199 647 199 647 213.5 632 c 128,-1,22
 228 617 228 617 249 617 c 256,23,12
 270 617 270 617 284.5 632 c 128,-1,13
EndSplineSet
Substitution2: "Single Substitution lookup 13 subtable" uni030A.case
Substitution2: "'case' Case-Sensitive Forms in Latin lookup 11 subtable" uni030A.case
AlternateSubs2: "'aalt' Access All Alternates in Latin lookup 0 subtable" uni030A.case
EndChar
StartChar: uni030B
Encoding: 779 779 353
Width: 0
GlyphClass: 4
Flags: W
AnchorPoint: "Anchor-5" 365 714 basemark 0
AnchorPoint: "Anchor-5" 228 496 mark 0
AnchorPoint: "Anchor-1" 228 496 mark 0
LayerCount: 2
Fore
SplineSet
249.5 706.5 m 128,-1,1
 263 714 263 714 278 714 c 0,2,3
 295 714 295 714 305 705 c 128,-1,4
 315 696 315 696 315 682 c 0,5,6
 315 664 315 664 301 648 c 128,-1,7
 287 632 287 632 262 616 c 2,8,-1
 198 572 l 1,9,-1
 108 572 l 1,10,-1
 219 682 l 2,11,0
 236 699 236 699 249.5 706.5 c 128,-1,1
424 706.5 m 128,-1,13
 438 714 438 714 453 714 c 0,14,15
 470 714 470 714 479.5 705.5 c 128,-1,16
 489 697 489 697 489 682 c 0,17,18
 489 664 489 664 475 648.5 c 128,-1,19
 461 633 461 633 436 616 c 2,20,-1
 372 572 l 1,21,-1
 283 572 l 1,22,-1
 393 682 l 2,23,12
 410 699 410 699 424 706.5 c 128,-1,13
EndSplineSet
Substitution2: "Single Substitution lookup 13 subtable" uni030B.case
Substitution2: "'case' Case-Sensitive Forms in Latin lookup 11 subtable" uni030B.case
AlternateSubs2: "'aalt' Access All Alternates in Latin lookup 0 subtable" uni030B.case
EndChar
StartChar: uni030C
Encoding: 780 780 358
Width: 0
GlyphClass: 4
Flags: W
AnchorPoint: "Anchor-5" 310 701 basemark 0
AnchorPoint: "Anchor-5" 266 496 mark 0
AnchorPoint: "Anchor-1" 266 496 mark 0
LayerCount: 2
Fore
SplineSet
236 588 m 2,1,-1
 136 701 l 1,2,-1
 237 701 l 1,3,-1
 292 640 l 1,4,-1
 373 701 l 1,5,-1
 483 701 l 1,6,-1
 335 588 l 2,7,8
 312 569 312 569 282 569 c 256,9,0
 252 569 252 569 236 588 c 2,1,-1
EndSplineSet
Substitution2: "Single Substitution lookup 13 subtable" uni030C.case
Substitution2: "'case' Case-Sensitive Forms in Latin lookup 11 subtable" uni030C.case
AlternateSubs2: "'aalt' Access All Alternates in Latin lookup 0 subtable" uni030C.case
EndChar
StartChar: uni0312
Encoding: 786 786 368
Width: 0
GlyphClass: 4
Flags: W
AnchorPoint: "Anchor-5" 242 773 basemark 0
AnchorPoint: "Anchor-5" 174 496 mark 0
AnchorPoint: "Anchor-1" 174 496 mark 0
LayerCount: 2
Fore
SplineSet
140.5 613 m 128,-1,1
 128 634 128 634 128 656 c 0,2,3
 128 691 128 691 148.5 718 c 128,-1,4
 169 745 169 745 201.5 759 c 128,-1,5
 234 773 234 773 270 773 c 0,6,7
 277 773 277 773 293 771 c 1,8,-1
 331 728 l 1,9,10
 315 730 315 730 306 730 c 0,11,12
 267 730 267 730 240 711.5 c 128,-1,13
 213 693 213 693 213 659 c 0,14,15
 213 642 213 642 223 627.5 c 128,-1,16
 233 613 233 613 252 603 c 1,17,-1
 179 576 l 1,18,0
 153 592 153 592 140.5 613 c 128,-1,1
EndSplineSet
EndChar
StartChar: uni0326
Encoding: 806 806 369
Width: 0
GlyphClass: 4
Flags: W
AnchorPoint: "Anchor-4" 35 -250 basemark 0
AnchorPoint: "Anchor-4" 88 0 mark 0
AnchorPoint: "Anchor-0" 88 0 mark 0
LayerCount: 2
Fore
SplineSet
-34 -208 m 0,1,2
 5 -208 5 -208 33 -189 c 128,-1,3
 61 -170 61 -170 61 -135 c 0,4,5
 61 -119 61 -119 50.5 -104 c 128,-1,6
 40 -89 40 -89 22 -80 c 1,7,-1
 96 -52 l 1,8,9
 122 -68 122 -68 134 -89 c 128,-1,10
 146 -110 146 -110 146 -132 c 0,11,12
 146 -168 146 -168 125.5 -195 c 128,-1,13
 105 -222 105 -222 72 -236 c 128,-1,14
 39 -250 39 -250 3 -250 c 0,15,16
 -12 -250 -12 -250 -19 -249 c 1,17,-1
 -57 -206 l 1,18,0
 -43 -208 -43 -208 -34 -208 c 0,1,2
EndSplineSet
EndChar
StartChar: uni0327
Encoding: 807 807 370
Width: 0
GlyphClass: 4
Flags: W
AnchorPoint: "Anchor-4" 39 -183 basemark 0
AnchorPoint: "Anchor-4" 79 0 mark 0
AnchorPoint: "Anchor-0" 79 0 mark 0
LayerCount: 2
Fore
SplineSet
-47 -158 m 1,1,-1
 -24 -120 l 1,2,3
 7 -140 7 -140 38 -140 c 0,4,5
 58 -140 58 -140 71.5 -131 c 128,-1,6
 85 -122 85 -122 85 -106 c 0,7,8
 85 -94 85 -94 73.5 -86.5 c 128,-1,9
 62 -79 62 -79 45 -79 c 0,10,11
 35 -79 35 -79 23 -81 c 0,12,13
 12 -83 12 -83 5.5 -78.5 c 128,-1,14
 -1 -74 -1 -74 -1 -67 c 256,15,16
 -1 -60 -1 -60 6 -51 c 2,17,-1
 72 27 l 1,18,-1
 105 4 l 1,19,-1
 64 -44 l 1,20,-1
 82 -43 l 2,21,22
 116 -43 116 -43 137 -58.5 c 128,-1,23
 158 -74 158 -74 158 -103 c 0,24,25
 158 -141 158 -141 127 -162.5 c 128,-1,26
 96 -184 96 -184 52 -184 c 0,27,0
 0 -184 0 -184 -47 -158 c 1,1,-1
EndSplineSet
EndChar
StartChar: uni0328
Encoding: 808 808 371
Width: 0
GlyphClass: 4
Flags: W
AnchorPoint: "Anchor-2" 171 10 mark 0
LayerCount: 2
Fore
SplineSet
3 -153.5 m 128,-1,1
 -32 -134 -32 -134 -32 -97 c 0,2,3
 -32 -56 -32 -56 2 -27 c 128,-1,4
 36 2 36 2 87 16 c 1,5,-1
 169 0 l 1,6,7
 126 -11 126 -11 94 -30 c 128,-1,8
 62 -49 62 -49 62 -74 c 0,9,10
 62 -92 62 -92 76.5 -100.5 c 128,-1,11
 91 -109 91 -109 110 -109 c 256,12,13
 129 -109 129 -109 147 -104 c 1,14,-1
 133 -169 l 1,15,16
 114 -173 114 -173 86 -173 c 0,17,0
 38 -173 38 -173 3 -153.5 c 128,-1,1
EndSplineSet
Substitution2: "Single Substitution lookup 13 subtable" uni0328.case
Substitution2: "'case' Case-Sensitive Forms in Latin lookup 11 subtable" uni0328.case
AlternateSubs2: "'aalt' Access All Alternates in Latin lookup 0 subtable" uni0328.case
EndChar
StartChar: uni03A9
Encoding: 937 937 226
Width: 670
GlyphClass: 1
Flags: W
LayerCount: 2
Fore
SplineSet
8 94 m 1,0,-1
 160 94 l 1,1,-1
 168 133 l 1,2,3
 122 161 122 161 95.5 222 c 128,-1,4
 69 283 69 283 69 352 c 0,5,6
 69 439 69 439 111 514.5 c 128,-1,7
 153 590 153 590 227.5 635 c 128,-1,8
 302 680 302 680 393 680 c 0,9,10
 471 680 471 680 532 644.5 c 128,-1,11
 593 609 593 609 627 549 c 128,-1,12
 661 489 661 489 661 420 c 0,13,14
 661 325 661 325 604.5 249.5 c 128,-1,15
 548 174 548 174 454 129 c 1,16,-1
 446 94 l 1,17,-1
 595 94 l 1,18,-1
 576 0 l 1,19,-1
 327 0 l 1,20,-1
 368 194 l 1,21,22
 425 206 425 206 470.5 237.5 c 128,-1,23
 516 269 516 269 542 315 c 128,-1,24
 568 361 568 361 568 414 c 0,25,26
 568 462 568 462 545 502 c 128,-1,27
 522 542 522 542 480.5 566 c 128,-1,28
 439 590 439 590 386 590 c 0,29,30
 323 590 323 590 271.5 558.5 c 128,-1,31
 220 527 220 527 191.5 475 c 128,-1,32
 163 423 163 423 163 364 c 0,33,34
 163 303 163 303 195 255 c 128,-1,35
 227 207 227 207 279 194 c 1,36,-1
 238 0 l 1,37,-1
 -11 0 l 1,38,-1
 8 94 l 1,0,-1
EndSplineSet
EndChar
StartChar: uni03BC
Encoding: 956 956 227
Width: 580
GlyphClass: 1
Flags: W
LayerCount: 2
Fore
SplineSet
118 496 m 1,0,-1
 227 496 l 1,1,-1
 167 211 l 2,2,3
 161 184 161 184 161 162 c 0,4,5
 161 122 161 122 180.5 100.5 c 128,-1,6
 200 79 200 79 238 79 c 0,7,8
 293 79 293 79 329.5 119 c 128,-1,9
 366 159 366 159 382 235 c 2,10,-1
 437 496 l 1,11,-1
 547 499 l 1,12,-1
 474 151 l 2,13,14
 470 135 470 135 470 121 c 0,15,16
 470 105 470 105 479.5 99 c 128,-1,17
 489 93 489 93 513 93 c 2,18,-1
 528 93 l 1,19,-1
 508 0 l 1,20,-1
 455 0 l 2,21,22
 397 0 397 0 376 17 c 128,-1,23
 355 34 355 34 354 69 c 1,24,25
 329 33 329 33 289 10.5 c 128,-1,26
 249 -12 249 -12 199 -12 c 0,27,28
 179 -12 179 -12 159.5 -5 c 128,-1,29
 140 2 140 2 125 16 c 1,30,-1
 87 -162 l 1,31,-1
 -22 -162 l 1,32,-1
 118 496 l 1,0,-1
EndSplineSet
EndChar
StartChar: pi
Encoding: 960 960 228
Width: 587
GlyphClass: 1
Flags: W
LayerCount: 2
Fore
SplineSet
131 401 m 1,0,-1
 49 401 l 1,1,-1
 69 496 l 1,2,-1
 605 496 l 1,3,-1
 584 401 l 1,4,-1
 499 401 l 1,5,-1
 445 149 l 2,6,7
 441 132 441 132 441 118 c 0,8,9
 441 100 441 100 452 93 c 128,-1,10
 463 86 463 86 489 86 c 2,11,-1
 517 86 l 1,12,-1
 499 0 l 1,13,-1
 465 0 l 2,14,15
 395 0 395 0 366.5 16 c 128,-1,16
 338 32 338 32 338 74 c 0,17,18
 338 90 338 90 345 127 c 2,19,-1
 404 401 l 1,20,-1
 225 401 l 1,21,-1
 141 0 l 1,22,-1
 45 0 l 1,23,-1
 131 401 l 1,0,-1
EndSplineSet
EndChar
StartChar: uni1E9E
Encoding: 7838 7838 82
Width: 670
GlyphClass: 1
Flags: W
LayerCount: 2
Fore
SplineSet
294.5 19.5 m 128,-1,1
 249 51 249 51 235 108 c 1,2,-1
 328 140 l 1,3,4
 334 112 334 112 355 96.5 c 128,-1,5
 376 81 376 81 409 81 c 0,6,7
 457 81 457 81 486 118 c 128,-1,8
 515 155 515 155 515 204 c 0,9,10
 515 244 515 244 491.5 265 c 128,-1,11
 468 286 468 286 429 286 c 0,12,13
 412 286 412 286 395 282 c 1,14,-1
 369 355 l 1,15,-1
 565 569 l 1,16,17
 472 588 472 588 399 588 c 0,18,19
 325 588 325 588 284 551 c 128,-1,20
 243 514 243 514 228 441 c 2,21,-1
 134 0 l 1,22,-1
 16 0 l 1,23,-1
 116 474 l 2,24,25
 138 576 138 576 201 628 c 128,-1,26
 264 680 264 680 384 680 c 0,27,28
 447 680 447 680 517 670 c 128,-1,29
 587 660 587 660 681 635 c 1,30,-1
 662 542 l 1,31,-1
 496 360 l 1,32,33
 554 351 554 351 591 311 c 128,-1,34
 628 271 628 271 628 207 c 0,35,36
 628 147 628 147 598.5 97 c 128,-1,37
 569 47 569 47 518.5 17.5 c 128,-1,38
 468 -12 468 -12 408 -12 c 0,39,0
 340 -12 340 -12 294.5 19.5 c 128,-1,1
EndSplineSet
EndChar
StartChar: quoteleft
Encoding: 8216 8216 287
Width: 251
GlyphClass: 1
Flags: W
LayerCount: 2
Fore
SplineSet
117.5 410 m 128,-1,1
 95 432 95 432 95 463 c 0,2,3
 95 489 95 489 113 517 c 2,4,-1
 208 668 l 1,5,-1
 276 668 l 1,6,-1
 199 539 l 1,7,8
 222 530 222 530 235.5 511 c 128,-1,9
 249 492 249 492 249 466 c 0,10,11
 249 434 249 434 226.5 411 c 128,-1,12
 204 388 204 388 173 388 c 0,13,0
 140 388 140 388 117.5 410 c 128,-1,1
EndSplineSet
EndChar
StartChar: quoteright
Encoding: 8217 8217 288
Width: 251
GlyphClass: 1
Flags: W
LayerCount: 2
Fore
SplineSet
137.5 556.5 m 128,-1,1
 124 576 124 576 124 601 c 0,2,3
 124 634 124 634 146.5 656.5 c 128,-1,4
 169 679 169 679 200 679 c 0,5,6
 233 679 233 679 255 657 c 128,-1,7
 277 635 277 635 277 605 c 0,8,9
 277 577 277 577 259 550 c 2,10,-1
 165 399 l 1,11,-1
 96 399 l 1,12,-1
 173 528 l 1,13,0
 151 537 151 537 137.5 556.5 c 128,-1,1
EndSplineSet
EndChar
StartChar: quotesinglbase
Encoding: 8218 8218 283
Width: 251
GlyphClass: 1
Flags: W
LayerCount: 2
Fore
SplineSet
23.5 20 m 128,-1,1
 10 39 10 39 10 65 c 0,2,3
 10 98 10 98 32.5 120 c 128,-1,4
 55 142 55 142 86 142 c 0,5,6
 119 142 119 142 141.5 120.5 c 128,-1,7
 164 99 164 99 164 68 c 0,8,9
 164 42 164 42 146 14 c 2,10,-1
 51 -137 l 1,11,-1
 -17 -137 l 1,12,-1
 59 -8 l 1,13,0
 37 1 37 1 23.5 20 c 128,-1,1
EndSplineSet
EndChar
StartChar: quotedblleft
Encoding: 8220 8220 285
Width: 436
GlyphClass: 1
Flags: W
LayerCount: 2
Fore
SplineSet
302.5 410 m 128,-1,1
 280 432 280 432 280 463 c 0,2,3
 280 489 280 489 298 517 c 2,4,-1
 392 668 l 1,5,-1
 461 668 l 1,6,-1
 384 539 l 1,7,8
 406 531 406 531 419.5 511.5 c 128,-1,9
 433 492 433 492 433 466 c 0,10,11
 433 433 433 433 410.5 410.5 c 128,-1,12
 388 388 388 388 358 388 c 0,13,0
 325 388 325 388 302.5 410 c 128,-1,1
117.5 410 m 128,-1,15
 95 432 95 432 95 463 c 0,16,17
 95 489 95 489 113 517 c 2,18,-1
 208 668 l 1,19,-1
 276 668 l 1,20,-1
 199 539 l 1,21,22
 222 530 222 530 235.5 511 c 128,-1,23
 249 492 249 492 249 466 c 0,24,25
 249 434 249 434 226.5 411 c 128,-1,26
 204 388 204 388 173 388 c 0,27,14
 140 388 140 388 117.5 410 c 128,-1,15
EndSplineSet
EndChar
StartChar: quotedblright
Encoding: 8221 8221 286
Width: 435
GlyphClass: 1
Flags: W
LayerCount: 2
Fore
SplineSet
322.5 556.5 m 128,-1,1
 309 576 309 576 309 602 c 0,2,3
 309 635 309 635 331.5 657.5 c 128,-1,4
 354 680 354 680 384 680 c 0,5,6
 417 680 417 680 439.5 658 c 128,-1,7
 462 636 462 636 462 606 c 0,8,9
 462 580 462 580 444 551 c 2,10,-1
 350 400 l 1,11,-1
 281 400 l 1,12,-1
 358 529 l 1,13,0
 336 537 336 537 322.5 556.5 c 128,-1,1
137.5 557.5 m 128,-1,15
 124 577 124 577 124 602 c 0,16,17
 124 635 124 635 146.5 657.5 c 128,-1,18
 169 680 169 680 200 680 c 0,19,20
 233 680 233 680 255 658 c 128,-1,21
 277 636 277 636 277 606 c 0,22,23
 277 578 277 578 259 551 c 2,24,-1
 165 400 l 1,25,-1
 96 400 l 1,26,-1
 173 529 l 1,27,14
 151 538 151 538 137.5 557.5 c 128,-1,15
EndSplineSet
EndChar
StartChar: quotedblbase
Encoding: 8222 8222 284
Width: 436
GlyphClass: 1
Flags: W
LayerCount: 2
Fore
SplineSet
208.5 20 m 128,-1,1
 195 39 195 39 195 65 c 0,2,3
 195 98 195 98 217.5 120 c 128,-1,4
 240 142 240 142 271 142 c 0,5,6
 304 142 304 142 326 120.5 c 128,-1,7
 348 99 348 99 348 68 c 0,8,9
 348 40 348 40 330 14 c 2,10,-1
 236 -137 l 1,11,-1
 167 -137 l 1,12,-1
 244 -8 l 1,13,0
 222 1 222 1 208.5 20 c 128,-1,1
23.5 20 m 128,-1,15
 10 39 10 39 10 65 c 0,16,17
 10 98 10 98 32.5 120 c 128,-1,18
 55 142 55 142 86 142 c 0,19,20
 119 142 119 142 141.5 120.5 c 128,-1,21
 164 99 164 99 164 68 c 0,22,23
 164 42 164 42 146 14 c 2,24,-1
 51 -137 l 1,25,-1
 -17 -137 l 1,26,-1
 59 -8 l 1,27,14
 37 1 37 1 23.5 20 c 128,-1,15
EndSplineSet
EndChar
StartChar: dagger
Encoding: 8224 8224 307
Width: 561
GlyphClass: 1
Flags: W
LayerCount: 2
Fore
SplineSet
261 403 m 1,0,-1
 73 403 l 1,1,-1
 93 496 l 1,2,-1
 281 496 l 1,3,-1
 318 668 l 1,4,-1
 422 668 l 1,5,-1
 385 496 l 1,6,-1
 573 496 l 1,7,-1
 554 403 l 1,8,-1
 366 403 l 1,9,-1
 280 0 l 1,10,-1
 176 0 l 1,11,-1
 261 403 l 1,0,-1
EndSplineSet
EndChar
StartChar: perthousand
Encoding: 8240 8240 342
Width: 1403
GlyphClass: 1
Flags: W
LayerCount: 2
Fore
SplineSet
762 668 m 1,0,-1
 870 668 l 1,1,-1
 264 0 l 1,2,-1
 156 0 l 1,3,-1
 762 668 l 1,0,-1
182 329.5 m 128,-1,5
 139 355 139 355 114 398 c 128,-1,6
 89 441 89 441 89 492 c 256,7,8
 89 543 89 543 114 586 c 128,-1,9
 139 629 139 629 182 654.5 c 128,-1,10
 225 680 225 680 276 680 c 256,11,12
 327 680 327 680 370 655 c 128,-1,13
 413 630 413 630 438 586.5 c 128,-1,14
 463 543 463 543 463 492 c 256,15,16
 463 441 463 441 438 397.5 c 128,-1,17
 413 354 413 354 370 329 c 128,-1,18
 327 304 327 304 276 304 c 256,19,4
 225 304 225 304 182 329.5 c 128,-1,5
344.5 423.5 m 128,-1,21
 373 452 373 452 373 492 c 256,22,23
 373 532 373 532 344.5 560.5 c 128,-1,24
 316 589 316 589 276 589 c 256,25,26
 236 589 236 589 208 560.5 c 128,-1,27
 180 532 180 532 180 492 c 256,28,29
 180 452 180 452 208 423.5 c 128,-1,30
 236 395 236 395 276 395 c 256,31,20
 316 395 316 395 344.5 423.5 c 128,-1,21
657 13.5 m 128,-1,33
 614 39 614 39 588.5 82 c 128,-1,34
 563 125 563 125 563 176 c 256,35,36
 563 227 563 227 588.5 270 c 128,-1,37
 614 313 614 313 657 338.5 c 128,-1,38
 700 364 700 364 751 364 c 256,39,40
 802 364 802 364 845 338.5 c 128,-1,41
 888 313 888 313 913 270 c 128,-1,42
 938 227 938 227 938 176 c 256,43,44
 938 125 938 125 913 82 c 128,-1,45
 888 39 888 39 845 13.5 c 128,-1,46
 802 -12 802 -12 751 -12 c 256,47,32
 700 -12 700 -12 657 13.5 c 128,-1,33
819 107.5 m 128,-1,49
 847 136 847 136 847 176 c 256,50,51
 847 216 847 216 819 244.5 c 128,-1,52
 791 273 791 273 751 273 c 256,53,54
 711 273 711 273 682.5 245 c 128,-1,55
 654 217 654 217 654 176 c 0,56,57
 654 136 654 136 682.5 107.5 c 128,-1,58
 711 79 711 79 751 79 c 256,59,48
 791 79 791 79 819 107.5 c 128,-1,49
1069 13.5 m 128,-1,61
 1026 39 1026 39 1000.5 82 c 128,-1,62
 975 125 975 125 975 176 c 256,63,64
 975 227 975 227 1000.5 270 c 128,-1,65
 1026 313 1026 313 1069 338.5 c 128,-1,66
 1112 364 1112 364 1163 364 c 256,67,68
 1214 364 1214 364 1257 338.5 c 128,-1,69
 1300 313 1300 313 1325 270 c 128,-1,70
 1350 227 1350 227 1350 176 c 256,71,72
 1350 125 1350 125 1325 82 c 128,-1,73
 1300 39 1300 39 1257 13.5 c 128,-1,74
 1214 -12 1214 -12 1163 -12 c 256,75,60
 1112 -12 1112 -12 1069 13.5 c 128,-1,61
1231 107.5 m 128,-1,77
 1259 136 1259 136 1259 176 c 256,78,79
 1259 216 1259 216 1231 244.5 c 128,-1,80
 1203 273 1203 273 1163 273 c 256,81,82
 1123 273 1123 273 1094.5 245 c 128,-1,83
 1066 217 1066 217 1066 176 c 0,84,85
 1066 136 1066 136 1094.5 107.5 c 128,-1,86
 1123 79 1123 79 1163 79 c 256,87,76
 1203 79 1203 79 1231 107.5 c 128,-1,77
EndSplineSet
EndChar
StartChar: guilsinglleft
Encoding: 8249 8249 291
Width: 372
GlyphClass: 1
Flags: W
LayerCount: 2
Fore
SplineSet
50 250 m 1,0,-1
 239 460 l 1,1,-1
 367 460 l 1,2,-1
 171 243 l 1,3,-1
 277 40 l 1,4,-1
 161 40 l 1,5,-1
 50 250 l 1,0,-1
EndSplineSet
EndChar
StartChar: Euro
Encoding: 8364 8364 314
Width: 670
GlyphClass: 1
Flags: W
LayerCount: 2
Fore
SplineSet
180.5 57 m 128,-1,1
 116 126 116 126 110 237 c 1,2,-1
 9 237 l 1,3,-1
 53 296 l 1,4,-1
 111 296 l 1,5,6
 114 334 114 334 123 373 c 1,7,-1
 38 373 l 1,8,-1
 82 433 l 1,9,-1
 141 433 l 1,10,11
 181 540 181 540 260.5 610 c 128,-1,12
 340 680 340 680 454 680 c 0,13,14
 536 680 536 680 595.5 639.5 c 128,-1,15
 655 599 655 599 679 524 c 1,16,-1
 583 491 l 1,17,18
 551 582 551 582 440 582 c 0,19,20
 373 582 373 582 326.5 541 c 128,-1,21
 280 500 280 500 253 433 c 1,22,-1
 499 433 l 1,23,-1
 455 373 l 1,24,-1
 234 373 l 1,25,26
 224 336 224 336 221 296 c 1,27,-1
 401 296 l 1,28,-1
 356 237 l 1,29,-1
 222 237 l 1,30,31
 228 168 228 168 265.5 127 c 128,-1,32
 303 86 303 86 371 86 c 0,33,34
 479 86 479 86 528 173 c 1,35,-1
 625 134 l 1,36,37
 576 57 576 57 507 22.5 c 128,-1,38
 438 -12 438 -12 362 -12 c 0,39,0
 245 -12 245 -12 180.5 57 c 128,-1,1
EndSplineSet
EndChar
StartChar: uni20B9
Encoding: 8377 8377 315
Width: 586
GlyphClass: 1
Flags: W
LayerCount: 2
Fore
SplineSet
84 290 m 1,0,-1
 96 347 l 1,1,-1
 231 347 l 2,2,3
 286 347 286 347 320 369 c 128,-1,4
 354 391 354 391 365 431 c 1,5,-1
 114 431 l 1,6,-1
 126 490 l 1,7,-1
 372 490 l 1,8,9
 368 530 368 530 336 552.5 c 128,-1,10
 304 575 304 575 248 575 c 2,11,-1
 144 575 l 1,12,-1
 164 668 l 1,13,-1
 620 668 l 1,14,-1
 608 608 l 1,15,-1
 423 608 l 1,16,17
 483 564 483 564 486 490 c 1,18,-1
 583 490 l 1,19,-1
 570 431 l 1,20,-1
 480 431 l 1,21,22
 464 352 464 352 401 305.5 c 128,-1,23
 338 259 338 259 245 256 c 1,24,-1
 459 0 l 1,25,-1
 323 0 l 1,26,-1
 84 290 l 1,0,-1
EndSplineSet
EndChar
StartChar: uni2113
Encoding: 8467 8467 308
Width: 470
GlyphClass: 1
Flags: W
LayerCount: 2
Fore
SplineSet
129 20 m 128,-1,1
 93 52 93 52 93 115 c 0,2,3
 93 141 93 141 99 171 c 2,4,-1
 100 178 l 1,5,-1
 24 130 l 1,6,-1
 42 214 l 1,7,-1
 119 264 l 1,8,-1
 168 500 l 2,9,10
 188 592 188 592 233 636 c 128,-1,11
 278 680 278 680 342 680 c 256,12,13
 406 680 406 680 440 648.5 c 128,-1,14
 474 617 474 617 474 562 c 0,15,16
 474 469 474 469 406 397 c 128,-1,17
 338 325 338 325 223 253 c 1,18,-1
 207 172 l 2,19,20
 203 148 203 148 203 136 c 0,21,22
 203 79 203 79 261 79 c 0,23,24
 301 79 301 79 343 106 c 1,25,-1
 372 32 l 1,26,27
 346 12 346 12 309 0 c 128,-1,28
 272 -12 272 -12 236 -12 c 0,29,0
 165 -12 165 -12 129 20 c 128,-1,1
343.5 439.5 m 128,-1,31
 384 495 384 495 384 548 c 0,32,33
 384 571 384 571 372.5 583.5 c 128,-1,34
 361 596 361 596 342 596 c 0,35,36
 297 596 297 596 279 515 c 2,37,-1
 242 343 l 1,38,30
 303 384 303 384 343.5 439.5 c 128,-1,31
EndSplineSet
EndChar
StartChar: trademark
Encoding: 8482 8482 303
Width: 907
GlyphClass: 1
Flags: W
LayerCount: 2
Fore
SplineSet
495 668 m 1,0,-1
 625 668 l 1,1,-1
 652 405 l 1,2,-1
 791 668 l 1,3,-1
 926 668 l 1,4,-1
 848 303 l 1,5,-1
 766 303 l 1,6,-1
 824 576 l 1,7,-1
 673 303 l 1,8,-1
 592 303 l 1,9,-1
 557 576 l 1,10,-1
 499 303 l 1,11,-1
 417 303 l 1,12,-1
 495 668 l 1,0,-1
232 596 m 1,13,-1
 113 596 l 1,14,-1
 129 668 l 1,15,-1
 449 668 l 1,16,-1
 433 596 l 1,17,-1
 315 596 l 1,18,-1
 252 303 l 1,19,-1
 170 303 l 1,20,-1
 232 596 l 1,13,-1
EndSplineSet
EndChar
StartChar: estimated
Encoding: 8494 8494 310
Width: 616
GlyphClass: 1
Flags: W
LayerCount: 2
Fore
SplineSet
184.5 20.5 m 128,-1,1
 125 53 125 53 88.5 113.5 c 128,-1,2
 52 174 52 174 52 253 c 0,3,4
 52 317 52 317 85.5 375.5 c 128,-1,5
 119 434 119 434 178.5 470 c 128,-1,6
 238 506 238 506 311 506 c 0,7,8
 381 506 381 506 440 471.5 c 128,-1,9
 499 437 499 437 534.5 377.5 c 128,-1,10
 570 318 570 318 570 248 c 1,11,-1
 169 248 l 1,12,-1
 169 88 l 1,13,14
 229 34 229 34 311 34 c 0,15,16
 358 34 358 34 400.5 54 c 128,-1,17
 443 74 443 74 472 109 c 1,18,-1
 519 93 l 1,19,20
 483 45 483 45 428 16.5 c 128,-1,21
 373 -12 373 -12 311 -12 c 0,22,0
 244 -12 244 -12 184.5 20.5 c 128,-1,1
452 293 m 1,23,-1
 452 406 l 1,24,25
 424 432 424 432 387.5 446 c 128,-1,26
 351 460 351 460 311 460 c 0,27,28
 229 460 229 460 169 406 c 1,29,-1
 169 293 l 1,30,-1
 452 293 l 1,23,-1
EndSplineSet
EndChar
StartChar: partialdiff
Encoding: 8706 8706 340
Width: 590
GlyphClass: 1
Flags: W
LayerCount: 2
Fore
SplineSet
150 13 m 128,-1,1
 100 38 100 38 72.5 84.5 c 128,-1,2
 45 131 45 131 45 194 c 0,3,4
 45 267 45 267 77.5 331.5 c 128,-1,5
 110 396 110 396 168 434.5 c 128,-1,6
 226 473 226 473 300 473 c 0,7,8
 362 473 362 473 407 444.5 c 128,-1,9
 452 416 452 416 466 361 c 1,10,11
 470 433 470 433 436 483.5 c 128,-1,12
 402 534 402 534 340 559.5 c 128,-1,13
 278 585 278 585 200 587 c 1,14,-1
 219 680 l 1,15,16
 380 664 380 664 468.5 591.5 c 128,-1,17
 557 519 557 519 557 384 c 0,18,19
 557 296 557 296 528.5 205 c 128,-1,20
 500 114 500 114 434.5 51 c 128,-1,21
 369 -12 369 -12 265 -12 c 0,22,0
 200 -12 200 -12 150 13 c 128,-1,1
355 107.5 m 128,-1,24
 389 137 389 137 405.5 180 c 128,-1,25
 422 223 422 223 422 262 c 0,26,27
 422 315 422 315 392 348.5 c 128,-1,28
 362 382 362 382 309 382 c 0,29,30
 261 382 261 382 226.5 354.5 c 128,-1,31
 192 327 192 327 175 285.5 c 128,-1,32
 158 244 158 244 158 202 c 0,33,34
 158 147 158 147 187.5 112.5 c 128,-1,35
 217 78 217 78 270 78 c 0,36,23
 321 78 321 78 355 107.5 c 128,-1,24
EndSplineSet
EndChar
StartChar: product
Encoding: 8719 8719 337
Width: 596
GlyphClass: 1
Flags: W
LayerCount: 2
Fore
SplineSet
138 668 m 1,0,-1
 636 668 l 1,1,-1
 460 -162 l 1,2,-1
 362 -162 l 1,3,-1
 518 574 l 1,4,-1
 217 574 l 1,5,-1
 60 -162 l 1,6,-1
 -38 -162 l 1,7,-1
 138 668 l 1,0,-1
EndSplineSet
EndChar
StartChar: radical
Encoding: 8730 8730 339
Width: 633
GlyphClass: 1
Flags: W
LayerCount: 2
Fore
SplineSet
143 126 m 1,0,-1
 24 126 l 1,1,-1
 45 225 l 1,2,-1
 230 225 l 1,3,-1
 274 -11 l 1,4,-1
 558 668 l 1,5,-1
 671 668 l 1,6,-1
 319 -162 l 1,7,-1
 199 -162 l 1,8,-1
 143 126 l 1,0,-1
EndSplineSet
EndChar
StartChar: infinity
Encoding: 8734 8734 335
Width: 765
GlyphClass: 1
Flags: W
LayerCount: 2
Fore
SplineSet
124 119.5 m 128,-1,1
 90 138 90 138 70.5 170 c 128,-1,2
 51 202 51 202 51 241 c 0,3,4
 51 285 51 285 74.5 324.5 c 128,-1,5
 98 364 98 364 140 387.5 c 128,-1,6
 182 411 182 411 234 411 c 0,7,8
 331 411 331 411 393 319 c 1,9,10
 441 367 441 367 483.5 389 c 128,-1,11
 526 411 526 411 570 411 c 0,12,13
 611 411 611 411 645 392.5 c 128,-1,14
 679 374 679 374 698.5 342 c 128,-1,15
 718 310 718 310 718 271 c 0,16,17
 718 227 718 227 694.5 187.5 c 128,-1,18
 671 148 671 148 629 124.5 c 128,-1,19
 587 101 587 101 535 101 c 0,20,21
 438 101 438 101 376 193 c 1,22,23
 328 146 328 146 285 123.5 c 128,-1,24
 242 101 242 101 199 101 c 0,25,0
 158 101 158 101 124 119.5 c 128,-1,1
269.5 206 m 128,-1,27
 297 223 297 223 333 260 c 1,28,29
 313 290 313 290 289.5 306.5 c 128,-1,30
 266 323 266 323 234 323 c 0,31,32
 194 323 194 323 170.5 301.5 c 128,-1,33
 147 280 147 280 147 247 c 0,34,35
 147 220 147 220 165.5 204.5 c 128,-1,36
 184 189 184 189 211 189 c 0,37,26
 242 189 242 189 269.5 206 c 128,-1,27
598.5 210.5 m 128,-1,39
 622 232 622 232 622 265 c 0,40,41
 622 292 622 292 603 307.5 c 128,-1,42
 584 323 584 323 557 323 c 0,43,44
 526 323 526 323 498 306 c 128,-1,45
 470 289 470 289 436 252 c 1,46,47
 476 189 476 189 535 189 c 0,48,38
 575 189 575 189 598.5 210.5 c 128,-1,39
EndSplineSet
EndChar
StartChar: integral
Encoding: 8747 8747 336
Width: 469
GlyphClass: 1
Flags: W
LayerCount: 2
Fore
SplineSet
-2 -155.5 m 128,-1,1
 -30 -138 -30 -138 -30 -106 c 0,2,3
 -30 -84 -30 -84 -13.5 -66 c 128,-1,4
 3 -48 3 -48 29 -48 c 0,5,6
 51 -48 51 -48 65 -60 c 128,-1,7
 79 -72 79 -72 79 -92 c 0,8,9
 79 -105 79 -105 72 -121 c 1,10,11
 88 -116 88 -116 99.5 -95 c 128,-1,12
 111 -74 111 -74 120 -31 c 2,13,-1
 232 470 l 2,14,15
 280 681 280 681 409 681 c 0,16,17
 445 681 445 681 473 663.5 c 128,-1,18
 501 646 501 646 501 613 c 0,19,20
 501 591 501 591 484.5 573.5 c 128,-1,21
 468 556 468 556 442 556 c 0,22,23
 419 556 419 556 405.5 568 c 128,-1,24
 392 580 392 580 392 600 c 0,25,26
 392 606 392 606 394.5 614.5 c 128,-1,27
 397 623 397 623 400 629 c 1,28,29
 384 625 384 625 372.5 603.5 c 128,-1,30
 361 582 361 582 350 538 c 2,31,-1
 239 37 l 2,32,33
 192 -173 192 -173 63 -173 c 0,34,0
 26 -173 26 -173 -2 -155.5 c 128,-1,1
EndSplineSet
EndChar
StartChar: approxequal
Encoding: 8776 8776 331
Width: 545
GlyphClass: 1
Flags: W
LayerCount: 2
Fore
SplineSet
158 233 m 0,1,2
 186 233 186 233 208.5 225 c 128,-1,3
 231 217 231 217 263 200 c 0,4,5
 291 186 291 186 308.5 179 c 128,-1,6
 326 172 326 172 347 172 c 0,7,8
 375 172 375 172 393 187.5 c 128,-1,9
 411 203 411 203 420 238 c 1,10,-1
 496 211 l 1,11,12
 456 75 456 75 347 75 c 0,13,14
 319 75 319 75 296.5 83 c 128,-1,15
 274 91 274 91 242 108 c 0,16,17
 216 122 216 122 197.5 129.5 c 128,-1,18
 179 137 179 137 158 137 c 0,19,20
 102 137 102 137 85 71 c 1,21,-1
 9 98 l 1,22,0
 50 233 50 233 158 233 c 0,1,2
200 431 m 0,24,25
 228 431 228 431 250.5 423 c 128,-1,26
 273 415 273 415 305 398 c 0,27,28
 331 384 331 384 349.5 376.5 c 128,-1,29
 368 369 368 369 389 369 c 0,30,31
 445 369 445 369 462 436 c 1,32,-1
 539 409 l 1,33,34
 498 273 498 273 389 273 c 0,35,36
 361 273 361 273 338.5 281 c 128,-1,37
 316 289 316 289 284 306 c 0,38,39
 258 320 258 320 239.5 327.5 c 128,-1,40
 221 335 221 335 200 335 c 0,41,42
 144 335 144 335 127 269 c 1,43,-1
 51 296 l 1,44,23
 92 431 92 431 200 431 c 0,24,25
EndSplineSet
EndChar
StartChar: notequal
Encoding: 8800 8800 325
Width: 621
GlyphClass: 1
Flags: W
LayerCount: 2
Fore
SplineSet
127 112 m 1,0,-1
 30 112 l 1,1,-1
 51 209 l 1,2,-1
 215 209 l 1,3,-1
 294 298 l 1,4,-1
 70 298 l 1,5,-1
 90 395 l 1,6,-1
 382 395 l 1,7,-1
 472 496 l 1,8,-1
 596 496 l 1,9,-1
 506 395 l 1,10,-1
 592 395 l 1,11,-1
 571 298 l 1,12,-1
 419 298 l 1,13,-1
 340 209 l 1,14,-1
 553 209 l 1,15,-1
 532 112 l 1,16,-1
 251 112 l 1,17,-1
 151 0 l 1,18,-1
 27 0 l 1,19,-1
 127 112 l 1,0,-1
EndSplineSet
EndChar
StartChar: lessequal
Encoding: 8804 8804 329
Width: 585
GlyphClass: 1
Flags: W
LayerCount: 2
Fore
SplineSet
52 263 m 1,0,-1
 72 359 l 1,1,-1
 589 499 l 1,2,-1
 567 393 l 1,3,-1
 198 307 l 1,4,-1
 530 220 l 1,5,-1
 510 122 l 1,6,-1
 52 263 l 1,0,-1
17 98 m 1,7,-1
 504 98 l 1,8,-1
 484 0 l 1,9,-1
 -3 0 l 1,10,-1
 17 98 l 1,7,-1
EndSplineSet
EndChar
StartChar: greaterequal
Encoding: 8805 8805 328
Width: 585
GlyphClass: 1
Flags: W
LayerCount: 2
Fore
SplineSet
45 228 m 1,0,-1
 412 315 l 1,1,-1
 81 401 l 1,2,-1
 102 499 l 1,3,-1
 560 359 l 1,4,-1
 539 263 l 1,5,-1
 22 122 l 1,6,-1
 45 228 l 1,0,-1
17 98 m 1,7,-1
 504 98 l 1,8,-1
 483 0 l 1,9,-1
 -4 0 l 1,10,-1
 17 98 l 1,7,-1
EndSplineSet
EndChar
StartChar: lozenge
Encoding: 9674 9674 343
Width: 578
GlyphClass: 1
Flags: W
LayerCount: 2
Fore
SplineSet
63 314 m 1,0,-1
 387 709 l 1,1,-1
 544 314 l 1,2,-1
 220 -80 l 1,3,-1
 63 314 l 1,0,-1
438 323 m 1,4,-1
 355 533 l 1,5,-1
 169 306 l 1,6,-1
 252 96 l 1,7,-1
 438 323 l 1,4,-1
EndSplineSet
EndChar
StartChar: musicalnote
Encoding: 9834 9834 296
Width: 632
GlyphClass: 1
Flags: W
LayerCount: 2
Fore
SplineSet
119 22 m 128,-1,1
 88 54 88 54 88 101 c 256,2,3
 88 148 88 148 120.5 180.5 c 128,-1,4
 153 213 153 213 199 213 c 0,5,6
 235 213 235 213 260 195 c 1,7,-1
 260 668 l 1,8,-1
 311 668 l 1,9,10
 314 638 314 638 328.5 613.5 c 128,-1,11
 343 589 343 589 365 568.5 c 128,-1,12
 387 548 387 548 431 513 c 0,13,14
 487 468 487 468 519 425 c 128,-1,15
 551 382 551 382 551 328 c 0,16,17
 551 277 551 277 497 208 c 1,18,-1
 492 210 l 1,19,20
 478 289 478 289 430.5 341.5 c 128,-1,21
 383 394 383 394 311 422 c 1,22,-1
 311 121 l 2,23,24
 311 59 311 59 278.5 24.5 c 128,-1,25
 246 -10 246 -10 196 -10 c 0,26,0
 150 -10 150 -10 119 22 c 128,-1,1
EndSplineSet
EndChar
StartChar: acutecomb.case
Encoding: 65553 -1 352
Width: 0
GlyphClass: 4
Flags: W
AnchorPoint: "Anchor-5" 218 872 basemark 0
AnchorPoint: "Anchor-5" 174 668 mark 0
AnchorPoint: "Anchor-1" 174 668 mark 0
LayerCount: 2
Fore
SplineSet
293 864 m 128,-1,1
 307 871 307 871 321 871 c 0,2,3
 339 871 339 871 350 861.5 c 128,-1,4
 361 852 361 852 361 838 c 0,5,6
 361 818 361 818 348 804.5 c 128,-1,7
 335 791 335 791 310 777 c 2,8,-1
 244 739 l 1,9,-1
 144 739 l 1,10,-1
 261 841 l 2,11,0
 279 857 279 857 293 864 c 128,-1,1
EndSplineSet
EndChar
StartChar: gravecomb.case
Encoding: 65552 -1 350
Width: 0
GlyphClass: 4
Flags: W
AnchorPoint: "Anchor-5" 317 872 basemark 0
AnchorPoint: "Anchor-5" 273 668 mark 0
AnchorPoint: "Anchor-1" 273 668 mark 0
LayerCount: 2
Fore
SplineSet
169 800.5 m 128,-1,1
 162 811 162 811 162 824 c 0,2,3
 162 842 162 842 177 856.5 c 128,-1,4
 192 871 192 871 211 871 c 0,5,6
 233 871 233 871 257 838 c 2,7,-1
 328 739 l 1,8,-1
 242 739 l 1,9,-1
 192 777 l 2,10,0
 176 790 176 790 169 800.5 c 128,-1,1
EndSplineSet
EndChar
StartChar: one.tf
Encoding: 65540 -1 240
Width: 632
GlyphClass: 1
Flags: W
LayerCount: 2
Fore
SplineSet
74 95 m 1,0,-1
 242 95 l 1,1,-1
 325 483 l 1,2,-1
 157 483 l 1,3,-1
 175 571 l 1,4,5
 250 570 250 570 286 576 c 128,-1,6
 322 582 322 582 344.5 602 c 128,-1,7
 367 622 367 622 395 668 c 1,8,-1
 473 668 l 1,9,-1
 351 95 l 1,10,-1
 499 95 l 1,11,-1
 479 0 l 1,12,-1
 55 0 l 1,13,-1
 74 95 l 1,0,-1
EndSplineSet
Substitution2: "'pnum' Proportional Numbers in Latin lookup 9 subtable" one
AlternateSubs2: "'aalt' Access All Alternates in Latin lookup 0 subtable" one
EndChar
StartChar: uni0307.case
Encoding: 65550 -1 347
Width: 0
GlyphClass: 4
Flags: W
AnchorPoint: "Anchor-5" 232 856 basemark 0
AnchorPoint: "Anchor-5" 192 668 mark 0
AnchorPoint: "Anchor-1" 192 668 mark 0
LayerCount: 2
Fore
SplineSet
175 750.5 m 128,-1,1
 157 768 157 768 157 794 c 256,2,3
 157 820 157 820 175 838 c 128,-1,4
 193 856 193 856 219 856 c 256,5,6
 245 856 245 856 262.5 838 c 128,-1,7
 280 820 280 820 280 794 c 0,8,9
 280 769 280 769 262.5 751 c 128,-1,10
 245 733 245 733 219 733 c 256,11,0
 193 733 193 733 175 750.5 c 128,-1,1
EndSplineSet
EndChar
StartChar: uni0307.large
Encoding: 65551 -1 348
Width: 0
GlyphClass: 4
Flags: W
AnchorPoint: "Anchor-5" 216 731 basemark 0
AnchorPoint: "Anchor-5" 166 496 mark 0
AnchorPoint: "Anchor-1" 166 496 mark 0
LayerCount: 2
Fore
SplineSet
149 607 m 128,-1,1
 128 628 128 628 128 658 c 256,2,3
 128 688 128 688 149 709.5 c 128,-1,4
 170 731 170 731 200 731 c 256,5,6
 230 731 230 731 251.5 709.5 c 128,-1,7
 273 688 273 688 273 658 c 256,8,9
 273 628 273 628 251.5 607 c 128,-1,10
 230 586 230 586 200 586 c 256,11,0
 170 586 170 586 149 607 c 128,-1,1
EndSplineSet
EndChar
StartChar: uni030A.case
Encoding: 65559 -1 363
Width: 0
GlyphClass: 4
Flags: W
AnchorPoint: "Anchor-5" 276 847 basemark 0
AnchorPoint: "Anchor-5" 254 668 mark 0
AnchorPoint: "Anchor-1" 254 668 mark 0
LayerCount: 2
Fore
SplineSet
178.5 646 m 128,-1,1
 144 681 144 681 144 729 c 256,2,3
 144 777 144 777 178.5 812 c 128,-1,4
 213 847 213 847 262 847 c 256,5,6
 311 847 311 847 345.5 812 c 128,-1,7
 380 777 380 777 380 729 c 256,8,9
 380 681 380 681 345.5 646 c 128,-1,10
 311 611 311 611 262 611 c 256,11,0
 213 611 213 611 178.5 646 c 128,-1,1
297.5 694 m 128,-1,13
 312 708 312 708 312 729 c 256,14,15
 312 750 312 750 297.5 764.5 c 128,-1,16
 283 779 283 779 262 779 c 0,17,18
 240 779 240 779 226 764.5 c 128,-1,19
 212 750 212 750 212 729 c 256,20,21
 212 708 212 708 226 694 c 128,-1,22
 240 680 240 680 262 680 c 0,23,12
 283 680 283 680 297.5 694 c 128,-1,13
EndSplineSet
EndChar
StartChar: uni030C.alt
Encoding: 65555 -1 355
Width: 0
GlyphClass: 4
Flags: W
AnchorPoint: "Anchor-3" 76 496 mark 0
LayerCount: 2
Fore
SplineSet
211 718 m 0,1,2
 230 718 230 718 241 708.5 c 128,-1,3
 252 699 252 699 252 684 c 0,4,5
 252 668 252 668 227 629 c 2,6,-1
 167 532 l 1,7,-1
 100 532 l 1,8,-1
 154 675 l 2,9,0
 171 718 171 718 211 718 c 0,1,2
EndSplineSet
EndChar
StartChar: uni0328.alt
Encoding: 65562 -1 372
Width: 0
GlyphClass: 4
Flags: W
AnchorPoint: "Anchor-2" 170 10 mark 0
LayerCount: 2
Fore
SplineSet
3 -153 m 128,-1,1
 -32 -133 -32 -133 -32 -94 c 256,2,3
 -32 -55 -32 -55 5 -19.5 c 128,-1,4
 42 16 42 16 94 33 c 1,5,-1
 159 33 l 1,6,7
 123 13 123 13 93 -14.5 c 128,-1,8
 63 -42 63 -42 63 -71 c 0,9,10
 63 -90 63 -90 76 -99.5 c 128,-1,11
 89 -109 89 -109 111 -109 c 0,12,13
 132 -109 132 -109 147 -104 c 1,14,-1
 132 -169 l 1,15,16
 112 -173 112 -173 89 -173 c 0,17,0
 38 -173 38 -173 3 -153 c 128,-1,1
EndSplineSet
EndChar
StartChar: uni0328.case
Encoding: 65563 -1 373
Width: 0
GlyphClass: 4
Flags: W
AnchorPoint: "Anchor-2" 170 10 mark 0
LayerCount: 2
Fore
SplineSet
2 -153 m 128,-1,1
 -32 -133 -32 -133 -32 -95 c 0,2,3
 -32 -60 -32 -60 -3 -31.5 c 128,-1,4
 26 -3 26 -3 68 11 c 1,5,-1
 168 0 l 1,6,7
 124 -11 124 -11 93.5 -30.5 c 128,-1,8
 63 -50 63 -50 63 -76 c 0,9,10
 63 -93 63 -93 76 -101 c 128,-1,11
 89 -109 89 -109 109 -109 c 256,12,13
 129 -109 129 -109 147 -104 c 1,14,-1
 133 -169 l 1,15,16
 114 -173 114 -173 86 -173 c 0,17,0
 36 -173 36 -173 2 -153 c 128,-1,1
EndSplineSet
EndChar
